<svg width="20" height="20" viewBox="0 0 20 20" fill="none" xmlns="http://www.w3.org/2000/svg">
<circle cx="10" cy="10" r="10" fill="#0459C4"/>
<path d="M10.6943 9.6024L10.6943 6.30233L10.6943 5.62179C10.6943 5.5214 10.6128 5.43983 10.5124 5.43983L9.78422 5.43983C9.68383 5.43983 9.60226 5.5214 9.60226 5.62179L9.60226 9.6024L5.6215 9.60223C5.5211 9.60223 5.43954 9.6838 5.43954 9.7842L5.43938 10.5125C5.43938 10.6129 5.52094 10.6945 5.62134 10.6945L9.60226 10.6945L9.6021 14.6752C9.6021 14.7756 9.68367 14.8572 9.78406 14.8572L10.5122 14.8572C10.6126 14.8572 10.6942 14.7756 10.6942 14.6752L10.6943 10.6945L13.9944 10.6945L14.6749 10.6945C14.7753 10.6945 14.8569 10.6129 14.8569 10.5125V9.78436C14.8569 9.68396 14.7753 9.6024 14.6749 9.6024L10.6943 9.6024Z" fill="white"/>
</svg>
