<?xml version="1.0" encoding="iso-8859-1"?>
<!-- Generator: Adobe Illustrator 21.0.0, SVG Export Plug-In . SVG Version: 6.00 Build 0)  -->
<svg xmlns="http://www.w3.org/2000/svg" xmlns:xlink="http://www.w3.org/1999/xlink" version="1.1" id="Capa_1" x="0px" y="0px" viewBox="0 0 512 512" style="enable-background:new 0 0 512 512;" xml:space="preserve" width="512" height="512">
<g>
	<path style="fill:#FFD659;" d="M197.5,150v40c0,27.61-22.39,50-50,50H7.5v-30h140c11.03,0,20-8.97,20-20v-40c0-11.03-8.97-20-20-20   H7.5v-30h140C175.11,100,197.5,122.39,197.5,150z"/>
	<path style="fill:#FFBD54;" d="M147.5,100h-30c27.61,0,50,22.39,50,50v40c0,27.61-22.39,50-50,50h30c27.61,0,50-22.39,50-50v-40   C197.5,122.39,175.11,100,147.5,100z"/>
	<path style="fill:#FFD659;" d="M314.5,150v40c0,27.61,22.39,50,50,50h140v-30h-140c-11.03,0-20-8.97-20-20v-40   c0-11.03,8.97-20,20-20h140v-30h-140C336.89,100,314.5,122.39,314.5,150z"/>
	<rect x="474.5" y="210" style="fill:#FFBD54;" width="30" height="30"/>
	<rect x="474.5" y="100" style="fill:#FFBD54;" width="30" height="30"/>
	<path style="fill:#FFD659;" d="M334,272H178c-27.61,0-50,22.39-50,50v40c0,27.61,22.39,50,50,50h156c27.61,0,50-22.39,50-50v-40   C384,294.39,361.61,272,334,272z M354,362c0,11.03-8.97,20-20,20H178c-11.03,0-20-8.97-20-20v-40c0-11.03,8.97-20,20-20h156   c11.03,0,20,8.97,20,20V362z"/>
	<path style="fill:#FFBD54;" d="M334,272h-30c27.61,0,50,22.39,50,50v40c0,27.61-22.39,50-50,50h30c27.61,0,50-22.39,50-50v-40   C384,294.39,361.61,272,334,272z"/>
	<path style="fill:#4FB1F5;" d="M369,185H143c-8.284,0-15-6.716-15-15v0c0-8.284,6.716-15,15-15h226c8.284,0,15,6.716,15,15v0   C384,178.284,377.284,185,369,185z"/>
	<path style="fill:#46A4E6;" d="M369,155h-30c8.284,0,15,6.716,15,15c0,8.284-6.716,15-15,15h30c8.284,0,15-6.716,15-15   C384,161.716,377.284,155,369,155z"/>
	<path style="fill:#4FB1F5;" d="M182.5,357H7.5v-30l175,0c8.284,0,15,6.716,15,15v0C197.5,350.284,190.784,357,182.5,357z"/>
	<path style="fill:#46A4E6;" d="M182.5,327h-29.94c8.284,0,15,6.716,15,15c0,8.284-6.716,15-15,15h29.94c8.284,0,15-6.716,15-15   C197.5,333.716,190.784,327,182.5,327z"/>
	<path style="fill:#4FB1F5;" d="M329.5,357h175v-30l-175,0c-8.284,0-15,6.716-15,15v0C314.5,350.284,321.216,357,329.5,357z"/>
	<path style="fill:#685C79;" d="M504.5,327v30h-15c-4.14,0-7.89-1.68-10.6-4.4c-2.72-2.71-4.4-6.46-4.4-10.6c0-8.28,6.72-15,15-15   H504.5z"/>
	<path style="fill:#46A4E6;" d="M504.5,327v30h-15c-4.14,0-7.89-1.68-10.6-4.4c-2.72-2.71-4.4-6.46-4.4-10.6c0-8.28,6.72-15,15-15   H504.5z"/>
	<g>
		<path d="M364.5,137.5h140c4.142,0,7.5-3.358,7.5-7.5v-30c0-4.142-3.358-7.5-7.5-7.5h-140c-30.867,0-56.122,24.451-57.437,55    H204.937c-1.315-30.549-26.569-55-57.437-55H7.5C3.358,92.5,0,95.858,0,100v30c0,4.142,3.358,7.5,7.5,7.5H32    c4.142,0,7.5-3.358,7.5-7.5s-3.358-7.5-7.5-7.5H15v-15h132.5c22.595,0,41.121,17.725,42.42,40h-15.039    c-1.268-13.996-13.061-25-27.381-25H63.75c-4.142,0-7.5,3.358-7.5,7.5s3.358,7.5,7.5,7.5h83.75c6.037,0,11.087,4.301,12.248,10    H143c-12.407,0-22.5,10.093-22.5,22.5s10.093,22.5,22.5,22.5h16.748c-1.161,5.699-6.211,10-12.248,10H7.5    c-4.142,0-7.5,3.358-7.5,7.5v30c0,4.142,3.358,7.5,7.5,7.5h140c30.867,0,56.122-24.451,57.437-55h102.127    c1.315,30.549,26.569,55,57.437,55h140c4.142,0,7.5-3.358,7.5-7.5v-30c0-4.142-3.358-7.5-7.5-7.5h-24.25    c-4.142,0-7.5,3.358-7.5,7.5s3.358,7.5,7.5,7.5H497v15H364.5c-22.595,0-41.121-17.725-42.42-40h15.039    c1.268,13.996,13.061,25,27.381,25h83.25c4.142,0,7.5-3.358,7.5-7.5s-3.358-7.5-7.5-7.5H364.5c-6.037,0-11.087-4.301-12.248-10    H369c12.407,0,22.5-10.093,22.5-22.5s-10.093-22.5-22.5-22.5h-16.748C353.413,141.801,358.463,137.5,364.5,137.5z M147.5,232.5H15    v-15h132.5c14.32,0,26.113-11.004,27.381-25h15.039C188.621,214.775,170.095,232.5,147.5,232.5z M376.5,170    c0,4.136-3.364,7.5-7.5,7.5H143c-4.136,0-7.5-3.364-7.5-7.5s3.364-7.5,7.5-7.5h226C373.136,162.5,376.5,165.864,376.5,170z     M322.08,147.5c1.299-22.275,19.826-40,42.42-40H497v15H364.5c-14.32,0-26.113,11.004-27.381,25H322.08z"/>
		<path d="M504.5,319.5H391.437c-1.315-30.549-26.569-55-57.437-55h-14c-4.142,0-7.5,3.358-7.5,7.5s3.358,7.5,7.5,7.5h14    c22.595,0,41.121,17.725,42.42,40h-15.039c-1.268-13.996-13.061-25-27.381-25H178c-14.32,0-26.113,11.004-27.381,25H135.58    c1.299-22.275,19.826-40,42.42-40h110.167c4.142,0,7.5-3.358,7.5-7.5s-3.358-7.5-7.5-7.5H178c-30.867,0-56.122,24.451-57.437,55    H7.5c-4.142,0-7.5,3.358-7.5,7.5v30c0,4.142,3.358,7.5,7.5,7.5h113.063c1.315,30.549,26.569,55,57.437,55h156    c30.867,0,56.122-24.451,57.437-55H504.5c4.142,0,7.5-3.358,7.5-7.5v-30C512,322.858,508.642,319.5,504.5,319.5z M178,309.5h156    c6.037,0,11.087,4.301,12.248,10H329.5c-12.407,0-22.5,10.093-22.5,22.5s10.093,22.5,22.5,22.5h16.748    c-1.161,5.699-6.211,10-12.248,10H178c-6.037,0-11.087-4.301-12.248-10H182.5c12.407,0,22.5-10.093,22.5-22.5    s-10.093-22.5-22.5-22.5h-16.748C166.913,313.801,171.963,309.5,178,309.5z M15,334.5h167.5c4.136,0,7.5,3.364,7.5,7.5    s-3.364,7.5-7.5,7.5H15V334.5z M334,404.5H178c-22.595,0-41.121-17.725-42.42-40h15.039c1.268,13.996,13.061,25,27.381,25h156    c14.32,0,26.113-11.004,27.381-25h15.039C375.121,386.775,356.595,404.5,334,404.5z M497,349.5H329.5c-4.136,0-7.5-3.364-7.5-7.5    s3.364-7.5,7.5-7.5H497V349.5z"/>
	</g>
</g>















</svg>
