<svg width="64" height="64" viewBox="0 0 64 64" fill="none" xmlns="http://www.w3.org/2000/svg">
<circle cx="31.5844" cy="32.3266" r="31.5726" fill="#5F2652" fill-opacity="0.07"/>
<path fill-rule="evenodd" clip-rule="evenodd" d="M38.398 31.9917C37.9854 30.8129 37.2781 29.7716 36.3547 28.9661L36.0011 28.6714L35.9814 28.6517C35.8636 28.5535 35.7457 28.4749 35.6278 28.3963L35.6081 28.3767C35.4903 28.2981 35.3724 28.2195 35.2349 28.1409C35.2152 28.1409 35.2152 28.1213 35.1956 28.1213C35.0777 28.0427 34.9402 27.9838 34.8223 27.9248C34.8026 27.9248 34.8026 27.9052 34.783 27.9052C34.6651 27.8462 34.5276 27.7873 34.3901 27.7284C34.3704 27.7284 34.3704 27.7087 34.3508 27.7087C34.2329 27.6694 34.115 27.6105 33.9971 27.5712C33.6828 27.4533 33.3488 27.3551 33.0148 27.2961C32.7594 27.7873 32.4057 28.2195 32.0128 28.5928C32.6219 28.6321 33.2113 28.7893 33.7417 29.0054C34.0561 29.1429 34.3704 29.3001 34.6455 29.4769C34.6651 29.4769 34.6848 29.4966 34.6848 29.4966C34.7633 29.5358 34.8223 29.5948 34.9009 29.6537C34.9402 29.6734 34.9598 29.693 34.9991 29.7323C35.058 29.7716 35.1366 29.8305 35.1956 29.8895C35.2349 29.9288 35.2742 29.9484 35.3134 29.9877C35.3724 30.0467 35.4313 30.086 35.4903 30.1449L35.6081 30.2628L35.7653 30.4199L35.8832 30.5378C35.9225 30.5968 35.9814 30.6557 36.0207 30.695C36.06 30.7343 36.0993 30.7932 36.1386 30.8325L36.2565 31.0093C36.2958 31.0683 36.3351 31.1076 36.3547 31.1665L36.4726 31.3433C36.5119 31.4023 36.5315 31.4612 36.5708 31.5005C36.6101 31.5595 36.6298 31.6184 36.6691 31.6773C36.7084 31.7363 36.728 31.7952 36.7673 31.8542C36.7869 31.9131 36.8262 31.972 36.8459 32.031C36.8852 32.1096 36.9048 32.1881 36.9441 32.2471C37.1013 32.64 37.2192 33.0526 37.2781 33.5045L37.4549 34.1921C37.5335 34.4868 38.2408 37.0016 39.8911 37.8464C41.7772 38.8287 44.2723 40.0468 45.2547 40.5183L32.3075 48.2591V42.9545C32.3075 42.1097 33.9775 41.1274 34.7437 40.7934L34.783 40.7737C34.9402 40.6952 35.0973 40.6166 35.2545 40.5183L35.3134 40.479C35.6474 40.2826 35.9618 40.0468 36.2565 39.7914C36.2761 39.7718 36.3154 39.7521 36.3351 39.7128C36.3744 39.6932 36.394 39.6539 36.4333 39.6342C36.5315 39.5557 36.6101 39.4574 36.7084 39.3788L36.7477 39.3395C36.8459 39.2413 36.9441 39.1431 37.0227 39.0252C37.0424 38.9859 37.0816 38.9663 37.1013 38.927C37.1799 38.8484 37.2388 38.7501 37.3174 38.6519C37.3371 38.6323 37.3567 38.593 37.3763 38.5733L37.6121 38.2197C37.6121 38.2 37.6318 38.2 37.6318 38.1804C37.73 38.0232 37.8282 37.8464 37.9265 37.6892C37.5335 37.2177 37.2388 36.7069 37.0031 36.2354C36.9048 36.5301 36.7673 36.8248 36.6298 37.0802C36.5708 37.1981 36.4922 37.3159 36.4333 37.4338C36.4137 37.4535 36.4137 37.4731 36.394 37.4731C36.3351 37.5713 36.2565 37.6696 36.1975 37.7482C36.1779 37.7678 36.1583 37.8071 36.1386 37.8267C36.0797 37.925 36.0011 38.0036 35.9225 38.0822C35.9028 38.1018 35.9028 38.1214 35.8832 38.1214C35.4117 38.6519 34.8419 39.1038 34.1936 39.4181L34.0757 39.4771C33.7417 39.6146 30.8537 40.9309 30.8537 42.9152V48.2198L17.8868 40.4987C18.7316 39.9879 21.1678 38.534 23.1718 37.9053C23.9577 37.6499 25.6276 38.7108 26.5707 39.4771L26.6296 39.536C26.7475 39.6539 26.885 39.7718 27.0225 39.87L27.0618 39.9093C27.3565 40.1451 27.6709 40.3808 28.0245 40.5576L28.2603 40.6755C28.2799 40.6755 28.2996 40.6952 28.2996 40.6952C28.5157 40.813 28.7318 40.9113 28.9676 41.0095C29.0069 41.0292 29.0265 41.0292 29.0658 41.0488C29.0855 41.0488 29.1051 41.0684 29.1444 41.0684C29.4784 41.1863 29.8124 41.2846 30.1464 41.3631C30.4018 40.872 30.7751 40.4398 31.168 40.0665C30.5982 40.0272 30.0678 39.9093 29.557 39.7128C29.5373 39.6932 29.498 39.6932 29.4784 39.6735C29.4194 39.6539 29.3605 39.6342 29.3016 39.5949C29.2819 39.5753 29.2426 39.5753 29.223 39.5557C29.164 39.536 29.1051 39.4967 29.0658 39.4771C28.6729 39.2806 28.3192 39.0645 27.9852 38.7894L27.4744 38.3179C27.4548 38.2983 26.8261 37.7285 25.942 37.2177C24.6649 36.4908 23.5844 36.255 22.7592 36.5104C21.05 37.0605 19.1049 38.1018 17.9261 38.7894L30.8733 15.5278V25.7244C30.8733 26.078 30.3428 27.0211 28.555 27.8266L28.4371 27.8855C28.2603 27.9641 28.1031 28.0623 27.9263 28.1606L27.887 28.1802C27.553 28.3767 27.2387 28.6125 26.9243 28.8679C26.7278 29.025 26.551 29.2019 26.3939 29.3787L26.3742 29.3983C26.1974 29.5751 26.0402 29.752 25.9027 29.9484L25.883 29.9681C25.8045 30.0663 25.7455 30.1645 25.6669 30.2628C25.6669 30.2824 25.6473 30.2824 25.6473 30.3021C25.5883 30.4003 25.5294 30.4789 25.4705 30.5771C25.4705 30.5968 25.4508 30.5968 25.4508 30.6164L25.274 30.9111C25.2543 30.9308 25.2543 30.9504 25.2347 30.9897C25.1758 31.0879 25.1365 31.1862 25.0972 31.2648C25.0972 31.2844 25.0775 31.304 25.0775 31.304C25.0382 31.4023 24.9989 31.4809 24.9596 31.5791C24.94 31.6184 24.94 31.638 24.9204 31.6773L24.8025 31.972C24.7828 32.0113 24.7828 32.031 24.7632 32.0703C24.7435 32.1489 24.7239 32.2078 24.6846 32.2864C24.6649 32.3257 24.6649 32.365 24.6453 32.4043C24.6257 32.5025 24.5864 32.6007 24.5667 32.6793C24.5471 32.7186 24.5471 32.7775 24.5274 32.8168C24.5078 32.8758 24.5078 32.9544 24.4881 33.0133C24.4685 33.0723 24.4685 33.1312 24.4488 33.1901C24.4292 33.2687 24.4292 33.3473 24.4095 33.4259C24.4095 33.4848 24.3899 33.5241 24.3899 33.5831C24.3899 33.6616 24.3702 33.7206 24.3702 33.7992C24.3702 33.8778 24.3702 33.9367 24.3506 34.0153V34.31C24.3506 34.6636 24.3702 35.0369 24.4292 35.3709C24.94 35.4888 25.4705 35.7049 26.0402 35.98C25.883 35.4691 25.8045 34.9387 25.7848 34.3886V34.2903C25.7848 34.1528 25.7848 34.0349 25.8045 33.8974V33.7992C25.8045 33.6813 25.8241 33.5831 25.8437 33.4652V33.4259C25.8634 33.308 25.883 33.1901 25.9027 33.0526C25.9027 33.0133 25.9223 32.9937 25.9223 32.9544C25.942 32.8561 25.9813 32.7579 26.0009 32.6597C26.0009 32.64 26.0206 32.6204 26.0206 32.6007L26.1384 32.2471C26.1581 32.2274 26.1581 32.1881 26.1777 32.1685C26.217 32.0703 26.2563 31.972 26.2956 31.8934C26.3153 31.8738 26.3153 31.8542 26.3349 31.8149C26.3939 31.697 26.4331 31.5987 26.5117 31.5005C26.5314 31.4809 26.5314 31.4612 26.551 31.4416C26.61 31.3433 26.6493 31.2648 26.7082 31.1665C26.7278 31.1469 26.7278 31.1272 26.7475 31.1076C26.8064 31.0093 26.885 30.9111 26.9636 30.8129C26.9636 30.8129 26.9636 30.7932 26.9833 30.7932C27.0618 30.695 27.1208 30.6164 27.1994 30.5182C27.219 30.4985 27.219 30.4789 27.2387 30.4592C27.5923 30.0663 27.9852 29.7323 28.4371 29.4376L29.0462 29.1429C29.3801 29.0054 32.2486 27.6498 32.2486 25.6655V15.5278L45.3136 38.9859C44.1545 38.4161 42.0916 37.3945 40.5002 36.5694C39.5768 36.0978 38.9677 34.4279 38.7909 33.8188L38.6141 33.1115C38.6141 32.7383 38.5159 32.365 38.398 31.9917ZM47.239 39.3788L32.838 13.5434C32.5826 13.0719 32.111 12.7969 31.5806 12.7969C31.0501 12.7969 30.5786 13.0719 30.3232 13.5434L15.9222 39.3788C15.5489 40.0468 15.765 40.9113 16.433 41.3042L30.8537 49.9291C31.0894 50.0666 31.3448 50.1256 31.6002 50.1256C31.8556 50.1256 32.111 50.0666 32.3468 49.9291L46.7478 41.3239C47.3962 40.9113 47.6319 40.0468 47.239 39.3788Z" fill="#5F2652"/>
</svg>
