<svg width="64" height="64" viewBox="0 0 64 64" fill="none" xmlns="http://www.w3.org/2000/svg">
<circle cx="32.3187" cy="31.8109" r="31.5726" fill="#1A53F0" fill-opacity="0.07"/>
<path d="M32.3174 50.1075C42.7877 50.1075 51.2755 41.6197 51.2755 31.1495C51.2755 20.6792 42.7877 12.1914 32.3174 12.1914C21.8472 12.1914 13.3594 20.6792 13.3594 31.1495C13.3594 41.6197 21.8472 50.1075 32.3174 50.1075Z" fill="#1A53F0"/>
<path d="M27.4077 32.6755C24.5605 32.6755 22.2524 34.9857 22.2524 37.8356C22.2524 40.6855 24.5608 42.9958 27.408 42.9958C30.2556 42.9958 32.5637 40.6855 32.5637 37.8356C32.5637 34.9857 30.2556 32.6755 27.408 32.6755H27.4077ZM27.4077 41.4349C25.4228 41.4349 23.8136 39.8243 23.8136 37.8374C23.8136 35.8506 25.4228 34.24 27.4077 34.24C29.3929 34.24 31.0021 35.8506 31.0021 37.8374C30.9988 39.8227 29.3914 41.4315 27.4077 41.4349ZM38.4182 21.668C35.571 21.668 33.2626 23.9782 33.2626 26.8281C33.2626 29.678 35.571 31.9883 38.4182 31.9883C41.2658 31.9883 43.5739 29.678 43.5739 26.8281C43.5739 23.9782 41.2658 21.668 38.4182 21.668ZM38.4182 30.4274C36.4333 30.4274 34.8241 28.8168 34.8241 26.83C34.8241 24.8431 36.4333 23.2325 38.4182 23.2325C40.4035 23.2325 42.0127 24.8431 42.0127 26.83C42.0093 28.8152 40.4019 30.424 38.4182 30.4274ZM27.4077 21.668C24.9533 21.6664 22.8376 23.3966 22.3495 25.8044C21.8617 28.2119 23.1367 30.6304 25.3977 31.5865C27.6588 32.5422 30.28 31.7709 31.6641 29.742C33.0485 27.7132 32.8126 24.9892 31.1002 23.2289H32.5622V21.668H27.4077ZM31.0021 26.8281C31.0021 28.8149 29.3929 30.4255 27.4077 30.4255C25.4228 30.4255 23.8136 28.8149 23.8136 26.8281C23.8136 24.8413 25.4228 23.2307 27.4077 23.2307C29.392 23.2332 31.0006 24.8419 31.004 26.8281H31.0021Z" fill="white"/>
</svg>