<svg width="64" height="65" viewBox="0 0 64 65" fill="none" xmlns="http://www.w3.org/2000/svg">
<circle cx="31.682" cy="32.4555" r="31.5726" fill="#001D57" fill-opacity="0.12"/>
<path d="M31.9893 51.4122C42.4595 51.4122 50.9474 42.9244 50.9474 32.4541C50.9474 21.9839 42.4595 13.4961 31.9893 13.4961C21.5191 13.4961 13.0312 21.9839 13.0312 32.4541C13.0312 42.9244 21.5191 51.4122 31.9893 51.4122Z" fill="#001D57"/>
<path d="M37.3208 19.7617L38.7465 21.1891L36.0481 23.9618C36.6163 24.8268 36.9232 25.8463 36.9232 26.898C36.9232 28.3068 36.3961 29.6177 35.4321 30.6082C34.7125 31.3625 33.8026 31.8617 32.8055 32.0605V34.4765C33.792 34.6762 34.7023 35.1779 35.428 35.9236C36.3961 36.9183 36.9232 38.2292 36.9232 39.638C36.9232 41.0468 36.3961 42.3577 35.428 43.3524C34.4606 44.3464 33.1629 44.8955 31.7907 44.8955C30.4088 44.8955 29.1245 44.3503 28.1534 43.3524C27.1891 42.3615 26.6582 41.0368 26.6582 39.638C26.6582 38.2392 27.1891 36.9145 28.1493 35.9278C28.869 35.1735 29.7788 34.6743 30.7759 34.4755V32.0595C29.7894 31.8598 28.8791 31.3581 28.1534 30.6124C27.1891 29.6216 26.6582 28.2968 26.6582 26.898C26.6582 25.4993 27.1891 24.1745 28.1534 23.1836C29.1208 22.1896 30.4186 21.6405 31.7907 21.6405C32.8104 21.6405 33.7899 21.9506 34.6292 22.5274L37.3208 19.7617ZM31.7907 36.4177C30.9474 36.4177 30.1705 36.7459 29.5908 37.3544C29.0016 37.9598 28.6727 38.7738 28.6727 39.638C28.6727 40.4973 28.9982 41.2994 29.5908 41.9216C30.1769 42.5239 30.9606 42.8582 31.7907 42.8582C32.6341 42.8582 33.411 42.5301 33.9906 41.9216C34.5798 41.3162 34.9088 40.5022 34.9088 39.638C34.9088 38.7787 34.5832 37.9766 33.9862 37.3498C33.411 36.7459 32.6341 36.4177 31.7907 36.4177ZM33.9862 29.2017C34.5798 28.5917 34.9088 27.7778 34.9088 26.9135C34.9088 26.0358 34.5859 25.2286 33.9906 24.6299C33.4045 24.0276 32.6209 23.6933 31.7907 23.6933C30.9474 23.6933 30.1705 24.0214 29.5908 24.6299C29.0016 25.2354 28.6727 26.0493 28.6727 26.9135C28.6727 27.7728 28.9982 28.5749 29.5908 29.1971C30.1769 29.7994 30.9606 30.1338 31.7907 30.1338C32.6341 30.1338 33.411 29.8057 33.9862 29.2017Z" fill="white"/>
</svg>
