<svg width="14" height="14" viewBox="0 0 14 14" fill="none" xmlns="http://www.w3.org/2000/svg">
<path d="M14 7C14 5.96914 13.352 5.08867 12.4387 4.74688C12.8406 3.86094 12.6793 2.78086 11.9492 2.05078C11.2191 1.3207 10.1391 1.15937 9.25313 1.56133C8.91133 0.648047 8.03086 0 7 0C5.96914 0 5.08867 0.648047 4.74688 1.56133C3.86094 1.15937 2.77813 1.3207 2.05078 2.05078C1.3207 2.78086 1.15937 3.86094 1.56133 4.74688C0.648047 5.08867 0 5.96914 0 7C0 8.03086 0.648047 8.91133 1.56133 9.25313C1.15937 10.1391 1.3207 11.2219 2.05078 11.9492C2.77813 12.6766 3.8582 12.8434 4.74688 12.4387C5.08867 13.3492 5.96914 14 7 14C8.03086 14 8.91133 13.352 9.25313 12.4387C10.1445 12.8434 11.2219 12.6766 11.9492 11.9492C12.6793 11.2191 12.8406 10.1391 12.4387 9.25313C13.352 8.91133 14 8.03086 14 7ZM10.0406 5.79004L6.4575 9.34445C6.33965 9.46148 6.14906 9.46066 6.0323 9.34281L3.96184 7.25566C3.8448 7.13781 3.84562 6.94723 3.96348 6.83019L4.67523 6.12418C4.79309 6.00715 4.98367 6.00797 5.1007 6.12582L6.25324 7.28766L8.91105 4.65117C9.02891 4.53414 9.21949 4.53496 9.33625 4.65281L10.0423 5.36457C10.1593 5.4827 10.1588 5.67328 10.0406 5.79004Z" fill="#B0B9BD"/>
</svg>
