<svg width="140" height="140" viewBox="0 0 140 140" fill="none" xmlns="http://www.w3.org/2000/svg">
<path d="M137.588 128.23V137.506H2.41347V128.23C2.15927 126.584 2.36077 124.899 2.99612 123.359C4.39448 120.959 8.30987 119.63 10.6638 118.372C13.9965 116.601 17.3293 114.806 20.6154 112.965C24.2478 110.7 28.2459 109.084 32.4315 108.187C39.4699 106.905 46.5083 100.52 46.5083 100.52H93.493C93.493 100.52 100.531 106.905 107.57 108.187C111.755 109.084 115.753 110.7 119.386 112.965C122.672 114.806 126.005 116.601 129.338 118.372C131.691 119.63 135.607 120.959 137.005 123.359C137.641 124.899 137.842 126.584 137.588 128.23Z" fill="#4527A0"/>
<path d="M130.596 128.23V137.506H2.41347V128.23C2.15927 126.584 2.36077 124.899 2.99612 123.359C4.39448 120.959 8.30987 119.63 10.6638 118.372C13.9965 116.601 17.3293 114.806 20.6154 112.965C24.2478 110.7 28.2459 109.084 32.4315 108.187C39.4699 106.905 46.5083 100.52 46.5083 100.52H86.5012C86.5012 100.52 93.5396 106.905 100.578 108.187C104.764 109.084 108.762 110.7 112.394 112.965C115.68 114.806 119.013 116.601 122.346 118.372C124.7 119.63 128.615 120.959 130.013 123.359C130.649 124.899 130.85 126.584 130.596 128.23Z" fill="#673AB7"/>
<path d="M89.9492 137.506H50.0495C34.7841 129.862 39.4686 105.624 39.4686 105.624L39.3987 105.507C41.9361 104.098 44.3186 102.426 46.507 100.52H93.4917C95.6801 102.426 98.0626 104.098 100.6 105.507L100.53 105.624C100.53 105.624 105.215 129.862 89.9492 137.506Z" fill="#FFE0B2"/>
<path d="M93.4817 91.5977H46.5156V109.45H93.4817V91.5977Z" fill="#FFE0B2"/>
<path d="M39.3527 69.8503C34.7348 67.1091 31.5621 62.4696 30.6829 57.1719C30.6829 57.1719 29.4476 45.682 31.9414 44.4235C34.4351 43.165 36.9755 46.9639 36.9755 46.9639L51.3552 60.5978L39.3527 69.8503Z" fill="#DFC49C"/>
<path d="M100.135 80.8963C99.0258 85.0399 96.7145 88.7622 93.4925 91.5937C84.1002 100.52 84.1002 109.446 74.7079 109.446H65.2923C55.9 109.446 55.9 100.52 46.5077 91.5937C37.1154 82.6675 39.4693 75.0232 39.4693 66.097C39.4693 57.1709 35.9501 54.6072 37.1154 29.1105C38.2807 3.61386 67.6462 2.33203 67.6462 2.33203H72.354C78.9846 2.82446 85.4051 4.87677 91.092 8.32165L100.135 80.8963Z" fill="#DFC49C"/>
<path d="M93.3066 80.8963C92.378 84.9374 90.3446 88.641 87.4335 91.5937C79.1273 100.52 79.1273 109.446 70.8234 109.446H62.4962C54.1923 109.446 54.1923 100.52 45.886 91.5937C37.5798 82.6675 39.6633 75.0232 39.6633 66.097C39.6633 57.1709 36.552 54.6072 37.5821 29.1105C38.6122 3.61386 64.5774 2.33203 64.5774 2.33203H68.7421C74.6935 2.84578 80.4062 4.91099 85.3103 8.32165L93.3066 80.8963Z" fill="#FFE0B2"/>
<path d="M137.587 17.0828V50.014C137.575 56.9285 134.213 63.4087 128.567 67.4003L105.634 83.7377C105.227 84.0175 104.69 84.0175 104.283 83.7377L101.462 81.7334L81.3495 67.4003C75.7034 63.4087 72.3418 56.9285 72.3301 50.014V17.0828C72.3315 16.6188 72.6053 16.199 73.0293 16.0107L101.462 3.72848L104.492 2.42335C104.792 2.3068 105.125 2.3068 105.424 2.42335L136.887 16.0107C137.311 16.199 137.585 16.6188 137.587 17.0828Z" fill="#6A1B9A"/>
<path d="M130.595 17.0848V50.016C130.583 56.9305 127.222 63.4107 121.575 67.4023L101.462 81.7354L81.3495 67.4023C75.7034 63.4107 72.3418 56.9305 72.3301 50.016V17.0848C72.3315 16.6208 72.6053 16.201 73.0293 16.0127L101.462 3.73047L129.896 16.0127C130.32 16.201 130.593 16.6208 130.595 17.0848Z" fill="#9D27B0"/>
<path d="M86.7517 59.8127C83.5727 57.5643 81.6738 53.9202 81.6523 50.0265V22.451L104.958 12.3828L128.264 22.451V50.0265C128.243 53.9211 126.345 57.5662 123.165 59.815L104.958 72.7731L86.7517 59.8127Z" fill="#E91E63"/>
<path d="M104.959 86.233C104.094 86.2337 103.251 85.964 102.547 85.4616L79.9959 69.4085C73.7471 64.9727 70.0244 57.7929 70 50.1298V16.4248C69.9986 15.4968 70.5479 14.6565 71.3984 14.2853L104.027 0.1922C104.615 -0.0640666 105.284 -0.0640666 105.872 0.1922L138.501 14.2853C139.351 14.6565 139.901 15.4968 139.899 16.4248V50.1298C139.875 57.7929 136.152 64.9727 129.903 69.4085L107.352 85.4616C106.654 85.9603 105.817 86.2299 104.959 86.233ZM74.6612 17.9583V50.1205C74.6839 56.2763 77.6776 62.0423 82.6994 65.6026L104.959 81.4576L127.218 65.6096C132.24 62.0498 135.233 56.2848 135.257 50.1298V17.9583L104.959 4.8697L74.6612 17.9583Z" fill="black"/>
<path d="M104.959 75.2072C104.474 75.2067 104.002 75.0552 103.607 74.7737L85.4005 61.8133C81.6083 59.1274 79.345 54.7769 79.3223 50.13V22.5544C79.3209 21.6265 79.8701 20.7861 80.7206 20.4149L104.027 10.3468C104.616 10.0927 105.283 10.0927 105.872 10.3468L129.178 20.4149C130.029 20.7861 130.578 21.6265 130.577 22.5544V50.13C130.554 54.7776 128.291 59.129 124.498 61.8156L106.292 74.7737C105.903 75.0516 105.437 75.2029 104.959 75.2072ZM88.1063 58.019L104.959 70.0169L121.811 58.019C124.378 56.2087 125.913 53.2709 125.934 50.13V24.0856L104.959 15.0243L83.9835 24.0856V50.13C84.0038 53.271 85.5392 56.209 88.1063 58.019Z" fill="black"/>
<path d="M100.296 55.9375C99.7913 55.9375 99.3006 55.7739 98.8972 55.4714L89.5749 48.4796C88.9087 47.98 88.5598 47.163 88.6593 46.3363C88.7589 45.5097 89.292 44.799 90.0577 44.4719C90.8234 44.1448 91.7054 44.2511 92.3716 44.7507L99.8854 50.386L117.132 28.8444C117.938 27.8485 119.398 27.6906 120.398 28.4909C121.399 29.2912 121.566 30.7494 120.772 31.7553L102.127 55.0612C101.683 55.6179 101.008 55.9407 100.296 55.9375Z" fill="black"/>
<path d="M39.3507 72.1787C38.9782 72.1799 38.611 72.0903 38.281 71.9177C32.9857 68.8347 29.3508 63.5407 28.3759 57.4913C27.4297 48.7306 28.2827 43.6569 30.893 42.3425C34.3306 40.5876 37.5608 43.615 38.9219 45.6822C39.5219 46.7482 39.1957 48.0967 38.1748 48.7705C37.1539 49.4444 35.7857 49.2143 35.0414 48.2436C34.5762 47.5272 33.9424 46.9358 33.1956 46.5212C32.5745 49.9551 32.5124 53.4667 33.0115 56.9203C33.8146 61.4373 36.5188 65.3917 40.4368 67.7786C41.3915 68.273 41.8842 69.3564 41.6291 70.401C41.3741 71.4455 40.4376 72.18 39.3623 72.1787H39.3507Z" fill="black"/>
<path d="M46.5161 111.784C45.229 111.784 44.1855 110.74 44.1855 109.453V91.5962C44.1855 90.3091 45.229 89.2656 46.5161 89.2656C47.8033 89.2656 48.8467 90.3091 48.8467 91.5962V109.449C48.848 110.067 48.603 110.661 48.1658 111.1C47.7286 111.538 47.1351 111.784 46.5161 111.784Z" fill="black"/>
<path d="M51.3548 139.836H2.4123C1.12515 139.836 0.0817113 138.792 0.0817113 137.505V131.045C0.0817113 130.112 0.0817113 129.164 0.0817113 128.227C0.0817113 127.903 0.0817114 127.577 0.0584054 127.253C-0.143593 125.507 0.181062 123.741 0.990642 122.181C2.74899 119.873 5.14104 118.125 7.87521 117.152C8.49049 116.863 9.07314 116.59 9.57888 116.32C12.8906 114.549 16.2001 112.778 19.4653 110.927C23.3339 108.552 27.5752 106.846 32.0108 105.881C38.3034 104.744 44.8874 98.8546 44.9526 98.794C45.907 97.9271 47.3835 97.998 48.2504 98.9524C49.1173 99.9069 49.0463 101.383 48.0919 102.25C47.7843 102.53 40.4662 109.091 32.8545 110.468C28.9303 111.345 25.1796 112.87 21.7562 114.98C18.4561 116.844 15.1094 118.641 11.7673 120.429C11.1963 120.736 10.5368 121.046 9.84456 121.361C7.99763 122.014 6.33495 123.102 4.99693 124.533C4.67742 125.338 4.58003 126.213 4.71493 127.069C4.73124 127.46 4.74523 127.854 4.7429 128.234C4.7429 129.166 4.7429 130.098 4.7429 131.014V135.175H51.3548C52.6419 135.175 53.6853 136.218 53.6853 137.505C53.6853 138.792 52.6419 139.836 51.3548 139.836Z" fill="black"/>
<path d="M137.586 139.837H88.6431C87.3559 139.837 86.3125 138.794 86.3125 137.507C86.3125 136.22 87.3559 135.176 88.6431 135.176H135.255V131.035C135.255 130.102 135.255 129.184 135.255 128.257C135.255 127.865 135.267 127.471 135.283 127.091C135.418 126.235 135.32 125.359 135.001 124.553C133.662 123.124 132 122.037 130.153 121.384C129.454 121.06 128.802 120.75 128.231 120.451C124.888 118.664 121.542 116.874 118.244 115.002C114.824 112.888 111.075 111.356 107.153 110.472C99.5433 109.094 92.2252 102.534 91.9176 102.254C90.9631 101.39 90.8896 99.9166 91.7533 98.9622C92.6169 98.0077 94.0908 97.9342 95.0452 98.7979C95.1105 98.8585 101.697 104.748 107.985 105.885C112.426 106.851 116.672 108.559 120.544 110.938C123.807 112.788 127.119 114.56 130.431 116.331C130.936 116.601 131.519 116.874 132.134 117.163C134.868 118.136 137.261 119.883 139.019 122.192C139.822 123.75 140.143 125.511 139.939 127.252C139.939 127.576 139.914 127.902 139.916 128.229C139.916 129.161 139.916 130.093 139.916 131.044V137.507C139.916 138.794 138.873 139.837 137.586 139.837Z" fill="black"/>
<path d="M74.7079 111.775H65.2923C58.2236 111.775 55.4572 107.52 52.2526 102.595C50.1989 99.1945 47.7297 96.0629 44.902 93.2726C36.3324 85.1295 36.675 77.6577 37.0082 70.4328C37.0735 69.0135 37.1387 67.5709 37.1387 66.0909C37.0961 63.4767 36.7995 60.8729 36.2531 58.3161C35.3069 53.0932 34.0134 45.9406 34.7872 28.9996C35.0488 18.0464 41.7283 8.27179 51.8378 4.04824C56.7891 1.77109 62.1085 0.399994 67.5437 0H72.354C79.4348 0.484439 86.295 2.66593 92.3551 6.36019C93.055 6.81148 93.4609 7.60184 93.42 8.43357C93.3791 9.26528 92.8975 10.012 92.1568 10.3924C91.416 10.7729 90.5286 10.7292 89.8288 10.2779C84.4841 7.06687 78.4655 5.14389 72.2491 4.66118H67.6462C66.6417 4.71013 40.5181 6.18073 39.446 29.2186C38.6933 45.633 39.8842 52.2053 40.8444 57.4887C41.4415 60.3199 41.7615 63.2024 41.7999 66.0956C41.7999 67.6478 41.7323 69.1603 41.6648 70.6496C41.3408 77.6763 41.0868 83.2348 48.1112 89.9026C51.2021 92.9416 53.9058 96.3506 56.161 100.052C59.3446 104.947 60.9364 107.114 65.2923 107.114H74.7079C79.0638 107.114 80.6556 104.949 83.8392 100.052C86.0944 96.3506 88.7981 92.9416 91.889 89.9026C94.7804 87.3701 96.8613 84.0417 97.8717 80.3332C98.0676 79.5199 98.6843 78.8741 99.4877 78.6409C100.291 78.4077 101.158 78.6229 101.759 79.2048C102.36 79.7867 102.603 80.6461 102.395 81.4565C101.182 86.0304 98.6443 90.1437 95.1006 93.2796C92.2721 96.0698 89.8021 99.2013 87.7476 102.602C84.543 107.52 81.7766 111.775 74.7079 111.775Z" fill="black"/>
<path d="M93.4829 111.784C92.1958 111.784 91.1523 110.74 91.1523 109.453V91.5962C91.1523 90.3091 92.1958 89.2656 93.4829 89.2656C94.7701 89.2656 95.8135 90.3091 95.8135 91.5962V109.449C95.8148 110.067 95.5698 110.661 95.1326 111.1C94.6954 111.538 94.1019 111.784 93.4829 111.784Z" fill="black"/>
<path d="M89.9593 139.839H50.0409C49.6776 139.839 49.3192 139.755 48.9945 139.592C32.3447 131.244 36.9779 106.243 37.1853 105.183C37.4552 103.946 38.6627 103.151 39.9053 103.392C41.1479 103.632 41.9714 104.821 41.7603 106.069C41.7183 106.29 37.6911 128.135 50.6166 135.178H89.3883C102.344 128.118 98.2842 106.292 98.2445 106.071C98.0266 104.82 98.85 103.625 100.096 103.383C101.343 103.141 102.554 103.941 102.819 105.183C103.027 106.243 107.66 131.244 91.0104 139.592C90.6842 139.755 90.3242 139.84 89.9593 139.839Z" fill="black"/>
</svg>
