<?xml version="1.0" encoding="iso-8859-1"?>
<!-- Generator: Adobe Illustrator 19.0.0, SVG Export Plug-In . SVG Version: 6.00 Build 0)  -->
<svg version="1.1" id="Capa_1" xmlns="http://www.w3.org/2000/svg" xmlns:xlink="http://www.w3.org/1999/xlink" x="0px" y="0px"
	 viewBox="0 0 512.247 512.247" style="enable-background:new 0 0 512.247 512.247;" xml:space="preserve">
<g transform="translate(-1)">
	<g transform="translate(2 1)">
		<circle style="fill:#00838F;" cx="255.21" cy="255.123" r="221.867"/>
		<ellipse style="fill:#00BCD4;" cx="242.41" cy="255.123" rx="209.067" ry="221.867"/>
		<g>
			<circle style="fill:#E91E63;" cx="255.21" cy="476.99" r="25.6"/>
			<circle style="fill:#E91E63;" cx="33.343" cy="306.323" r="25.6"/>
			<circle style="fill:#E91E63;" cx="477.077" cy="306.323" r="25.6"/>
			<circle style="fill:#E91E63;" cx="255.21" cy="33.257" r="25.6"/>
		</g>
		<polygon style="fill:#FEC108;" points="323.477,234.899 255.21,201.193 255.21,127.123 		"/>
		<polygon style="fill:#FFEB3A;" points="255.21,127.123 255.21,201.193 186.943,234.899 		"/>
		<polygon style="fill:#FF9801;" points="323.477,234.916 255.21,268.597 186.943,234.916 255.21,201.227 		"/>
		<polygon style="fill:#FEC108;" points="323.477,275.347 255.21,383.123 255.21,309.054 		"/>
		<polygon style="fill:#FFEB3A;" points="255.21,309.054 255.21,383.123 186.943,275.347 		"/>
	</g>
	<g>
		<path d="M78.064,246.315c0.292,0.032,0.585,0.047,0.879,0.046c4.372-0.004,8.034-3.313,8.479-7.663
			c0.588-5.7,1.458-11.396,2.592-16.929c1.129-5.5,2.546-10.992,4.212-16.337c1.646-5.288,3.579-10.558,5.746-15.667
			c2.138-5.046,4.558-10.063,7.192-14.908c2.608-4.8,5.492-9.538,8.558-14.075c3.063-4.525,6.371-8.946,9.842-13.15
			c3.45-4.183,7.163-8.262,11.025-12.129c3.867-3.863,7.946-7.575,12.133-11.029c4.2-3.467,8.621-6.775,13.141-9.833
			c4.542-3.071,9.279-5.954,14.075-8.563c4.85-2.633,9.867-5.054,14.913-7.192c5.108-2.167,10.379-4.1,15.671-5.746
			c5.342-1.667,10.833-3.083,16.333-4.212c2.986-0.613,5.418-2.773,6.38-5.666c0.962-2.893,0.308-6.079-1.717-8.358
			c-2.024-2.279-5.111-3.306-8.097-2.693c-6.05,1.242-12.104,2.804-17.979,4.638c-5.821,1.812-11.625,3.938-17.25,6.321
			c-5.554,2.354-11.075,5.017-16.408,7.917c-5.275,2.871-10.483,6.037-15.483,9.417c-4.971,3.362-9.829,7-14.442,10.808
			c-4.604,3.796-9.092,7.875-13.338,12.125c-4.25,4.246-8.329,8.733-12.121,13.333c-3.813,4.617-7.45,9.475-10.817,14.45
			c-3.375,4.996-6.542,10.204-9.412,15.483c-2.9,5.329-5.563,10.85-7.917,16.404c-2.383,5.625-4.508,11.429-6.321,17.246
			c-1.833,5.879-3.396,11.933-4.638,17.983c-1.25,6.092-2.208,12.354-2.85,18.621c-0.232,2.251,0.441,4.502,1.869,6.257
			C73.745,244.969,75.813,246.085,78.064,246.315z"/>
		<path d="M161.868,397.611c-4.525-3.063-8.946-6.371-13.15-9.842c-4.183-3.45-8.262-7.163-12.129-11.025
			c-3.863-3.867-7.575-7.946-11.029-12.133c-3.467-4.2-6.775-8.621-9.833-13.141c-3.071-4.542-5.954-9.279-8.563-14.075
			c-2.633-4.85-5.054-9.867-7.192-14.913c-1.189-2.807-3.786-4.767-6.812-5.141s-6.022,0.895-7.858,3.329
			c-1.837,2.434-2.235,5.663-1.046,8.47c2.354,5.554,5.017,11.075,7.917,16.408c2.871,5.275,6.037,10.483,9.417,15.483
			c3.362,4.971,7,9.829,10.808,14.442c3.796,4.604,7.875,9.092,12.125,13.338c4.246,4.25,8.733,8.329,13.333,12.121
			c4.617,3.813,9.475,7.45,14.45,10.817c4.996,3.375,10.204,6.542,15.483,9.412c5.329,2.9,10.85,5.563,16.404,7.917
			c5.625,2.383,11.429,4.508,17.246,6.321c5.879,1.833,11.933,3.396,17.983,4.638c0.567,0.117,1.146,0.176,1.725,0.175
			c4.376-0.006,8.039-3.321,8.479-7.675c0.44-4.354-2.484-8.335-6.771-9.217c-5.5-1.129-10.992-2.546-16.337-4.212
			c-5.288-1.646-10.558-3.579-15.667-5.746c-5.046-2.138-10.063-4.558-14.908-7.192
			C171.143,403.561,166.406,400.678,161.868,397.611z"/>
		<path d="M425.627,317.953c-4.34-1.833-9.345,0.196-11.183,4.533c-2.133,5.033-4.55,10.05-7.183,14.9
			c-2.625,4.813-5.504,9.55-8.575,14.088c-3.025,4.483-6.329,8.904-9.829,13.141c-3.45,4.183-7.163,8.263-11.025,12.129
			c-3.867,3.863-7.946,7.575-12.133,11.029c-4.2,3.467-8.621,6.775-13.141,9.833c-4.542,3.071-9.279,5.954-14.075,8.563
			c-4.85,2.633-9.867,5.054-14.912,7.192c-5.108,2.167-10.379,4.1-15.671,5.746c-5.342,1.667-10.833,3.083-16.333,4.212
			c-4.616,0.948-7.59,5.459-6.642,10.075c0.948,4.616,5.459,7.59,10.075,6.642c6.05-1.242,12.104-2.804,17.979-4.638
			c5.821-1.812,11.625-3.938,17.25-6.321c5.554-2.354,11.075-5.017,16.408-7.917c5.275-2.871,10.483-6.037,15.483-9.417
			c4.971-3.362,9.829-7,14.442-10.808c4.604-3.796,9.092-7.875,13.338-12.125c4.25-4.246,8.329-8.733,12.121-13.333
			c3.842-4.654,7.484-9.517,10.808-14.45c3.375-4.983,6.542-10.192,9.425-15.483c2.9-5.346,5.567-10.867,7.908-16.408
			c0.882-2.084,0.9-4.433,0.049-6.531S427.711,318.834,425.627,317.953z"/>
		<path d="M436.494,200.353c-1.825-5.846-3.958-11.65-6.333-17.242c-2.342-5.546-5.008-11.063-7.917-16.417
			c-2.875-5.283-6.042-10.492-9.408-15.471c-3.333-4.937-6.975-9.8-10.813-14.45c-3.796-4.604-7.875-9.092-12.125-13.338
			c-4.246-4.25-8.733-8.329-13.333-12.121c-4.617-3.813-9.475-7.45-14.45-10.817c-4.996-3.375-10.204-6.542-15.483-9.412
			c-5.329-2.9-10.85-5.563-16.404-7.917c-5.625-2.383-11.429-4.508-17.246-6.321c-5.879-1.833-11.933-3.396-17.983-4.638
			c-4.616-0.948-9.127,2.026-10.075,6.642c-0.948,4.616,2.026,9.127,6.642,10.075c5.5,1.129,10.992,2.546,16.337,4.212
			c5.288,1.646,10.558,3.579,15.667,5.746c5.046,2.138,10.063,4.558,14.908,7.192c4.8,2.608,9.538,5.492,14.075,8.558
			c4.525,3.063,8.946,6.371,13.15,9.842c4.183,3.45,8.263,7.163,12.129,11.025c3.863,3.867,7.575,7.946,11.029,12.133
			c3.496,4.233,6.8,8.654,9.829,13.141c3.067,4.533,5.946,9.271,8.563,14.075c2.642,4.858,5.058,9.875,7.192,14.916
			c2.158,5.087,4.1,10.358,5.75,15.654c1.683,5.408,3.092,10.904,4.208,16.35c1.147,5.595,2.012,11.244,2.592,16.925
			c0.447,4.35,4.11,7.658,8.483,7.663c0.292,0.001,0.584-0.014,0.875-0.046c4.689-0.48,8.102-4.669,7.625-9.358
			c-0.65-6.279-1.608-12.546-2.859-18.612C439.893,212.357,438.335,206.307,436.494,200.353z"/>
		<path d="M486.8,274.15c0.479-5.963,0.81-11.976,0.81-18.027c0.116-114.337-83.74-211.416-196.879-227.924
			c-2.895-16.244-17.02-28.075-33.521-28.075c-16.5,0-30.626,11.831-33.521,28.075C110.55,44.708,26.694,141.786,26.81,256.123
			c0,6.04,0.333,12.054,0.815,18.025c-11.932,2.671-21.518,11.532-25.116,23.218c-3.598,11.686-0.657,24.405,7.707,33.325
			s20.867,12.673,32.76,9.834c30.401,76.573,99.229,131.203,180.704,143.427c2.851,16.288,16.995,28.171,33.53,28.171
			s30.679-11.883,33.53-28.171c81.476-12.223,150.304-66.853,180.705-143.427c11.866,2.767,24.307-1.014,32.626-9.916
			c8.319-8.903,11.25-21.57,7.686-33.222C508.192,285.736,498.676,276.875,486.8,274.15z M257.21,17.19
			c9.426,0,17.067,7.641,17.067,17.067s-7.641,17.067-17.067,17.067s-17.067-7.641-17.067-17.067
			C240.153,24.835,247.788,17.199,257.21,17.19z M265.743,196.796v-39.259l35.551,56.11L265.743,196.796z M305.133,234.354
			l-39.389,21.02v-39.692L305.133,234.354z M35.343,324.39c-9.426,0-17.067-7.641-17.067-17.067c0-9.426,7.641-17.067,17.067-17.067
			s17.067,7.641,17.067,17.067C52.401,316.745,44.765,324.381,35.343,324.39z M44.802,274.69
			c-0.555-6.135-0.926-12.336-0.926-18.567C43.8,150.709,120.865,61.106,225.104,45.41c3.736,10.733,12.577,18.897,23.573,21.769
			v58.47l-64.429,101.689L61.417,285.56C57.084,280.364,51.299,276.579,44.802,274.69z M213.126,213.648l35.551-56.111v39.259
			L213.126,213.648z M248.677,215.682v39.692l-39.389-21.02L248.677,215.682z M257.21,495.057c-9.426,0-17.067-7.641-17.067-17.067
			s7.641-17.067,17.067-17.067s17.067,7.641,17.067,17.067C274.267,487.412,266.632,495.047,257.21,495.057z M248.677,354.7
			l-36.275-57.273l36.275,17.898V354.7z M289.339,466.911c-3.719-10.768-12.574-18.964-23.596-21.842v-58.47l66.942-105.695
			c2.046-3.23,1.693-7.427-0.862-10.271c-2.556-2.844-6.691-3.641-10.121-1.95l-64.492,31.821l-64.492-31.821
			c-3.43-1.691-7.565-0.894-10.121,1.95c-2.556,2.844-2.908,7.041-0.862,10.271l66.942,105.696v58.47
			c-11.022,2.879-19.876,11.075-23.596,21.842c-75.66-11.739-139.299-62.974-166.919-134.384
			c8.936-7.874,13.001-19.912,10.67-31.592l121.259-57.481l63.104,33.673c2.51,1.339,5.523,1.339,8.033,0l63.103-33.673
			l121.259,57.482c-2.332,11.682,1.736,23.722,10.675,31.596C428.639,403.94,364.999,455.172,289.339,466.911z M265.743,354.7
			v-39.375l36.275-17.898L265.743,354.7z M453.003,285.559l-122.829-58.222l-64.431-101.689v-58.47
			c10.996-2.871,19.837-11.035,23.573-21.769c104.239,15.696,181.304,105.3,181.227,210.714c0,6.245-0.369,12.442-0.924,18.566
			C463.122,276.577,457.336,280.362,453.003,285.559z M479.077,324.39c-9.426,0-17.067-7.641-17.067-17.067
			c0-9.426,7.641-17.067,17.067-17.067c9.426,0,17.067,7.641,17.067,17.067C496.133,316.745,488.498,324.379,479.077,324.39z"/>
	</g>
</g>
<g>
</g>
<g>
</g>
<g>
</g>
<g>
</g>
<g>
</g>
<g>
</g>
<g>
</g>
<g>
</g>
<g>
</g>
<g>
</g>
<g>
</g>
<g>
</g>
<g>
</g>
<g>
</g>
<g>
</g>
</svg>
