<svg width="135" height="135" viewBox="0 0 135 135" fill="none" xmlns="http://www.w3.org/2000/svg">
<circle cx="67.5" cy="67.5" r="66" fill="white" stroke="#D80027" stroke-width="3"/>
<path d="M71.7129 77.8887H66.168L65.7363 43.1914H72.1777L71.7129 77.8887ZM65.5039 88.4473C65.5039 87.4512 65.8027 86.6211 66.4004 85.957C67.0202 85.2708 67.9277 84.9277 69.123 84.9277C70.3184 84.9277 71.2259 85.2708 71.8457 85.957C72.4655 86.6211 72.7754 87.4512 72.7754 88.4473C72.7754 89.4434 72.4655 90.2734 71.8457 90.9375C71.2259 91.5794 70.3184 91.9004 69.123 91.9004C67.9277 91.9004 67.0202 91.5794 66.4004 90.9375C65.8027 90.2734 65.5039 89.4434 65.5039 88.4473Z" fill="#040506"/>
</svg>