<svg xmlns="http://www.w3.org/2000/svg" xmlns:xlink="http://www.w3.org/1999/xlink" viewBox="0 0 506.29 132"><defs><style>.cls-1,.cls-2{fill:#1f2133;}.cls-1{fill-rule:evenodd;}.cls-3{fill:url(#linear-gradient);}</style><linearGradient id="linear-gradient" y1="66" x2="132" y2="66" gradientUnits="userSpaceOnUse"><stop offset="0" stop-color="#00bfff"/><stop offset="1" stop-color="#6619ff"/></linearGradient></defs><title>01 Exodus color dark</title><g id="Layer_2" data-name="Layer 2"><g id="Layer_1-2" data-name="Layer 1"><g id="_01_Exodus_color_dark" data-name="01 Exodus color dark"><g id="Exodus_type" data-name="Exodus type"><path class="cls-1" d="M490.82,53.36s-4.06-7.12-4.06-12.64v-9a5,5,0,1,1,10,0V42.6l7.83-2.24a2.41,2.41,0,0,0,1.74-2.31V30.5c0-6.45-5.11-12.37-11.4-12.5H489c-6.56,0-11.8,5.92-11.8,12.5v9.68s-.39,6.32,4.2,14.93l11.26,21.65s4.07,7.26,4.07,12.77v10.76a5,5,0,1,1-10,.13V84l-7.84,2.24a2.4,2.4,0,0,0-1.73,2.31V102a12.07,12.07,0,0,0,11.4,12h5.9a11.87,11.87,0,0,0,11.79-12v-12s.4-6.32-4.19-14.93Z"/><path class="cls-1" d="M439.25,100.29a5,5,0,0,1-5,5.1h-1.44a4.93,4.93,0,0,1-4.85-5.1V18.94h-9.44v83.5A11.5,11.5,0,0,0,430.21,114h7.2a11.5,11.5,0,0,0,11.27-11.56V18.94h-9.43Z"/><path class="cls-1" d="M376.85,18.94H358.64v94.12h18.21a11.82,11.82,0,0,0,11.67-11.83V30.77A11.82,11.82,0,0,0,376.85,18.94Zm2.36,79.6c0,3.63-2.36,5-5,5h-6.16V28.62h6.16c2.62,0,5,1.35,5,4.84Z"/><path class="cls-1" d="M317.21,18H310a11.87,11.87,0,0,0-11.79,12v72.2A12,12,0,0,0,310,114h7.21a12,12,0,0,0,11.4-11.83V30A12,12,0,0,0,317.21,18ZM319,100.29a5.07,5.07,0,0,1-5,5.24h-1.44a5.26,5.26,0,0,1-5-5.24V31.71a5.26,5.26,0,0,1,5-5.24h1.44a5.07,5.07,0,0,1,5,5.24Z"/><polygon class="cls-2" points="271.21 18.94 261.57 18.94 252.9 49.2 244.22 18.94 234.59 18.94 248.08 66 234.59 113.06 244.22 113.06 252.9 82.8 261.57 113.06 271.21 113.06 257.71 66 271.21 18.94"/><path class="cls-1" d="M209.09,103.51H189.43V68.56H200.5a2.4,2.4,0,0,0,2.31-1.73l2.27-7.95H189.43V28.62H204.5a2.41,2.41,0,0,0,2.31-1.74l2.28-7.94H180v94.12h24.54a2.41,2.41,0,0,0,2.31-1.74Z"/></g><path id="Exodus_symbol" data-name="Exodus symbol" class="cls-3" d="M92.53,66,132,105.43h-13.9a9,9,0,0,1-6.37-2.63L74.91,66l36.82-36.83a9,9,0,0,1,6.37-2.63H132ZM20.26,29.17a9,9,0,0,0-6.36-2.63H0L39.46,66,0,105.43h13.9a9,9,0,0,0,6.36-2.63L57.09,66ZM66,74.91,29.17,111.74a9,9,0,0,0-2.63,6.36V132L66,92.54,105.46,132V118.1a9,9,0,0,0-2.64-6.36Zm0-17.82,36.82-36.83a9,9,0,0,0,2.64-6.36V0L66,39.46,26.54,0V13.9a9,9,0,0,0,2.63,6.36Z"/></g></g></g></svg>