<svg height="511pt" viewBox="1 -61 511.99899 511" width="511pt" xmlns="http://www.w3.org/2000/svg"><path d="m375.390625 323.921875h-204.984375l-38.867188 49.996094c-7.199218 9.257812-21.335937 8.792969-27.90625-.921875l-33.207031-49.074219h-43.085937c-9.527344 0-17.25-7.722656-17.25-17.25v-278.832031c0-9.527344 7.722656-17.253906 17.25-17.253906h457.320312c9.527344 0 17.25 7.722656 17.25 17.253906v278.832031c0 9.527344-7.722656 17.25-17.25 17.25h-28.070312" fill="#d7d6d8"/><path d="m484.660156.5h-457.320312c-15.074219 0-27.339844 12.261719-27.339844 27.339844v278.832031c0 15.074219 12.265625 27.339844 27.339844 27.339844h37.730468l30.207032 44.640625c7.71875 11.40625 23.28125 15.347656 35.476562 8.855468 3.402344-1.8125 6.386719-4.355468 8.75-7.398437l35.835938-46.097656h200.050781c12.953125 0 12.972656-20.175781 0-20.175781h-204.984375c-3.113281 0-6.054688 1.4375-7.964844 3.894531l-38.867187 49.996093c-2.945313 3.789063-8.902344 3.589844-11.585938-.382812l-33.207031-49.074219c-1.875-2.773437-5.007812-4.433593-8.355469-4.433593h-43.085937c-3.949219 0-7.164063-3.214844-7.164063-7.164063v-278.832031c0-3.949219 3.214844-7.164063 7.164063-7.164063h457.320312c3.949219 0 7.160156 3.214844 7.160156 7.164063v278.832031c0 3.949219-3.210937 7.164063-7.160156 7.164063h-28.070312c-12.925782 0-12.949219 20.175781 0 20.175781h28.070312c15.074219 0 27.339844-12.265625 27.339844-27.339844v-278.832031c0-15.078125-12.265625-27.339844-27.339844-27.339844zm0 0"/><path d="m190.851562 92.679688c9.746094 0 9.773438-18.644532 0-18.644532h-81.675781c-4.359375 0-9.320312 2.511719-9.320312 7.464844v155.925781c0 9.78125 20.496093 9.769531 20.496093 0v-69.566406h35.695313c9.636719 0 9.605469-17.253906 0-17.253906h-35.695313v-57.925781zm0 0"/><path d="m184.601562 242.265625c4.566407 2.816406 13.644532 4.21875 15.679688-2.472656l10.066406-33.882813h60.644532l10.105468 34.015625c2.914063 9.171875 21.511719 4.003907 19.777344-5.210937l-47.675781-154.890625c-2.964844-9.867188-21.652344-9.898438-24.621094-.054688l-47.484375 154.25c-1.109375 3.304688.574219 6.4375 3.507812 8.246094 2.578126 1.589844-2.652343-1.632813 0 0 4.566407 2.816406-2.652343-1.632813 0 0zm30.871094-53.605469 25.289063-85.132812 25.132812 85.132812zm0 0"/><path d="m364.535156 268.390625c4.816406 4.363281 12.675782.964844 12.675782-5.574219v-17.261718c13.003906-.988282 23.492187-5.621094 31.1875-13.777344 7.789062-8.261719 11.738281-20.636719 11.738281-36.785156v-69.859376c0-17.550781-4.664063-30.597656-13.859375-38.785156-18.988282-16.886718-54.460938-17.007812-73.414063.003906-9.117187 8.183594-13.742187 21.230469-13.742187 38.78125v69.859376c0 16.308593 3.953125 28.726562 11.742187 36.902343 7.695313 8.078125 18.261719 12.675781 31.417969 13.660157v17.261718c-.0625 2.195313.691406 4.054688 2.253906 5.574219 1.164063 1.058594-1.1875-1.074219 0 0 2.273438 2.058594-1.496094-1.355469 0 0 4.816406 4.363281-1.496094-1.355469 0 0zm10.410156-62.519531c-4.765624-4.046875-12.664062-1.039063-12.664062 5.472656v15.511719c-15.035156-2.601563-22.660156-13.210938-22.660156-31.535157v-70.085937c0-21.90625 9.78125-32.554687 29.894531-32.554687 19.765625 0 30.125 13.722656 30.125 32.554687v70.085937c0 18.476563-7.546875 29.007813-22.429687 31.3125v-15.285156c0-2.367187-.867188-4.332031-2.691407-5.835937.292969.238281.578125.484375.863281.730469-1.210937-1.054688-1.125-.957032-.4375-.371094-2.117187-1.800782.519532.441406 0 0-2.371093-2.015625 1.503907 1.28125 0 0zm0 0"/><path d="m415.734375 314.375c-5.398437 0-10.003906 4.511719-10.074219 9.914062-.070312 5.589844 4.519532 10.222657 10.097656 10.230469 5.5625.007813 10.171876-4.738281 10.054688-10.296875-.109375-5.363281-4.726562-9.847656-10.078125-9.847656zm0 0"/></svg>