<svg width="123" height="27" viewBox="0 0 123 27" fill="none" xmlns="http://www.w3.org/2000/svg">
<path d="M1.20364 14.6697H1.0918L1.11236 14.7817L1.23181 15.4324C2.32747 21.4007 7.60363 25.908 13.9417 25.908C21.0696 25.908 26.8611 20.1936 26.8611 13.1298C26.8611 6.06607 21.0696 0.351562 13.9417 0.351562C7.60363 0.351562 2.32747 4.85885 1.23181 10.8272L1.11236 11.4779L1.0918 11.5899H1.20364H6.59665H6.66621L6.68577 11.5219L6.80068 11.1224C7.68404 8.05108 10.5404 5.79705 13.9417 5.79705C17.0303 5.79705 19.6699 7.65592 20.7903 10.2978H17.9938C17.0952 9.03818 15.6094 8.22108 13.9417 8.22108C11.2144 8.22108 8.9832 10.4161 8.9832 13.1298C8.9832 15.8435 11.2144 18.0385 13.9417 18.0385C15.6094 18.0385 17.0952 17.2214 17.9938 15.9618H20.7903C19.6699 18.6037 17.0303 20.4625 13.9417 20.4625C10.5404 20.4625 7.68404 18.2085 6.80068 15.1372L6.68577 14.7377L6.66621 14.6697H6.59665H1.20364ZM2.67044 10.2978C3.94392 5.32448 8.50218 1.6437 13.9417 1.6437C20.3696 1.6437 25.5686 6.79348 25.5686 13.1298C25.5686 19.4661 20.3696 24.6159 13.9417 24.6159C8.50218 24.6159 3.94392 20.9351 2.67044 15.9618H5.70777C6.89313 19.3375 10.1304 21.7546 13.9417 21.7546C17.9266 21.7546 21.2842 19.1121 22.3247 15.4943L22.527 14.7909L22.5619 14.6697H22.4379H17.3328H17.2809L17.2537 14.7147L17.0924 14.982C16.4547 16.0388 15.28 16.7464 13.9417 16.7464C11.9144 16.7464 10.2756 15.1161 10.2756 13.1298C10.2756 11.1435 11.9144 9.51321 13.9417 9.51321C15.28 9.51321 16.4547 10.2208 17.0924 11.2776L17.2537 11.5449L17.2809 11.5899H17.3328H22.4379H22.5619L22.527 11.4687L22.3247 10.7653C21.2842 7.1475 17.9266 4.50492 13.9417 4.50492C10.1304 4.50492 6.89313 6.92211 5.70777 10.2978H2.67044Z" fill="#085CCE" stroke="#085CCE" stroke-width="0.3" stroke-miterlimit="10"/>
<path d="M41.0444 20.4292C39.7484 20.4292 38.5884 20.1492 37.5644 19.5892C36.5564 19.0292 35.7644 18.2612 35.1884 17.2852C34.6124 16.2932 34.3244 15.1732 34.3244 13.9252C34.3244 12.6772 34.6124 11.5652 35.1884 10.5892C35.7644 9.59716 36.5564 8.82916 37.5644 8.28516C38.5884 7.72516 39.7484 7.44516 41.0444 7.44516C42.1964 7.44516 43.2204 7.67716 44.1164 8.14116C45.0284 8.60516 45.7324 9.27716 46.2284 10.1572L44.4764 11.2852C44.0764 10.6772 43.5804 10.2212 42.9884 9.91716C42.3964 9.61316 41.7404 9.46116 41.0204 9.46116C40.1884 9.46116 39.4364 9.64516 38.7644 10.0132C38.1084 10.3812 37.5884 10.9092 37.2044 11.5972C36.8364 12.2692 36.6524 13.0452 36.6524 13.9252C36.6524 14.8212 36.8364 15.6132 37.2044 16.3012C37.5884 16.9732 38.1084 17.4932 38.7644 17.8612C39.4364 18.2292 40.1884 18.4132 41.0204 18.4132C41.7404 18.4132 42.3964 18.2612 42.9884 17.9572C43.5804 17.6532 44.0764 17.1972 44.4764 16.5892L46.2284 17.6932C45.7324 18.5732 45.0284 19.2532 44.1164 19.7332C43.2204 20.1972 42.1964 20.4292 41.0444 20.4292ZM54.4718 20.4292C53.2078 20.4292 52.0718 20.1492 51.0638 19.5892C50.0558 19.0292 49.2638 18.2612 48.6878 17.2852C48.1278 16.2932 47.8478 15.1732 47.8478 13.9252C47.8478 12.6772 48.1278 11.5652 48.6878 10.5892C49.2638 9.59716 50.0558 8.82916 51.0638 8.28516C52.0718 7.72516 53.2078 7.44516 54.4718 7.44516C55.7358 7.44516 56.8638 7.72516 57.8558 8.28516C58.8638 8.82916 59.6478 9.59716 60.2078 10.5892C60.7838 11.5652 61.0718 12.6772 61.0718 13.9252C61.0718 15.1732 60.7838 16.2932 60.2078 17.2852C59.6478 18.2612 58.8638 19.0292 57.8558 19.5892C56.8638 20.1492 55.7358 20.4292 54.4718 20.4292ZM54.4718 18.4132C55.2878 18.4132 56.0158 18.2292 56.6558 17.8612C57.3118 17.4772 57.8238 16.9492 58.1918 16.2772C58.5598 15.5892 58.7438 14.8052 58.7438 13.9252C58.7438 13.0452 58.5598 12.2692 58.1918 11.5972C57.8238 10.9092 57.3118 10.3812 56.6558 10.0132C56.0158 9.64516 55.2878 9.46116 54.4718 9.46116C53.6558 9.46116 52.9198 9.64516 52.2638 10.0132C51.6238 10.3812 51.1118 10.9092 50.7278 11.5972C50.3598 12.2692 50.1758 13.0452 50.1758 13.9252C50.1758 14.8052 50.3598 15.5892 50.7278 16.2772C51.1118 16.9492 51.6238 17.4772 52.2638 17.8612C52.9198 18.2292 53.6558 18.4132 54.4718 18.4132ZM64.2582 7.56516H66.5622V20.2852H64.2582V7.56516ZM65.4102 5.11716C64.9622 5.11716 64.5862 4.97316 64.2822 4.68516C63.9942 4.39716 63.8502 4.04516 63.8502 3.62916C63.8502 3.21316 63.9942 2.86116 64.2822 2.57316C64.5862 2.26916 64.9622 2.11716 65.4102 2.11716C65.8582 2.11716 66.2262 2.26116 66.5142 2.54916C66.8182 2.82116 66.9702 3.16515 66.9702 3.58116C66.9702 4.01316 66.8182 4.38116 66.5142 4.68516C66.2262 4.97316 65.8582 5.11716 65.4102 5.11716ZM77.7533 7.44516C79.3693 7.44516 80.6493 7.91716 81.5933 8.86116C82.5533 9.78916 83.0333 11.1572 83.0333 12.9652V20.2852H80.7293V13.2292C80.7293 11.9972 80.4333 11.0692 79.8413 10.4452C79.2493 9.82116 78.4013 9.50916 77.2973 9.50916C76.0493 9.50916 75.0653 9.87716 74.3453 10.6132C73.6253 11.3332 73.2653 12.3732 73.2653 13.7332V20.2852H70.9613V7.56516H73.1693V9.48516C73.6333 8.82916 74.2573 8.32516 75.0413 7.97316C75.8413 7.62116 76.7453 7.44516 77.7533 7.44516ZM94.4493 19.5412C94.1133 19.8292 93.6973 20.0532 93.2013 20.2132C92.7053 20.3572 92.1933 20.4292 91.6653 20.4292C90.3853 20.4292 89.3933 20.0852 88.6893 19.3972C87.9853 18.7092 87.6333 17.7252 87.6333 16.4452V9.46116H85.4733V7.56516H87.6333V4.78116H89.9373V7.56516H93.5853V9.46116H89.9373V16.3492C89.9373 17.0372 90.1053 17.5652 90.4413 17.9332C90.7933 18.3012 91.2893 18.4852 91.9293 18.4852C92.6333 18.4852 93.2333 18.2852 93.7293 17.8852L94.4493 19.5412ZM108.309 13.9972C108.309 14.1732 108.293 14.4052 108.261 14.6932H97.9409C98.0849 15.8132 98.5729 16.7172 99.4049 17.4052C100.253 18.0772 101.301 18.4132 102.549 18.4132C104.069 18.4132 105.293 17.9012 106.221 16.8772L107.493 18.3652C106.917 19.0372 106.197 19.5492 105.333 19.9012C104.485 20.2532 103.533 20.4292 102.477 20.4292C101.133 20.4292 99.9409 20.1572 98.9009 19.6132C97.8609 19.0532 97.0529 18.2772 96.4769 17.2852C95.9169 16.2932 95.6369 15.1732 95.6369 13.9252C95.6369 12.6932 95.9089 11.5812 96.4529 10.5892C97.0129 9.59716 97.7729 8.82916 98.7329 8.28516C99.7089 7.72516 100.805 7.44516 102.021 7.44516C103.237 7.44516 104.317 7.72516 105.261 8.28516C106.221 8.82916 106.965 9.59716 107.493 10.5892C108.037 11.5812 108.309 12.7172 108.309 13.9972ZM102.021 9.38916C100.917 9.38916 99.9889 9.72516 99.2369 10.3972C98.5009 11.0692 98.0689 11.9492 97.9409 13.0372H106.101C105.973 11.9652 105.533 11.0932 104.781 10.4212C104.045 9.73316 103.125 9.38916 102.021 9.38916ZM117.052 20.4292C115.756 20.4292 114.596 20.1492 113.572 19.5892C112.564 19.0292 111.772 18.2612 111.196 17.2852C110.62 16.2932 110.332 15.1732 110.332 13.9252C110.332 12.6772 110.62 11.5652 111.196 10.5892C111.772 9.59716 112.564 8.82916 113.572 8.28516C114.596 7.72516 115.756 7.44516 117.052 7.44516C118.204 7.44516 119.228 7.67716 120.124 8.14116C121.036 8.60516 121.74 9.27716 122.236 10.1572L120.484 11.2852C120.084 10.6772 119.588 10.2212 118.996 9.91716C118.404 9.61316 117.748 9.46116 117.028 9.46116C116.196 9.46116 115.444 9.64516 114.772 10.0132C114.116 10.3812 113.596 10.9092 113.212 11.5972C112.844 12.2692 112.66 13.0452 112.66 13.9252C112.66 14.8212 112.844 15.6132 113.212 16.3012C113.596 16.9732 114.116 17.4932 114.772 17.8612C115.444 18.2292 116.196 18.4132 117.028 18.4132C117.748 18.4132 118.404 18.2612 118.996 17.9572C119.588 17.6532 120.084 17.1972 120.484 16.5892L122.236 17.6932C121.74 18.5732 121.036 19.2532 120.124 19.7332C119.228 20.1972 118.204 20.4292 117.052 20.4292Z" fill="#02182B"/>
</svg>