<svg width="124" height="29" viewBox="0 0 124 29" fill="none" xmlns="http://www.w3.org/2000/svg">
<rect width="122.07" height="27.521" fill="black" fill-opacity="0" transform="translate(1 0.949219)"/>
<path d="M1.12044 16.368H1L1.02214 16.4886L1.15078 17.1893C2.33066 23.6164 8.01238 28.4702 14.8376 28.4702C22.5134 28.4702 28.7501 22.3164 28.7501 14.7097C28.7501 7.10299 22.5134 0.949219 14.8376 0.949219C8.01238 0.949219 2.33066 5.80297 1.15078 12.2301L1.02214 12.9308L1 13.0514H1.12044H6.928H7.00291L7.02397 12.9782L7.14771 12.5479C8.09898 9.24058 11.1749 6.81329 14.8376 6.81329C18.1636 6.81329 21.0061 8.81505 22.2127 11.66H19.2012C18.2335 10.3036 16.6335 9.42365 14.8376 9.42365C11.9007 9.42365 9.498 11.7874 9.498 14.7097C9.498 17.632 11.9007 19.9957 14.8376 19.9957C16.6335 19.9957 18.2335 19.1158 19.2012 17.7594H22.2127C21.0061 20.6044 18.1636 22.6061 14.8376 22.6061C11.1749 22.6061 8.09898 20.1788 7.14771 16.8715L7.02397 16.4412L7.00291 16.368H6.928H1.12044ZM2.7 11.66C4.07136 6.30439 8.98 2.34068 14.8376 2.34068C21.7596 2.34068 27.3583 7.88632 27.3583 14.7097C27.3583 21.5331 21.7596 27.0787 14.8376 27.0787C8.98 27.0787 4.07136 23.115 2.7 17.7594H5.97079C7.24727 21.3945 10.7334 23.9975 14.8376 23.9975C19.1288 23.9975 22.7445 21.1519 23.865 17.2559L24.0829 16.4985L24.1204 16.368H23.9869H18.4894H18.4335L18.4042 16.4165L18.2305 16.7043C17.5438 17.8423 16.2788 18.6043 14.8376 18.6043C12.6545 18.6043 10.8898 16.8486 10.8898 14.7097C10.8898 12.5708 12.6545 10.8151 14.8376 10.8151C16.2788 10.8151 17.5438 11.577 18.2305 12.7151L18.4042 13.0029L18.4335 13.0514H18.4894H23.9869H24.1204L24.0829 12.9209L23.865 12.1635C22.7445 8.26754 19.1288 5.42183 14.8376 5.42183C10.7334 5.42183 7.24727 8.02483 5.97079 11.66H2.7Z" fill="white" stroke="white" stroke-width="0.4" stroke-miterlimit="10"/>
<path d="M47.0573 11.6836C46.0043 10.3066 44.0603 9.57756 42.2513 9.57756C38.3363 9.57756 35.4203 12.3046 35.4203 16.3276C35.4203 20.4046 38.3633 23.0776 42.3053 23.0776C44.3573 23.0776 46.0043 22.3216 47.0843 21.0796L45.3833 19.5406C44.7083 20.4046 43.6013 20.9446 42.3053 20.9446C39.6323 20.9446 38.0933 18.7576 38.0933 16.3276C38.0933 13.8706 39.6323 11.7106 42.2783 11.7106C43.4933 11.7106 44.6813 12.3316 45.2213 13.1686L47.0573 11.6836ZM62.2891 16.3006C62.2891 12.3586 59.2921 9.57756 55.3771 9.57756C51.4621 9.57756 48.4921 12.3586 48.4921 16.3006C48.4921 20.2426 51.4621 23.0776 55.3771 23.0776C59.2921 23.0776 62.2891 20.2426 62.2891 16.3006ZM59.6431 16.3006C59.6431 18.7306 58.1311 20.9446 55.3771 20.9446C52.6501 20.9446 51.1111 18.7306 51.1111 16.3006C51.1111 13.8706 52.6501 11.6836 55.3771 11.6836C58.1311 11.6836 59.6431 13.8706 59.6431 16.3006ZM68.1036 9.92856H65.5656V22.7266H68.1036V9.92856ZM68.5356 5.31156C68.5356 4.36656 67.7526 3.66456 66.8346 3.66456C65.9166 3.66456 65.1606 4.39356 65.1606 5.31156C65.1606 6.20256 65.9166 6.93156 66.8346 6.93156C67.7526 6.93156 68.5356 6.22956 68.5356 5.31156ZM72.1479 9.92856C72.2289 10.7656 72.2559 12.0076 72.2559 12.6826V22.7266H74.7939V15.9226C74.7939 13.3846 76.2249 11.7106 78.2229 11.7106C80.5719 11.7106 81.1389 13.5466 81.1389 15.6256V22.7266H83.6769V14.7886C83.6769 11.9266 82.1919 9.57756 78.8979 9.57756C77.0619 9.57756 75.3609 10.6576 74.7399 12.0346H74.6589C74.6589 11.4946 74.6049 10.5766 74.5509 9.92856H72.1479ZM93.9647 9.92856H90.5627V6.25656H88.0517V9.92856H85.5947V12.0076H88.0517V18.9466C88.0517 21.5926 89.3747 22.9426 91.7777 22.9426C92.5607 22.9426 93.3437 22.8076 93.9377 22.5916L93.8567 20.5126C93.4247 20.7286 92.8307 20.8366 92.3717 20.8366C91.1027 20.8366 90.5627 20.2156 90.5627 18.6766V12.0076H93.9647V9.92856ZM98.0715 15.1936C98.2335 13.1956 99.9075 11.5756 102.094 11.5756C104.443 11.5756 105.631 13.1686 105.685 15.1936H98.0715ZM108.25 16.2196C108.25 12.1426 105.874 9.57756 102.094 9.57756C98.3415 9.57756 95.4795 12.3586 95.4795 16.3546C95.4795 20.3776 98.3415 23.0776 102.229 23.0776C104.497 23.0776 106.36 22.2406 107.737 20.4586L105.955 19.0276C105.226 20.1076 103.957 20.9716 102.229 20.9716C99.9885 20.9716 98.1525 19.2706 98.0715 17.0836H108.223C108.25 16.7866 108.25 16.4896 108.25 16.2196ZM122.324 11.6836C121.271 10.3066 119.327 9.57756 117.518 9.57756C113.603 9.57756 110.687 12.3046 110.687 16.3276C110.687 20.4046 113.63 23.0776 117.572 23.0776C119.624 23.0776 121.271 22.3216 122.351 21.0796L120.65 19.5406C119.975 20.4046 118.868 20.9446 117.572 20.9446C114.899 20.9446 113.36 18.7576 113.36 16.3276C113.36 13.8706 114.899 11.7106 117.545 11.7106C118.76 11.7106 119.948 12.3316 120.488 13.1686L122.324 11.6836Z" fill="white"/>
</svg>
