<svg width="119" height="31" viewBox="0 0 119 31" version="1.1" xmlns="http://www.w3.org/2000/svg" xmlns:xlink="http://www.w3.org/1999/xlink">
<title>Logo</title>
<desc>Created using Figma</desc>
<g id="Canvas" transform="translate(690 -160)">
<g id="Logo">
<g id="Vector (Stroke)">
<use xlink:href="#path0_fill" transform="translate(-690 160)" fill="#FFFFFF"/>
</g>
<g id="cointec">
<use xlink:href="#path1_fill" transform="translate(-650.446 165.154)" fill="#FFFFFF"/>
<use xlink:href="#path2_fill" transform="translate(-650.446 165.154)" fill="#FFFFFF"/>
<use xlink:href="#path3_fill" transform="translate(-650.446 165.154)" fill="#FFFFFF"/>
<use xlink:href="#path4_fill" transform="translate(-650.446 165.154)" fill="#FFFFFF"/>
<use xlink:href="#path5_fill" transform="translate(-650.446 165.154)" fill="#FFFFFF"/>
<use xlink:href="#path6_fill" transform="translate(-650.446 165.154)" fill="#FFFFFF"/>
<use xlink:href="#path7_fill" transform="translate(-650.446 165.154)" fill="#FFFFFF"/>
</g>
</g>
</g>
<defs>
<path id="path0_fill" fill-rule="evenodd" d="M 0.148721 12.7074C 1.5023 5.46993 8.02213 0 15.8588 0C 24.6725 0 31.8279 6.93491 31.8279 15.5C 31.8279 24.0651 24.6725 31 15.8588 31C 8.02213 31 1.5023 25.5301 0.148721 18.2926L 0 17.4975L 6.71431 17.4975L 6.85737 17.9857C 7.97177 21.7888 11.5736 24.5766 15.8588 24.5766C 19.8141 24.5766 23.1872 22.2016 24.5594 18.8453L 20.8445 18.8453C 19.751 20.382 17.9191 21.3831 15.8588 21.3831C 12.5239 21.3831 9.80117 18.7491 9.80117 15.5C 9.80117 12.2509 12.5239 9.61692 15.8588 9.61692C 17.9191 9.61692 19.751 10.618 20.8445 12.1547L 24.5594 12.1547C 23.1872 8.79844 19.8141 6.42342 15.8588 6.42342C 11.5736 6.42342 7.97177 9.21121 6.85737 13.0143L 6.71431 13.5025L 0 13.5025L 0.148721 12.7074ZM 1.67737 12.1547L 5.68942 12.1547C 7.12591 8.03573 11.1331 5.0756 15.8588 5.0756C 20.7692 5.0756 24.9039 8.27167 26.1848 12.6429L 26.4366 13.5025L 20.0808 13.5025L 19.88 13.1759C 19.0652 11.8505 17.5655 10.9647 15.8588 10.9647C 13.2743 10.9647 11.179 13.0056 11.179 15.5C 11.179 17.9944 13.2743 20.0353 15.8588 20.0353C 17.5655 20.0353 19.0652 19.1495 19.88 17.8241L 20.0808 17.4975L 26.4366 17.4975L 26.1848 18.3571C 24.9039 22.7283 20.7692 25.9244 15.8588 25.9244C 11.1331 25.9244 7.12591 22.9643 5.68942 18.8453L 1.67737 18.8453C 3.22344 25.048 8.98142 29.6522 15.8588 29.6522C 23.9222 29.6522 30.4501 23.3104 30.4501 15.5C 30.4501 7.68961 23.9222 1.34783 15.8588 1.34783C 8.98142 1.34783 3.22344 5.95204 1.67737 12.1547Z"/>
<path id="path1_fill" d="M 5.74939 16.8926C 6.78644 16.8926 7.65341 16.61 8.35031 16.0449C 9.0555 15.4717 9.43714 14.7331 9.49521 13.8289L 10.9263 13.8289C 10.8849 14.6281 10.6277 15.3587 10.1548 16.0207C 9.68188 16.6746 9.05135 17.1872 8.2632 17.5586C 7.48334 17.9299 6.6454 18.1156 5.74939 18.1156C 3.98226 18.1156 2.58018 17.5182 1.54313 16.3234C 0.514376 15.1286 0 13.5221 0 11.5039L 0 11.068C 0 9.7763 0.232299 8.63398 0.696896 7.64102C 1.16149 6.64805 1.8252 5.88112 2.68803 5.34023C 3.55915 4.79935 4.57546 4.52891 5.73695 4.52891C 7.21371 4.52891 8.42912 4.95677 9.38321 5.8125C 10.3456 6.66823 10.86 7.7944 10.9263 9.19102L 9.49521 9.19102C 9.42884 8.16576 9.04721 7.33828 8.35031 6.70859C 7.66171 6.07891 6.79059 5.76406 5.73695 5.76406C 4.39294 5.76406 3.34759 6.23633 2.60092 7.18086C 1.86254 8.12539 1.49335 9.44935 1.49335 11.1527L 1.49335 11.5766C 1.49335 13.2477 1.86254 14.5514 2.60092 15.4879C 3.34759 16.4243 4.39708 16.8926 5.74939 16.8926Z"/>
<path id="path2_fill" d="M 13.0917 11.1285C 13.0917 9.86914 13.3406 8.7349 13.8384 7.72578C 14.3444 6.71667 15.0538 5.93359 15.9664 5.37656C 16.8873 4.81146 17.9285 4.52891 19.09 4.52891C 20.882 4.52891 22.3339 5.14245 23.4456 6.36953C 24.5573 7.58854 25.1132 9.20716 25.1132 11.2254L 25.1132 11.5281C 25.1132 12.7956 24.8601 13.9379 24.354 14.9551C 23.8562 15.9642 23.1511 16.7432 22.2385 17.2922C 21.3259 17.8411 20.2847 18.1156 19.1149 18.1156C 17.3311 18.1156 15.8793 17.5061 14.7593 16.2871C 13.6475 15.06 13.0917 13.4374 13.0917 11.4191L 13.0917 11.1285ZM 14.585 11.5281C 14.585 13.0943 14.9999 14.3819 15.8295 15.391C 16.6674 16.3921 17.7626 16.8926 19.1149 16.8926C 20.4589 16.8926 21.5457 16.3921 22.3753 15.391C 23.2133 14.3819 23.6322 13.0539 23.6322 11.407L 23.6322 11.1285C 23.6322 10.1275 23.4414 9.2112 23.0598 8.37969C 22.6782 7.54818 22.143 6.90638 21.4544 6.4543C 20.7658 5.99414 19.9777 5.76406 19.09 5.76406C 17.7626 5.76406 16.6799 6.27266 15.8419 7.28984C 15.004 8.29896 14.585 9.62292 14.585 11.2617L 14.585 11.5281Z"/>
<path id="path3_fill" d="M 29.867 17.8734L 28.3736 17.8734L 28.3736 4.77109L 29.867 4.77109L 29.867 17.8734ZM 28.1123 0.980859C 28.1123 0.706381 28.2036 0.476303 28.3861 0.290625C 28.5686 0.096875 28.8175 0 29.1327 0C 29.448 0 29.6969 0.096875 29.8794 0.290625C 30.0702 0.476303 30.1657 0.706381 30.1657 0.980859C 30.1657 1.25534 30.0702 1.48542 29.8794 1.67109C 29.6969 1.85677 29.448 1.94961 29.1327 1.94961C 28.8175 1.94961 28.5686 1.85677 28.3861 1.67109C 28.2036 1.48542 28.1123 1.25534 28.1123 0.980859Z"/>
<path id="path4_fill" d="M 35.3426 4.77109L 35.3924 7.01133C 35.8984 6.20404 36.529 5.5905 37.2839 5.1707C 38.0389 4.74284 38.8727 4.52891 39.7853 4.52891C 41.2289 4.52891 42.3033 4.92448 43.0084 5.71563C 43.7136 6.50677 44.0704 7.69349 44.0787 9.27578L 44.0787 17.8734L 42.5978 17.8734L 42.5978 9.26367C 42.5895 8.0931 42.3323 7.22122 41.8262 6.64805C 41.3284 6.07487 40.5278 5.78828 39.4244 5.78828C 38.5035 5.78828 37.6863 6.07083 36.9728 6.63594C 36.2676 7.19297 35.745 7.94779 35.4048 8.90039L 35.4048 17.8734L 33.9239 17.8734L 33.9239 4.77109L 35.3426 4.77109Z"/>
<path id="path5_fill" d="M 50.2512 1.4168L 50.2512 4.77109L 53.0388 4.77109L 53.0388 5.95781L 50.2512 5.95781L 50.2512 14.6887C 50.2512 15.4152 50.3839 15.9561 50.6494 16.3113C 50.9232 16.6665 51.3754 16.8441 52.0059 16.8441C 52.2548 16.8441 52.6571 16.8038 53.213 16.723L 53.2752 17.9098C 52.8853 18.047 52.3543 18.1156 51.6823 18.1156C 50.6619 18.1156 49.9193 17.829 49.4547 17.2559C 48.9901 16.6746 48.7578 15.8229 48.7578 14.7008L 48.7578 5.95781L 46.2814 5.95781L 46.2814 4.77109L 48.7578 4.77109L 48.7578 1.4168L 50.2512 1.4168Z"/>
<path id="path6_fill" d="M 61.3393 18.1156C 60.1944 18.1156 59.1574 17.8411 58.2282 17.2922C 57.3073 16.7432 56.5896 15.9803 56.0753 15.0035C 55.5609 14.0186 55.3037 12.9167 55.3037 11.6977L 55.3037 11.177C 55.3037 9.91758 55.5526 8.78333 56.0504 7.77422C 56.5564 6.7651 57.2575 5.97396 58.1535 5.40078C 59.0495 4.81953 60.0202 4.52891 61.0655 4.52891C 62.6999 4.52891 63.9941 5.07383 64.9482 6.16367C 65.9106 7.24544 66.3918 8.72682 66.3918 10.6078L 66.3918 11.4191L 56.7846 11.4191L 56.7846 11.6977C 56.7846 13.1831 57.2202 14.4223 58.0913 15.4152C 58.9707 16.4001 60.0741 16.8926 61.4015 16.8926C 62.198 16.8926 62.899 16.7513 63.5047 16.4688C 64.1186 16.1862 64.6745 15.7341 65.1722 15.1125L 66.1056 15.8027C 65.0105 17.3447 63.4217 18.1156 61.3393 18.1156ZM 61.0655 5.76406C 59.9455 5.76406 58.9997 6.16367 58.2282 6.96289C 57.4649 7.76211 57.0003 8.83581 56.8344 10.184L 64.9109 10.184L 64.9109 10.0266C 64.8694 8.76719 64.5002 7.74193 63.8033 6.95078C 63.1064 6.15964 62.1938 5.76406 61.0655 5.76406Z"/>
<path id="path7_fill" d="M 74.2692 16.8926C 75.3063 16.8926 76.1732 16.61 76.8701 16.0449C 77.5753 15.4717 77.957 14.7331 78.015 13.8289L 79.4462 13.8289C 79.4047 14.6281 79.1475 15.3587 78.6746 16.0207C 78.2017 16.6746 77.5712 17.1872 76.783 17.5586C 76.0032 17.9299 75.1652 18.1156 74.2692 18.1156C 72.5021 18.1156 71.1 17.5182 70.063 16.3234C 69.0342 15.1286 68.5198 13.5221 68.5198 11.5039L 68.5198 11.068C 68.5198 9.7763 68.7521 8.63398 69.2167 7.64102C 69.6813 6.64805 70.345 5.88112 71.2079 5.34023C 72.079 4.79935 73.0953 4.52891 74.2568 4.52891C 75.7335 4.52891 76.949 4.95677 77.903 5.8125C 78.8654 6.66823 79.3798 7.7944 79.4462 9.19102L 78.015 9.19102C 77.9487 8.16576 77.567 7.33828 76.8701 6.70859C 76.1815 6.07891 75.3104 5.76406 74.2568 5.76406C 72.9128 5.76406 71.8674 6.23633 71.1208 7.18086C 70.3824 8.12539 70.0132 9.44935 70.0132 11.1527L 70.0132 11.5766C 70.0132 13.2477 70.3824 14.5514 71.1208 15.4879C 71.8674 16.4243 72.9169 16.8926 74.2692 16.8926Z"/>
</defs>
</svg>
