<svg width="118" height="110" viewBox="0 0 118 110" fill="none" xmlns="http://www.w3.org/2000/svg">
<path d="M115.886 54.996C115.886 55.6637 115.866 56.312 115.827 56.9602C115.709 60.9438 115.122 64.8995 114.078 68.7457C113.725 70.0815 113.312 71.3975 112.86 72.6743C111.396 76.8372 109.409 80.7974 106.948 84.4599C106.045 85.8152 105.062 87.1312 104.041 88.3885C93.983 100.822 78.8429 108.042 62.8505 108.031C61.5345 108.031 60.2183 107.992 58.9219 107.874V2.11817C60.2183 2.00031 61.5343 1.96095 62.8505 1.96095C78.8429 1.95013 93.983 9.16994 104.041 21.6035C105.076 22.8631 106.046 24.1742 106.948 25.5321C109.41 29.1946 111.396 33.1547 112.86 37.3176C113.312 38.5945 113.725 39.9105 114.078 41.2462C115.122 45.0924 115.709 49.0482 115.827 53.0318C115.866 53.68 115.886 54.3282 115.886 54.996Z" fill="#3F51B5"/>
<path d="M54.994 108.031C84.2845 108.031 108.029 84.2864 108.029 54.996C108.029 25.7055 84.2845 1.96094 54.994 1.96094C25.7036 1.96094 1.95898 25.7055 1.95898 54.996C1.95898 84.2864 25.7036 108.031 54.994 108.031Z" fill="#0377BC"/>
<path d="M52.0476 108.031C79.7108 108.031 102.136 84.2864 102.136 54.996C102.136 25.7055 79.7108 1.96094 52.0476 1.96094C24.3844 1.96094 1.95898 25.7055 1.95898 54.996C1.95898 84.2864 24.3844 108.031 52.0476 108.031Z" fill="#02A9F4"/>
<path d="M54.9947 92.3138C34.3829 92.3138 17.6738 75.6046 17.6738 54.993C17.6738 34.3814 34.3829 17.6719 54.9947 17.6719C75.6065 17.6719 92.3156 34.3811 92.3156 54.9927C92.2921 75.5949 75.5966 92.2904 54.9947 92.3138Z" fill="#CFD8DC"/>
<path d="M70.7061 50.3438L54.9922 42.5851V25.5352L70.7061 50.3438Z" fill="#FEC108"/>
<path d="M54.9915 25.5352V42.5851L39.2773 50.3438L54.9915 25.5352Z" fill="#FFEB3A"/>
<path d="M70.7061 59.6484L54.9922 84.457V67.4073L70.7061 59.6484Z" fill="#FEC108"/>
<path d="M54.9915 67.4073V84.457L39.2773 59.6484L54.9915 67.4073Z" fill="#FFEB3A"/>
<path d="M70.7054 50.3485L54.9915 58.1014L39.2773 50.3485L54.9915 42.5938L70.7054 50.3485Z" fill="#F57C00"/>
<path d="M94.273 54.9962C94.2113 36.509 81.3218 20.5432 63.2629 16.5856C60.6816 16.041 58.0527 15.7533 55.4145 15.7273L55.2985 15.733C55.2352 15.7264 55.0434 15.7109 54.9801 15.7109C33.3697 15.7105 15.8182 33.1672 15.7018 54.7771C15.5851 76.387 32.9471 94.0322 54.5563 94.2649L54.7702 94.2677C54.8508 94.2744 54.9534 94.281 54.9965 94.281C57.9058 94.2829 60.8066 93.965 63.6466 93.3334C63.9862 93.2576 64.3248 93.1704 64.8109 93.0447C82.1619 88.5687 94.2829 72.9153 94.273 54.9962ZM62.7883 89.5003C60.2912 90.0569 57.7419 90.3458 55.1836 90.3616L55.054 90.3492C55.0004 90.3444 54.9467 90.3416 54.8929 90.3407L54.6033 90.3368C35.1956 90.1211 19.5905 74.2999 19.6416 54.8912C19.6927 35.4826 35.3809 19.7438 54.7893 19.6301C54.8439 19.6359 55.0262 19.6513 55.0809 19.6522L55.3668 19.6561C74.7654 19.802 90.3987 35.5975 90.3446 54.9964C90.3444 71.1558 79.3933 85.2609 63.738 89.2655C63.3877 89.3555 63.0875 89.4331 62.7883 89.5003Z" fill="black"/>
<path d="M54.9916 11.7854C55.2483 11.7822 55.5017 11.7288 55.7379 11.6282C55.9757 11.5283 56.195 11.3888 56.3863 11.216C56.7447 10.8391 56.948 10.3412 56.956 9.82125C56.953 9.56436 56.8996 9.31046 56.7988 9.07406C56.7037 8.83398 56.5638 8.61438 56.3866 8.42655C56.1955 8.25299 55.9764 8.11303 55.7381 8.01313C55.0066 7.70514 54.1616 7.86834 53.5971 8.42655C53.4192 8.61392 53.2788 8.83375 53.1837 9.07406C53.0834 9.31046 53.0302 9.56436 53.0274 9.82125C53.0224 10.3438 53.2277 10.8463 53.5971 11.2157C53.9666 11.5852 54.4691 11.7905 54.9916 11.7854Z" fill="black"/>
<path d="M56.3865 98.7872C56.1955 98.6137 55.9764 98.4737 55.7381 98.3738C55.0054 98.076 54.1664 98.238 53.5971 98.7872C53.4236 98.9778 53.2836 99.197 53.1837 99.4347C53.0834 99.6711 53.0302 99.925 53.0274 100.182C53.0224 100.704 53.2277 101.207 53.5971 101.576C53.9666 101.946 54.4691 102.151 54.9916 102.146C55.2483 102.143 55.5017 102.089 55.7379 101.989C55.9757 101.889 56.195 101.75 56.3863 101.576C56.7447 101.2 56.9482 100.702 56.956 100.182C56.953 99.925 56.8996 99.6711 56.7988 99.4347C56.704 99.1947 56.564 98.9751 56.3865 98.7872Z" fill="black"/>
<path d="M41.9078 12.7482C42.2793 13.1146 42.7807 13.3193 43.3025 13.3179C43.8193 13.323 44.316 13.1172 44.6779 12.7482C45.0529 12.3808 45.2649 11.8785 45.2667 11.3535C45.2635 11.2283 45.2504 11.1035 45.2274 10.9803C45.2 10.8526 45.1606 10.7276 45.1093 10.6072C45.0623 10.49 45.0032 10.3784 44.9327 10.2734C44.8634 10.1625 44.7773 10.0628 44.6777 9.97788C43.901 9.24175 42.6842 9.24175 41.9078 9.97788C41.5391 10.34 41.3333 10.8365 41.3381 11.3533C41.3342 11.6152 41.3809 11.8753 41.4753 12.1195C41.578 12.3553 41.7248 12.5684 41.9078 12.7482Z" fill="black"/>
<path d="M68.0698 100.024C68.169 99.9444 68.2496 99.8439 68.3058 99.7297C68.3824 99.6249 68.4483 99.5128 68.5023 99.395C68.547 99.2741 68.5797 99.1492 68.6002 99.0219C68.6326 98.9003 68.646 98.7744 68.6395 98.6487C68.6448 98.1262 68.4395 97.6235 68.0698 97.254C67.7066 96.8793 67.2071 96.668 66.6852 96.668C66.1634 96.668 65.6639 96.8795 65.3007 97.254C64.9255 97.6214 64.713 98.1237 64.7109 98.6487C64.7135 99.168 64.9262 99.6643 65.3007 100.024C65.4747 100.214 65.6897 100.361 65.9289 100.456C66.6627 100.773 67.5165 100.601 68.0698 100.024Z" fill="black"/>
<path d="M30.5975 16.6184C30.6408 16.7434 30.7004 16.8622 30.7749 16.9713L31.0109 17.2666C31.0988 17.3568 31.1978 17.4358 31.3053 17.5016C31.4186 17.5746 31.5366 17.6402 31.6582 17.6982C31.7735 17.7401 31.8918 17.773 32.0122 17.7969C32.1406 17.8287 32.2732 17.8416 32.4054 17.8354C32.6606 17.8395 32.9143 17.793 33.1516 17.6982C33.3864 17.5843 33.6044 17.4392 33.8001 17.2666C34.1615 16.8914 34.3654 16.3921 34.3698 15.871C34.3765 15.6134 34.3226 15.3579 34.2126 15.1247C34.0337 14.6314 33.6451 14.2429 33.1519 14.064C32.7935 13.9075 32.3952 13.866 32.0124 13.9459C31.8893 13.9678 31.77 14.0076 31.6584 14.064C31.5334 14.1073 31.4149 14.1671 31.3055 14.2415C31.2068 14.32 31.1089 14.3978 31.0111 14.4765C30.8376 14.6676 30.6976 14.8867 30.5977 15.1249C30.4973 15.3611 30.4442 15.6145 30.4414 15.8712C30.4444 16.0031 30.4575 16.1345 30.4808 16.2644C30.5015 16.3875 30.5411 16.507 30.5975 16.6184Z" fill="black"/>
<path d="M78.9744 92.7345C78.5041 92.2709 77.8335 92.072 77.1865 92.2042C77.0631 92.2251 76.9439 92.2649 76.8325 92.322C76.5898 92.412 76.3691 92.5527 76.1849 92.7345C76.0026 92.9189 75.8618 93.1399 75.7715 93.3829C75.6709 93.6191 75.618 93.8725 75.6152 94.1292C75.6226 94.6492 75.8261 95.1473 76.1849 95.5239C76.2828 95.6024 76.3806 95.6811 76.4794 95.7599C76.5887 95.834 76.7075 95.8934 76.8322 95.9364C76.9439 95.9928 77.0631 96.0326 77.1863 96.0543C77.3163 96.0759 77.4478 96.089 77.5794 96.0936C78.1019 96.0987 78.6044 95.8934 78.9739 95.5239C79.3433 95.1545 79.5487 94.652 79.5436 94.1294C79.5505 93.8719 79.4964 93.6161 79.3864 93.3832C79.2964 93.1401 79.156 92.9191 78.9744 92.7345Z" fill="black"/>
<path d="M22.2841 24.8622C22.5269 24.9635 22.7872 25.0169 23.0504 25.0194C23.307 25.0169 23.5607 24.9632 23.7966 24.8622C24.036 24.7673 24.2512 24.6198 24.4257 24.4306C24.8021 24.068 25.0145 23.5681 25.0145 23.0455C25.0145 22.523 24.8018 22.023 24.4257 21.6605C24.0625 21.2858 23.5627 21.0742 23.0407 21.0742C22.5186 21.0742 22.0191 21.2858 21.6556 21.6605C20.896 22.4275 20.896 23.6634 21.6556 24.4303C21.8301 24.6198 22.0449 24.7673 22.2841 24.8622Z" fill="black"/>
<path d="M85.5546 85.5682C85.1796 85.9273 84.9667 86.4233 84.9648 86.9426C84.9667 87.4677 85.1791 87.9702 85.5546 88.3373C85.9162 88.7063 86.4125 88.9121 86.929 88.9071C87.191 88.911 87.4511 88.8642 87.6953 88.7699C87.9308 88.6677 88.144 88.5208 88.3235 88.3373C88.6932 87.9679 88.8983 87.4652 88.8932 86.9426C88.8983 86.4261 88.6925 85.9298 88.3235 85.5682C87.5517 84.821 86.3264 84.821 85.5546 85.5682Z" fill="black"/>
<path d="M14.0554 33.1559C14.0946 33.2768 14.1546 33.3896 14.2329 33.4897C14.3114 33.6078 14.3892 33.7054 14.4679 33.8044C14.8447 34.1625 15.3426 34.366 15.8626 34.3741C16.3835 34.3697 16.8828 34.166 17.258 33.8046C17.3469 33.7081 17.4256 33.6027 17.493 33.4899C17.5713 33.3898 17.6314 33.2768 17.6705 33.1562C17.7269 33.0445 17.7667 32.9253 17.7886 32.8021C17.8109 32.6725 17.8236 32.5413 17.827 32.4099C17.8321 31.6116 17.3535 30.8897 16.6163 30.5838C15.879 30.2777 15.0298 30.4482 14.4681 31.0154C14.1095 31.392 13.9063 31.8901 13.8984 32.4101C13.9021 32.5416 13.9152 32.6728 13.9378 32.8024C13.9592 32.925 13.999 33.0443 14.0554 33.1559Z" fill="black"/>
<path d="M92.726 76.1945C92.3671 76.5708 92.1636 77.069 92.1562 77.5892C92.1599 78.1099 92.3639 78.6094 92.726 78.9839C93.5005 79.7435 94.7406 79.7435 95.5151 78.9839C95.8772 78.6094 96.0812 78.1101 96.0848 77.5892C96.0894 76.7911 95.6109 76.0697 94.8738 75.7636C94.1368 75.4574 93.2878 75.6278 92.726 76.1945Z" fill="black"/>
<path d="M12.7376 41.9202C11.9575 41.1933 10.7478 41.1933 9.96772 41.9202C9.77874 42.0947 9.63119 42.3094 9.53612 42.5484C9.43737 42.7921 9.38397 43.0518 9.37891 43.3147C9.38926 43.8379 9.60012 44.3369 9.96772 44.7094C10.7347 45.469 11.9706 45.469 12.7376 44.7094C12.9166 44.5188 13.063 44.2996 13.1703 44.0609C13.2647 43.8236 13.3112 43.5702 13.3075 43.3147C13.3096 43.0529 13.2631 42.7931 13.1703 42.5484C13.0672 42.3134 12.9203 42.1002 12.7376 41.9202Z" fill="black"/>
<path d="M98.6361 68.6529C99.1529 68.658 99.6497 68.4522 100.012 68.0832C100.588 67.5298 100.761 66.6761 100.443 65.9425C100.349 65.7031 100.201 65.4883 100.012 65.3143C99.2392 64.5671 98.0137 64.5671 97.2417 65.3143C96.8727 65.6759 96.6669 66.1722 96.672 66.6887C96.6704 67.2106 96.875 67.7119 97.2417 68.0834C97.6091 68.4561 98.1129 68.6619 98.6361 68.6529Z" fill="black"/>
<path d="M11.2086 56.3969C11.3817 56.2056 11.5212 55.9864 11.6211 55.7484C11.8308 55.2729 11.8308 54.7308 11.6211 54.2552C11.5212 54.0177 11.3817 53.7988 11.2086 53.6077C10.4211 52.8808 9.20714 52.8808 8.41944 53.6077C8.2415 53.7951 8.10109 54.0149 8.00602 54.2552C7.79747 54.7312 7.79747 55.2726 8.00602 55.7484C8.10132 55.989 8.2415 56.209 8.41921 56.3969C9.19379 57.1565 10.4338 57.1565 11.2086 56.3969Z" fill="black"/>
<path d="M99.4223 53.1876C99.1845 53.2875 98.9656 53.4273 98.7748 53.601C98.0152 54.3756 98.0152 55.6156 98.7748 56.3902C98.9658 56.5633 99.1848 56.7028 99.4223 56.8027C99.6587 56.9035 99.9126 56.9569 100.169 56.9599C100.964 56.9567 101.679 56.4775 101.983 55.7441C102.288 55.0105 102.123 54.1659 101.564 53.601C100.998 53.0445 100.154 52.8817 99.4223 53.1876Z" fill="black"/>
<path d="M9.97123 65.3143C9.21829 66.0811 9.22381 67.3117 9.98389 68.0715C10.744 68.8313 11.9745 68.8366 12.7411 68.0832C13.1107 67.7138 13.3158 67.2111 13.3108 66.6885C13.3158 66.172 13.1101 65.6757 12.7411 65.3141C11.969 64.5671 10.7435 64.5671 9.97123 65.3143Z" fill="black"/>
<path d="M98.6364 45.2779C99.7104 45.2523 100.575 44.3878 100.601 43.3137C100.598 43.057 100.544 42.8034 100.443 42.5674C100.354 42.3195 100.206 42.0972 100.012 41.919C99.6485 41.5438 99.1488 41.332 98.6267 41.332C98.1046 41.332 97.6049 41.5438 97.2417 41.919C96.8752 42.2905 96.6706 42.7919 96.672 43.3137C96.6669 43.8305 96.8727 44.3272 97.2417 44.6891C97.607 45.067 98.1106 45.2797 98.6364 45.2779Z" fill="black"/>
<path d="M17.2583 76.1932C17.1649 76.1085 17.0661 76.0297 16.963 75.9572C16.8539 75.8826 16.7351 75.823 16.6101 75.78C16.4987 75.7233 16.3793 75.684 16.2561 75.663C15.6097 75.5438 14.9452 75.7408 14.4682 76.1934C14.2951 76.3844 14.1556 76.6034 14.0557 76.8409C13.9549 77.0773 13.9015 77.3312 13.8985 77.5881C13.8935 78.1106 14.0988 78.6131 14.4682 78.9826C14.8377 79.352 15.3402 79.5573 15.8627 79.5523C16.3836 79.5479 16.8831 79.3442 17.2581 78.9826C17.6163 78.6057 17.8193 78.1079 17.8269 77.5879C17.834 77.3301 17.7806 77.0741 17.6706 76.8407C17.5709 76.6031 17.4314 76.3842 17.2583 76.1932Z" fill="black"/>
<path d="M94.1208 34.3753C95.0471 34.3663 95.8385 33.7052 96.0125 32.7955C96.1865 31.8856 95.6949 30.9794 94.8374 30.629C93.98 30.2787 92.9943 30.5818 92.4814 31.3532C91.9688 32.1248 92.071 33.1507 92.7261 33.8056C93.1029 34.164 93.6008 34.3675 94.1208 34.3753Z" fill="black"/>
<path d="M23.7964 85.1318C23.3114 84.9352 22.7688 84.9352 22.2838 85.1318C22.0447 85.2271 21.8299 85.3749 21.6556 85.5643C20.896 86.3311 20.896 87.5665 21.6556 88.3332C21.8354 88.5165 22.0486 88.6633 22.2838 88.7658C22.5281 88.8601 22.7884 88.9066 23.0501 88.903C23.3054 88.9069 23.5591 88.8601 23.7964 88.7658C24.0319 88.6633 24.2455 88.5165 24.4255 88.3332C24.8018 87.9709 25.0143 87.4712 25.0143 86.9487C25.0143 86.4264 24.8016 85.9264 24.4255 85.5641C24.251 85.3749 24.036 85.2271 23.7964 85.1318Z" fill="black"/>
<path d="M86.929 25.0252C87.1921 25.0226 87.4525 24.9692 87.6953 24.868C87.9347 24.7734 88.1495 24.6258 88.3235 24.4364C88.6925 24.0745 88.8983 23.5778 88.8932 23.061C88.8946 22.5392 88.69 22.038 88.3235 21.6663C87.5436 20.9394 86.3345 20.9394 85.5546 21.6663C85.1789 22.0334 84.9665 22.5357 84.9648 23.061C84.9911 24.1348 85.8552 24.9989 86.929 25.0252Z" fill="black"/>
<path d="M33.1479 92.301C32.4116 92.0093 31.5725 92.179 31.0072 92.7335C30.6483 93.1098 30.4449 93.608 30.4375 94.1282C30.4403 94.3848 30.4934 94.6383 30.5938 94.8745C30.6937 95.1125 30.8334 95.3318 31.0072 95.5229C31.3836 95.8817 31.8817 96.0852 32.4019 96.0926C32.6586 96.0894 32.912 96.036 33.1482 95.9354C33.6415 95.7565 34.03 95.368 34.2089 94.8747C34.3191 94.6417 34.373 94.386 34.3661 94.1284C34.362 93.6077 34.158 93.1085 33.7964 92.7337C33.601 92.5604 33.3827 92.4149 33.1479 92.301Z" fill="black"/>
<path d="M76.4794 17.5007C76.5887 17.575 76.7075 17.6346 76.8322 17.6781C76.9439 17.7345 77.0631 17.7744 77.1863 17.7962C77.3149 17.8271 77.4473 17.84 77.5794 17.8347C78.101 17.8365 78.6024 17.6321 78.9741 17.2659C79.7337 16.4911 79.7337 15.2508 78.9741 14.4758C78.4986 14.0212 77.8329 13.8237 77.1863 13.9454C77.0631 13.9673 76.9439 14.0071 76.8322 14.0635C76.7072 14.1068 76.5887 14.1666 76.4794 14.241C76.3806 14.3195 76.2828 14.3973 76.1849 14.476C75.4253 15.2508 75.4253 16.4911 76.1849 17.2661C76.2782 17.3501 76.3765 17.4286 76.4794 17.5007Z" fill="black"/>
<path d="M44.6783 97.2552C44.1228 96.6784 43.2702 96.5016 42.5313 96.8101C41.7924 97.1187 41.3187 97.8494 41.3385 98.6497C41.3334 99.1665 41.5392 99.6632 41.9082 100.025C42.2779 100.397 42.7788 100.608 43.3029 100.614C44.377 100.588 45.2418 99.7238 45.2671 98.6497C45.2625 98.3868 45.2091 98.127 45.1099 97.8834C45.0146 97.6445 44.8673 97.43 44.6783 97.2552Z" fill="black"/>
<path d="M64.8679 12.1164C64.9068 12.2371 64.9664 12.3501 65.0445 12.4502C65.1241 12.5533 65.2095 12.6516 65.3007 12.7446C65.4804 12.9276 65.6936 13.0745 65.9289 13.1771C66.6657 13.463 67.5015 13.2943 68.0696 12.7446C68.1603 12.6567 68.2395 12.5577 68.3055 12.4502C68.3824 12.3459 68.4482 12.2343 68.5021 12.1164C68.544 11.9947 68.5767 11.8699 68.5999 11.7433C68.6324 11.6149 68.6455 11.4823 68.6393 11.3501C68.6441 10.8334 68.4386 10.3369 68.0696 9.97478C67.5038 9.42072 66.665 9.25176 65.9289 9.54318C65.6897 9.63801 65.4752 9.78556 65.3007 9.97478C64.9262 10.3346 64.7135 10.8308 64.7109 11.3501C64.7146 11.482 64.7277 11.6135 64.7503 11.7433C64.7715 11.8727 64.8113 11.9981 64.8679 12.1164Z" fill="black"/>
<path d="M115.31 38.4831C113.47 32.6587 110.67 27.1823 107.026 22.28C106.998 22.2485 106.983 22.2075 106.953 22.178C96.5865 8.2264 80.2302 0.00183293 62.8485 0.000681999C61.3549 0.000681999 60.0525 0.053625 58.8587 0.15813C57.8162 0.0874624 56.7776 0.0382024 55.7521 0.0294553C55.4991 0.00689704 55.2455 -0.0027708 54.9916 0.000681999C24.7697 -0.00161987 0.210352 24.3867 0.00134265 54.6079C-0.207667 84.8291 24.0119 109.555 54.231 109.971C54.484 109.993 54.7377 110.003 54.9916 109.999C56.3062 109.999 57.6148 109.937 58.919 109.846C60.0973 109.947 61.3788 109.999 62.8485 109.999C80.2302 109.998 96.5865 101.774 106.953 87.8218C106.983 87.7923 106.998 87.7513 107.026 87.7198C110.67 82.8175 113.47 77.3411 115.31 71.5167C115.329 71.4743 115.338 71.4292 115.355 71.385C118.679 60.7145 118.679 49.2853 115.355 38.6145C115.338 38.5705 115.329 38.5254 115.31 38.4831ZM112.024 68.7499H108.251C109.227 64.8929 109.783 60.9412 109.908 56.9643H113.869C113.719 60.9516 113.099 64.9074 112.024 68.7499ZM104.524 84.4638H101.418C103.764 80.7739 105.66 76.8174 107.068 72.6782H110.761C109.207 76.863 107.11 80.8255 104.524 84.4638ZM110.761 37.3215H107.007C105.58 33.1812 103.666 29.2247 101.306 25.536H104.524C107.11 29.1745 109.207 33.137 110.761 37.3215ZM109.904 53.0357C109.773 49.0572 109.205 45.1048 108.211 41.2501H112.024C113.099 45.0926 113.719 49.0484 113.869 53.0357H109.904ZM101.441 21.6076H98.5581C94.7833 16.6768 90.2074 12.4149 85.021 8.99937C91.2934 12.0438 96.88 16.3338 101.441 21.6076ZM54.4419 106.052C26.3471 105.753 3.7718 82.8131 3.92303 54.717C4.07427 26.6211 26.895 3.9256 54.9916 3.92928H55.0721C55.1787 3.92928 55.3014 3.93135 55.5401 3.94838C83.5538 4.17765 106.125 26.9852 106.062 54.9999C106.067 78.3208 90.2746 98.6833 67.6861 104.482C67.2018 104.607 66.7166 104.733 66.2302 104.841C62.5403 105.662 58.7715 106.074 54.9913 106.071C54.8571 106.07 54.7402 106.073 54.4419 106.052ZM85.6379 100.684C90.6328 97.3289 95.0429 93.1766 98.6925 88.3924H101.441C97.0303 93.4864 91.6608 97.6632 85.6379 100.684Z" fill="black"/>
<path d="M69.8338 57.8864L54.9888 65.211L40.1436 57.8862C39.3541 57.4969 38.4023 57.6804 37.8139 58.3351C37.2255 58.9897 37.1445 59.9558 37.6155 60.6993L53.3296 85.5107C53.6899 86.0792 54.316 86.4236 54.9888 86.4236C55.6619 86.4236 56.288 86.079 56.648 85.5107L72.3622 60.6993C72.8331 59.9558 72.7519 58.9897 72.1637 58.3351C71.5752 57.6806 70.6233 57.4972 69.8338 57.8864ZM53.0244 68.623V77.6866L44.6744 64.5031L53.0244 68.623ZM56.953 77.6866V68.623L65.303 64.5031L56.953 77.6866Z" fill="black"/>
<path d="M72.6251 50.0505C72.6194 49.9842 72.6099 49.9184 72.5973 49.853C72.5482 49.6597 72.47 49.4751 72.3652 49.3054L72.3625 49.2987L56.6483 24.4874C56.6218 24.4455 56.5717 24.4319 56.542 24.393C56.1909 23.8806 55.6099 23.5742 54.9889 23.5742C54.3678 23.5742 53.7869 23.8806 53.4358 24.393C53.4064 24.4319 53.3562 24.4455 53.3297 24.4874L37.6155 49.2987L37.6128 49.3054C37.508 49.4751 37.4298 49.6597 37.3808 49.853C37.3575 50.0188 37.334 50.1843 37.3105 50.35C37.3105 50.3806 37.3216 50.4087 37.3232 50.4391C37.343 50.6359 37.3831 50.8302 37.4429 51.0187C37.4696 51.0898 37.5005 51.1593 37.5354 51.227C37.5932 51.341 37.6623 51.4487 37.7412 51.549C37.7693 51.5852 37.7831 51.6285 37.8142 51.663C37.8335 51.6846 37.86 51.6954 37.88 51.7159C37.9753 51.8098 38.0801 51.8939 38.1926 51.9666C38.2467 52.0078 38.3031 52.046 38.3611 52.0815C38.3772 52.09 38.3892 52.1038 38.4058 52.1121L54.1199 59.8664C54.6678 60.1362 55.31 60.1362 55.8578 59.8664L71.572 52.1121C71.7734 52.008 71.9548 51.8697 72.1086 51.7033C72.1249 51.6865 72.1482 51.6807 72.1638 51.6632C72.1949 51.6287 72.2085 51.5852 72.2368 51.5493C72.316 51.4489 72.3848 51.3412 72.4426 51.2272C72.4776 51.1598 72.5084 51.0903 72.5351 51.0189C72.595 50.8304 72.635 50.6361 72.6548 50.4393C72.6562 50.4089 72.6675 50.3808 72.6675 50.3502C72.6613 50.2492 72.647 50.149 72.6251 50.0505ZM56.9533 41.375V32.3114L65.3033 45.4949L56.9533 41.375ZM53.0247 32.3114V41.375L44.6747 45.4949L53.0247 32.3114ZM54.9891 55.9138L43.7143 50.3502L54.9891 44.7871L66.2639 50.3502L54.9891 55.9138Z" fill="black"/>
</svg>
