<svg width="19" height="15" viewBox="0 0 19 15" fill="none" xmlns="http://www.w3.org/2000/svg">
<path d="M18.7455 1.51685H0.254464C0.186976 1.51685 0.122252 1.49022 0.0745309 1.44281C0.0268096 1.3954 0 1.33109 0 1.26405L0 0.252809C0 0.18576 0.0268096 0.121457 0.0745309 0.0740462C0.122252 0.0266353 0.186976 0 0.254464 0H18.7455C18.813 0 18.8777 0.0266353 18.9255 0.0740462C18.9732 0.121457 19 0.18576 19 0.252809V1.26405C19 1.33109 18.9732 1.3954 18.9255 1.44281C18.8777 1.49022 18.813 1.51685 18.7455 1.51685ZM18.7455 8.25843H0.254464C0.186976 8.25843 0.122252 8.23179 0.0745309 8.18438C0.0268096 8.13697 0 8.07267 0 8.00562L0 6.99438C0 6.92733 0.0268096 6.86303 0.0745309 6.81562C0.122252 6.76821 0.186976 6.74157 0.254464 6.74157H18.7455C18.813 6.74157 18.8777 6.76821 18.9255 6.81562C18.9732 6.86303 19 6.92733 19 6.99438V8.00562C19 8.07267 18.9732 8.13697 18.9255 8.18438C18.8777 8.23179 18.813 8.25843 18.7455 8.25843ZM18.7455 15H0.254464C0.186976 15 0.122252 14.9734 0.0745309 14.926C0.0268096 14.8785 0 14.8142 0 14.7472L0 13.736C0 13.6689 0.0268096 13.6046 0.0745309 13.5572C0.122252 13.5098 0.186976 13.4831 0.254464 13.4831H18.7455C18.813 13.4831 18.8777 13.5098 18.9255 13.5572C18.9732 13.6046 19 13.6689 19 13.736V14.7472C19 14.8142 18.9732 14.8785 18.9255 14.926C18.8777 14.9734 18.813 15 18.7455 15Z" fill="white"/>
</svg>
