<svg width="16" height="19" viewBox="0 0 16 19" fill="none" xmlns="http://www.w3.org/2000/svg">
<path d="M12.2884 8.82353H3.71511C3.55793 8.82353 3.42933 8.95588 3.42933 9.11765V9.70588C3.42933 9.86765 3.55793 10 3.71511 10H12.2884C12.4456 10 12.5742 9.86765 12.5742 9.70588V9.11765C12.5742 8.95588 12.4456 8.82353 12.2884 8.82353ZM12.2884 12.3529H3.71511C3.55793 12.3529 3.42933 12.4853 3.42933 12.6471V13.2353C3.42933 13.3971 3.55793 13.5294 3.71511 13.5294H12.2884C12.4456 13.5294 12.5742 13.3971 12.5742 13.2353V12.6471C12.5742 12.4853 12.4456 12.3529 12.2884 12.3529ZM14.9355 0C14.7283 0 14.5139 0.0661765 14.3175 0.209559L12.7635 1.36029L11.3847 0.338235C11.0846 0.117647 10.7345 0.00367647 10.3809 0.00367647C10.0308 0.00367647 9.68072 0.113971 9.38065 0.338235L8.00178 1.36029L6.6229 0.338235C6.32283 0.117647 5.96918 0.00367647 5.6191 0.00367647C5.26903 0.00367647 4.91895 0.113971 4.61888 0.338235L3.24001 1.36029L1.68609 0.209559C1.49319 0.0661765 1.27886 0 1.06809 0C0.5144 0.00367647 0 0.452206 0 1.09926V17.7279C0 18.364 0.510828 18.8235 1.06809 18.8235C1.27528 18.8235 1.48962 18.7574 1.68609 18.614L3.24001 17.4632L4.61888 18.4853C4.91895 18.7059 5.26903 18.8199 5.62268 18.8199C5.97275 18.8199 6.32283 18.7096 6.6229 18.4853L8.00178 17.4632L9.38065 18.4853C9.68072 18.7059 10.0344 18.8199 10.3844 18.8199C10.7345 18.8199 11.0846 18.7096 11.3847 18.4853L12.7635 17.4632L14.3175 18.614C14.5104 18.7574 14.7247 18.8235 14.9355 18.8235C15.4892 18.8235 16 18.375 16 17.7279V1.09926C16.0036 0.459559 15.4927 0 14.9355 0ZM14.8604 17.5662L13.4316 16.5074L12.7635 16.011L12.0955 16.5074L10.7167 17.5294C10.6166 17.6029 10.5023 17.6397 10.3844 17.6397C10.263 17.6397 10.1487 17.5993 10.0487 17.5257L8.66978 16.5074L8.00178 16.011L7.33377 16.5074L5.95489 17.5294C5.85487 17.6029 5.74056 17.6397 5.6191 17.6397C5.49765 17.6397 5.38334 17.5993 5.28332 17.5257L3.90444 16.5074L3.23643 16.011L2.572 16.5074L1.14311 17.5882V1.25735L2.572 2.31618L3.24001 2.8125L3.90801 2.31618L5.28689 1.29412C5.38691 1.22059 5.50122 1.18382 5.6191 1.18382C5.74056 1.18382 5.85487 1.22426 5.95489 1.29779L7.33377 2.31618L8.00178 2.8125L8.66978 2.31618L10.0487 1.29412C10.1487 1.22059 10.263 1.18382 10.3844 1.18382C10.5059 1.18382 10.6202 1.22426 10.7202 1.29779L12.0991 2.31618L12.7671 2.8125L13.4316 2.31618L14.8604 1.25735V17.5662ZM12.2884 5.29412H3.71511C3.55793 5.29412 3.42933 5.42647 3.42933 5.58824V6.17647C3.42933 6.33824 3.55793 6.47059 3.71511 6.47059H12.2884C12.4456 6.47059 12.5742 6.33824 12.5742 6.17647V5.58824C12.5742 5.42647 12.4456 5.29412 12.2884 5.29412Z" fill="#0459C4"/>
</svg>
