<svg width="420" height="184" viewBox="0 0 420 184" fill="none" xmlns="http://www.w3.org/2000/svg">
<g clip-path="url(#clip0)">
<path d="M338 54H382C384.209 54 386 55.7908 386 57.9999V94.0003C386 96.2095 384.209 98.0002 382 98.0002H338C335.791 98.0002 334 96.2095 334 94.0003V57.9999C334 55.7908 335.791 54 338 54Z" fill="#FF9801"/>
<path d="M338 54H376C378.209 54 380 55.7908 380 57.9999V94.0003C380 96.2095 378.209 98.0002 376 98.0002H338C335.791 98.0002 334 96.2095 334 94.0003V57.9999C334 55.7908 335.791 54 338 54Z" fill="#FEC108"/>
<path d="M366.841 72.7361C366.788 69.2378 364.107 66.3411 360.624 66.0179C357.14 65.6947 353.972 68.0476 353.276 71.4763C352.909 73.4923 353.506 75.5632 354.887 77.0766C355.581 77.8273 355.976 78.806 355.999 79.8277V86.0158C355.999 87.1117 356.887 87.9997 357.983 87.9997H362.015C362.542 87.9997 363.046 87.791 363.418 87.4193C363.791 87.0467 363.999 86.5422 363.999 86.0158V79.8003C364.022 78.7785 364.42 77.8017 365.117 77.0546C366.2 75.8736 366.814 74.3382 366.841 72.7361Z" fill="#37474F"/>
<path d="M372 54V41.6559C372 35.0294 366.627 29.6561 360 29.6561C353.372 29.6561 348 35.0294 348 41.6559V54H340V41.6559C340 30.611 348.954 21.6562 360 21.6562C371.046 21.6562 379.999 30.611 379.999 41.6559V54H372Z" fill="#607D8B"/>
<path d="M380.001 41.6608V54.0002H374.001V41.6608C373.931 31.8793 366.723 23.6166 357.041 22.2204C358.021 22.0767 359.01 22.0026 360.001 22.0007C370.952 21.9083 379.905 30.7092 380.001 41.6608Z" fill="#37474F"/>
<path d="M382 100H337.999C334.686 100 332 97.314 332 93.9998V57.9995C332 54.6862 334.686 52 337.999 52H382C385.313 52 387.999 54.6862 387.999 57.9995V93.9998C387.999 97.314 385.313 100 382 100ZM337.999 55.9999C336.895 55.9999 336 56.8953 336 57.9995V93.9998C336 95.1049 336.895 96.0002 337.999 96.0002H382C383.104 96.0002 383.999 95.1049 383.999 93.9998V57.9995C383.999 56.8953 383.104 55.9999 382 55.9999H337.999Z" fill="black"/>
<path d="M386 67.9999H376C374.895 67.9999 374 67.1046 374 66.0004C374 64.8954 374.895 64 376 64H386C387.104 64 387.999 64.8954 387.999 66.0004C387.999 67.1046 387.104 67.9999 386 67.9999Z" fill="black"/>
<path d="M386 77.9999H376C374.895 77.9999 374 77.1046 374 75.9995C374 74.8954 374.895 74 376 74H386C387.104 74 387.999 74.8954 387.999 75.9995C387.999 77.1046 387.104 77.9999 386 77.9999Z" fill="black"/>
<path d="M386 89.9999H376C374.895 89.9999 374 89.1046 374 87.9995C374 86.8954 374.895 86 376 86H386C387.104 86 387.999 86.8954 387.999 87.9995C387.999 89.1046 387.104 89.9999 386 89.9999Z" fill="black"/>
<path d="M344 67.9999H334C332.895 67.9999 332 67.1046 332 66.0004C332 64.8954 332.895 64 334 64H344C345.104 64 345.999 64.8954 345.999 66.0004C345.999 67.1046 345.104 67.9999 344 67.9999Z" fill="black"/>
<path d="M344 77.9999H334C332.895 77.9999 332 77.1046 332 75.9995C332 74.8954 332.895 74 334 74H344C345.104 74 345.999 74.8954 345.999 75.9995C345.999 77.1046 345.104 77.9999 344 77.9999Z" fill="black"/>
<path d="M344 89.9999H334C332.895 89.9999 332 89.1046 332 87.9995C332 86.8954 332.895 86 334 86H344C345.104 86 345.999 86.8954 345.999 87.9995C345.999 89.1046 345.104 89.9999 344 89.9999Z" fill="black"/>
<path d="M362.015 90.0012H357.983C355.787 89.992 354.008 88.2141 353.999 86.0168V79.8315C353.974 79.2922 353.756 78.7805 353.386 78.3895C351.606 76.4147 350.84 73.7277 351.309 71.1111C351.982 67.6403 354.672 64.9121 358.134 64.1915C360.777 63.6367 363.529 64.3014 365.627 66.0015C367.66 67.6467 368.841 70.1223 368.842 72.7371C368.815 74.83 368.023 76.8405 366.615 78.3895C366.248 78.7704 366.029 79.2721 366 79.8013V86.0012C366 88.204 364.218 89.992 362.015 90.0012ZM360.015 68.001C359.653 68.002 359.292 68.0386 358.937 68.1109C357.075 68.5128 355.627 69.9768 355.245 71.8435C355.001 73.2516 355.424 74.6936 356.391 75.7455C357.406 76.867 357.978 78.319 357.999 79.8315V86.0168L362.015 86.0012L362 79.8013C362.025 78.2916 362.601 76.8432 363.621 75.729C364.379 74.9105 364.813 73.8439 364.842 72.7288C364.84 71.3162 364.2 69.9786 363.099 69.0914C362.228 68.3801 361.137 67.9946 360.011 68.001H360.015Z" fill="black"/>
<path d="M382 55.9999H370V41.6555C370 36.133 365.523 31.6561 360 31.6561C354.478 31.6561 350 36.133 350 41.6555V55.9999H338V41.6555C338 29.5055 347.85 19.6562 360 19.6562C372.15 19.6562 382 29.5055 382 41.6555V55.9999ZM374 52H378V41.6555C378 31.7147 369.941 23.6562 360 23.6562C350.059 23.6562 342 31.7147 342 41.6555V52H346V41.6555C346 33.9238 352.268 27.6561 360 27.6561C367.732 27.6561 374 33.9238 374 41.6555V52Z" fill="black"/>
<path d="M394 36.0007C392.895 36.0007 392 35.1053 392 34.0002V22.0004C392 20.8954 392.895 20 394 20C395.105 20 396 20.8954 396 22.0004V34.0002C396 35.1053 395.105 36.0007 394 36.0007Z" fill="black"/>
<path d="M386 36.0007C384.895 36.0007 384 35.1053 384 34.0002V22.0004C384 20.8954 384.895 20 386 20C387.105 20 388 20.8954 388 22.0004V34.0002C388 35.1053 387.105 36.0007 386 36.0007Z" fill="black"/>
<path d="M402 36.0007C400.895 36.0007 400 35.1053 400 34.0002V22.0004C400 20.8954 400.895 20 402 20C403.105 20 404 20.8954 404 22.0004V34.0002C404 35.1053 403.105 36.0007 402 36.0007Z" fill="black"/>
<path d="M394 77.9998C392.895 77.9998 392 77.1044 392 75.9993V63.9995C392 62.8954 392.895 62 394 62C395.105 62 396 62.8954 396 63.9995V75.9993C396 77.1044 395.105 77.9998 394 77.9998Z" fill="black"/>
<path d="M406 77.9998C404.895 77.9998 404 77.1044 404 75.9993V63.9995C404 62.8954 404.895 62 406 62C407.105 62 408 62.8954 408 63.9995V75.9993C408 77.1044 407.105 77.9998 406 77.9998Z" fill="black"/>
<path d="M418 77.9998C416.895 77.9998 416 77.1044 416 75.9993V63.9995C416 62.8954 416.895 62 418 62C419.105 62 420 62.8954 420 63.9995V75.9993C420 77.1044 419.105 77.9998 418 77.9998Z" fill="black"/>
<path d="M416 36.0007H412C409.791 36.0007 408 34.2099 408 32.0007V23.9999C408 21.7908 409.791 20 412 20H416C418.209 20 420 21.7908 420 23.9999V32.0007C420 34.2099 418.209 36.0007 416 36.0007ZM412 23.9999V32.0007H416V23.9999H412Z" fill="black"/>
<path d="M418 57.9998C416.895 57.9998 416 57.1044 416 56.0002V44.0004C416 42.8954 416.895 42 418 42C419.105 42 420 42.8954 420 44.0004V56.0002C420 57.1044 419.105 57.9998 418 57.9998Z" fill="black"/>
<path d="M410 57.9998C408.895 57.9998 408 57.1044 408 56.0002V44.0004C408 42.8954 408.895 42 410 42C411.105 42 412 42.8954 412 44.0004V56.0002C412 57.1044 411.105 57.9998 410 57.9998Z" fill="black"/>
<path d="M400 57.9998H396C393.791 57.9998 392 56.209 392 53.9998V45.9999C392 43.7908 393.791 42 396 42H400C402.209 42 404 43.7908 404 45.9999V53.9998C404 56.209 402.209 57.9998 400 57.9998ZM396 45.9999V53.9998H400V45.9999H396Z" fill="black"/>
<path d="M394 100.001C392.895 100.001 392 99.1053 392 98.0002V86.0004C392 84.8954 392.895 84 394 84C395.105 84 396 84.8954 396 86.0004V98.0002C396 99.1053 395.105 100.001 394 100.001Z" fill="black"/>
<path d="M402 100.001C400.895 100.001 400 99.1053 400 98.0002V86.0004C400 84.8954 400.895 84 402 84C403.105 84 404 84.8954 404 86.0004V98.0002C404 99.1053 403.105 100.001 402 100.001Z" fill="black"/>
<path d="M416 100.001H412C409.791 100.001 408 98.2099 408 96.0007V87.9999C408 85.7908 409.791 84 412 84H416C418.209 84 420 85.7908 420 87.9999V96.0007C420 98.2099 418.209 100.001 416 100.001ZM412 87.9999V96.0007H416V87.9999H412Z" fill="black"/>
<path d="M326 36.0007C324.895 36.0007 324 35.1053 324 34.0002V22.0004C324 20.8954 324.895 20 326 20C327.105 20 328 20.8954 328 22.0004V34.0002C328 35.1053 327.105 36.0007 326 36.0007Z" fill="black"/>
<path d="M334 36.0007C332.895 36.0007 332 35.1053 332 34.0002V22.0004C332 20.8954 332.895 20 334 20C335.105 20 336 20.8954 336 22.0004V34.0002C336 35.1053 335.105 36.0007 334 36.0007Z" fill="black"/>
<path d="M318 36.0007C316.895 36.0007 316 35.1053 316 34.0002V22.0004C316 20.8954 316.895 20 318 20C319.105 20 320 20.8954 320 22.0004V34.0002C320 35.1053 319.105 36.0007 318 36.0007Z" fill="black"/>
<path d="M326 77.9998C324.895 77.9998 324 77.1044 324 75.9993V63.9995C324 62.8954 324.895 62 326 62C327.105 62 328 62.8954 328 63.9995V75.9993C328 77.1044 327.105 77.9998 326 77.9998Z" fill="black"/>
<path d="M314 77.9998C312.895 77.9998 312 77.1044 312 75.9993V63.9995C312 62.8954 312.895 62 314 62C315.105 62 316 62.8954 316 63.9995V75.9993C316 77.1044 315.105 77.9998 314 77.9998Z" fill="black"/>
<path d="M302 77.9998C300.895 77.9998 300 77.1044 300 75.9993V63.9995C300 62.8954 300.895 62 302 62C303.105 62 304 62.8954 304 63.9995V75.9993C304 77.1044 303.105 77.9998 302 77.9998Z" fill="black"/>
<path d="M308 36.0007H304C301.791 36.0007 300 34.2099 300 32.0007V23.9999C300 21.7908 301.791 20 304 20H308C310.209 20 312 21.7908 312 23.9999V32.0007C312 34.2099 310.209 36.0007 308 36.0007ZM304 23.9999V32.0007H308V23.9999H304Z" fill="black"/>
<path d="M302 57.9998C300.895 57.9998 300 57.1044 300 56.0002V44.0004C300 42.8954 300.895 42 302 42C303.105 42 304 42.8954 304 44.0004V56.0002C304 57.1044 303.105 57.9998 302 57.9998Z" fill="black"/>
<path d="M310 57.9998C308.895 57.9998 308 57.1044 308 56.0002V44.0004C308 42.8954 308.895 42 310 42C311.105 42 312 42.8954 312 44.0004V56.0002C312 57.1044 311.105 57.9998 310 57.9998Z" fill="black"/>
<path d="M324 57.9998H320C317.791 57.9998 316 56.209 316 53.9998V45.9999C316 43.7908 317.791 42 320 42H324C326.209 42 328 43.7908 328 45.9999V53.9998C328 56.209 326.209 57.9998 324 57.9998ZM320 45.9999V53.9998H324V45.9999H320Z" fill="black"/>
<path d="M326 100.001C324.895 100.001 324 99.1053 324 98.0002V86.0004C324 84.8954 324.895 84 326 84C327.105 84 328 84.8954 328 86.0004V98.0002C328 99.1053 327.105 100.001 326 100.001Z" fill="black"/>
<path d="M318 100.001C316.895 100.001 316 99.1053 316 98.0002V86.0004C316 84.8954 316.895 84 318 84C319.105 84 320 84.8954 320 86.0004V98.0002C320 99.1053 319.105 100.001 318 100.001Z" fill="black"/>
<path d="M308 100.001H304C301.791 100.001 300 98.2099 300 96.0007V87.9999C300 85.7908 301.791 84 304 84H308C310.209 84 312 85.7908 312 87.9999V96.0007C312 98.2099 310.209 100.001 308 100.001ZM304 87.9999V96.0007H308V87.9999H304Z" fill="black"/>
<path d="M416 15.9998C414.895 15.9998 414 15.1044 414 14.0002V2.00043C414 0.895386 414.895 0 416 0C417.105 0 418 0.895386 418 2.00043V14.0002C418 15.1044 417.105 15.9998 416 15.9998Z" fill="black"/>
<path d="M408 15.9998C406.895 15.9998 406 15.1044 406 14.0002V2.00043C406 0.895386 406.895 0 408 0C409.105 0 410 0.895386 410 2.00043V14.0002C410 15.1044 409.105 15.9998 408 15.9998Z" fill="black"/>
<path d="M384 15.9998C382.895 15.9998 382 15.1044 382 14.0002V2.00043C382 0.895386 382.895 0 384 0C385.105 0 386 0.895386 386 2.00043V14.0002C386 15.1044 385.105 15.9998 384 15.9998Z" fill="black"/>
<path d="M384 15.9998C382.895 15.9998 382 15.1044 382 14.0002V2.00043C382 0.895386 382.895 0 384 0C385.105 0 386 0.895386 386 2.00043V14.0002C386 15.1044 385.105 15.9998 384 15.9998Z" fill="black"/>
<path d="M360 15.9998C358.896 15.9998 358 15.1044 358 14.0002V2.00043C358 0.895386 358.896 0 360 0C361.105 0 362.001 0.895386 362.001 2.00043V14.0002C362.001 15.1044 361.105 15.9998 360 15.9998Z" fill="black"/>
<path d="M398 15.9998H394C391.791 15.9998 390 14.209 390 11.9998V3.99994C390 1.79077 391.791 0 394 0H398C400.209 0 402 1.79077 402 3.99994V11.9998C402 14.209 400.209 15.9998 398 15.9998ZM394 3.99994V11.9998H398V3.99994H394Z" fill="black"/>
<path d="M374 15.9998H370C367.791 15.9998 366 14.209 366 11.9998V3.99994C366 1.79077 367.791 0 370 0H374C376.209 0 378 1.79077 378 3.99994V11.9998C378 14.209 376.209 15.9998 374 15.9998ZM370 3.99994V11.9998H374V3.99994H370Z" fill="black"/>
<path d="M360 15.9998C358.896 15.9998 358 15.1044 358 14.0002V2.00043C358 0.895386 358.896 0 360 0C361.105 0 362.001 0.895386 362.001 2.00043V14.0002C362.001 15.1044 361.105 15.9998 360 15.9998Z" fill="black"/>
<path d="M352 15.9998C350.895 15.9998 350 15.1044 350 14.0002V2.00043C350 0.895386 350.895 0 352 0C353.105 0 354 0.895386 354 2.00043V14.0002C354 15.1044 353.105 15.9998 352 15.9998Z" fill="black"/>
<path d="M304 15.9998C302.895 15.9998 302 15.1044 302 14.0002V2.00043C302 0.895386 302.895 0 304 0C305.105 0 306 0.895386 306 2.00043V14.0002C306 15.1044 305.105 15.9998 304 15.9998Z" fill="black"/>
<path d="M304 15.9998C302.895 15.9998 302 15.1044 302 14.0002V2.00043C302 0.895386 302.895 0 304 0C305.105 0 306 0.895386 306 2.00043V14.0002C306 15.1044 305.105 15.9998 304 15.9998Z" fill="black"/>
<path d="M328 15.9998C326.895 15.9998 326 15.1044 326 14.0002V2.00043C326 0.895386 326.895 0 328 0C329.105 0 330 0.895386 330 2.00043V14.0002C330 15.1044 329.105 15.9998 328 15.9998Z" fill="black"/>
<path d="M328 15.9998C326.895 15.9998 326 15.1044 326 14.0002V2.00043C326 0.895386 326.895 0 328 0C329.105 0 330 0.895386 330 2.00043V14.0002C330 15.1044 329.105 15.9998 328 15.9998Z" fill="black"/>
<path d="M342 15.9998H338C335.791 15.9998 334 14.209 334 11.9998V3.99994C334 1.79077 335.791 0 338 0H342C344.209 0 346 1.79077 346 3.99994V11.9998C346 14.209 344.209 15.9998 342 15.9998ZM338 3.99994V11.9998H342V3.99994H338Z" fill="black"/>
<path d="M318 15.9998H314C311.791 15.9998 310 14.209 310 11.9998V3.99994C310 1.79077 311.791 0 314 0H318C320.209 0 322 1.79077 322 3.99994V11.9998C322 14.209 320.209 15.9998 318 15.9998ZM314 3.99994V11.9998H318V3.99994H314Z" fill="black"/>
<path d="M304 120C302.895 120 302 119.104 302 117.999V106C302 104.895 302.895 104 304 104C305.105 104 306 104.895 306 106V117.999C306 119.104 305.105 120 304 120Z" fill="black"/>
<path d="M312 120C310.895 120 310 119.104 310 117.999V106C310 104.895 310.895 104 312 104C313.105 104 314 104.895 314 106V117.999C314 119.104 313.105 120 312 120Z" fill="black"/>
<path d="M336 120C334.895 120 334 119.104 334 117.999V106C334 104.895 334.895 104 336 104C337.105 104 338 104.895 338 106V117.999C338 119.104 337.105 120 336 120Z" fill="black"/>
<path d="M336 120C334.895 120 334 119.104 334 117.999V106C334 104.895 334.895 104 336 104C337.105 104 338 104.895 338 106V117.999C338 119.104 337.105 120 336 120Z" fill="black"/>
<path d="M360 120C358.896 120 358 119.104 358 117.999V106C358 104.895 358.896 104 360 104C361.105 104 362.001 104.895 362.001 106V117.999C362.001 119.104 361.105 120 360 120Z" fill="black"/>
<path d="M326 120H322C319.791 120 318 118.209 318 116V108C318 105.791 319.791 104 322 104H326C328.209 104 330 105.791 330 108V116C330 118.209 328.209 120 326 120ZM322 108V116H326V108H322Z" fill="black"/>
<path d="M350 120H346C343.791 120 342 118.209 342 116V108C342 105.791 343.791 104 346 104H350C352.209 104 354 105.791 354 108V116C354 118.209 352.209 120 350 120ZM346 108V116H350V108H346Z" fill="black"/>
<path d="M360 120C358.896 120 358 119.104 358 117.999V106C358 104.895 358.896 104 360 104C361.105 104 362.001 104.895 362.001 106V117.999C362.001 119.104 361.105 120 360 120Z" fill="black"/>
<path d="M368 120C366.895 120 366 119.104 366 117.999V106C366 104.895 366.895 104 368 104C369.105 104 370 104.895 370 106V117.999C370 119.104 369.105 120 368 120Z" fill="black"/>
<path d="M416 120C414.895 120 414 119.104 414 117.999V106C414 104.895 414.895 104 416 104C417.105 104 418 104.895 418 106V117.999C418 119.104 417.105 120 416 120Z" fill="black"/>
<path d="M416 120C414.895 120 414 119.104 414 117.999V106C414 104.895 414.895 104 416 104C417.105 104 418 104.895 418 106V117.999C418 119.104 417.105 120 416 120Z" fill="black"/>
<path d="M392 120C390.895 120 390 119.104 390 117.999V106C390 104.895 390.895 104 392 104C393.105 104 394 104.895 394 106V117.999C394 119.104 393.105 120 392 120Z" fill="black"/>
<path d="M392 120C390.895 120 390 119.104 390 117.999V106C390 104.895 390.895 104 392 104C393.105 104 394 104.895 394 106V117.999C394 119.104 393.105 120 392 120Z" fill="black"/>
<path d="M382 120H378C375.791 120 374 118.209 374 116V108C374 105.791 375.791 104 378 104H382C384.209 104 386 105.791 386 108V116C386 118.209 384.209 120 382 120ZM378 108V116H382V108H378Z" fill="black"/>
<path d="M406 120H402C399.791 120 398 118.209 398 116V108C398 105.791 399.791 104 402 104H406C408.209 104 410 105.791 410 108V116C410 118.209 408.209 120 406 120ZM402 108V116H406V108H402Z" fill="black"/>
</g>
<g clip-path="url(#clip1)">
<path d="M98.0037 2.02344L88.0055 6.02256L82.0072 2.02344L70.0099 6.02256L60.0116 2.02344L50.0134 6.02256L36.016 2.02344L30.0178 6.02256L22.0195 2.02344V54.0129H98.0037V2.02344Z" fill="#FFEB3A"/>
<path d="M98.005 2.02344V54.0129H92.0059V4.42254L98.005 2.02344Z" fill="#FEC108"/>
<path d="M32.0167 46.0156H44.015C45.1189 46.0156 46.0141 46.9108 46.0141 48.0147V54.0139H30.0176V48.0147C30.0176 46.9108 30.9128 46.0156 32.0167 46.0156Z" fill="#E91E63"/>
<path d="M4.02345 54.0156H116.001C117.105 54.0156 118 54.9108 118 56.0147V64.0139C118 65.1178 117.105 66.013 116.001 66.013H4.02345C2.91864 66.013 2.02344 65.1178 2.02344 64.0139V56.0147C2.02344 54.9108 2.91864 54.0156 4.02345 54.0156Z" fill="#1566C0"/>
<path d="M4.02345 54.0156H110.001C111.106 54.0156 112.001 54.9108 112.001 56.0147V64.0139C112.001 65.1178 111.106 66.013 110.001 66.013H4.02345C2.91864 66.013 2.02344 65.1178 2.02344 64.0139V56.0147C2.02344 54.9108 2.91864 54.0156 4.02345 54.0156Z" fill="#2296F3"/>
<path d="M14.0215 54.0156H106.002V66.013H14.0215V54.0156Z" fill="#3F51B5"/>
<path d="M116 68.0091H4.02256C1.81384 68.0091 0.0234375 66.2187 0.0234375 64.01V56.0108C0.0234375 53.8021 1.81384 52.0117 4.02256 52.0117H116C118.208 52.0117 119.999 53.8021 119.999 56.0108V64.01C119.999 66.2187 118.208 68.0091 116 68.0091ZM4.02256 56.0108V64.01H116V56.0108H4.02256Z" fill="black"/>
<path d="M14.0215 68.0091C12.9167 68.0091 12.0215 67.1139 12.0215 66.0091V54.0117C12.0215 52.9069 12.9167 52.0117 14.0215 52.0117C15.1254 52.0117 16.0206 52.9069 16.0206 54.0117V66.0091C16.0206 67.1139 15.1254 68.0091 14.0215 68.0091Z" fill="black"/>
<path d="M106.003 68.0091C104.899 68.0091 104.004 67.1139 104.004 66.0091V54.0117C104.004 52.9069 104.899 52.0117 106.003 52.0117C107.108 52.0117 108.003 52.9069 108.003 54.0117V66.0091C108.003 67.1139 107.108 68.0091 106.003 68.0091Z" fill="black"/>
<path d="M98.0037 56.0126H22.0195C20.9147 56.0126 20.0195 55.1174 20.0195 54.0135V2.02403C20.0195 1.33111 20.3783 0.686714 20.9678 0.322409C21.5573 -0.0418959 22.2932 -0.0757636 22.9129 0.234536L29.8741 3.71557L34.9066 0.359938C35.3954 0.0349924 36.0023 -0.0592874 36.5661 0.102728L49.9054 3.91145L59.2675 0.166801C59.7462 -0.0217585 60.2771 -0.0217585 60.7558 0.166801L70.0712 3.89589L81.3747 0.126527C81.9606 -0.0684409 82.6031 0.0176011 83.1166 0.359938L88.2398 3.77598L97.2623 0.175955C97.8765 -0.0693562 98.5721 0.00570165 99.1213 0.375499C99.6696 0.745296 100 1.36223 100.004 2.02403V54.0135C100.004 55.1174 99.1085 56.0126 98.0037 56.0126ZM24.0186 52.0135H96.0037V4.97783L88.7496 7.88128C88.1363 8.12385 87.4434 8.04879 86.8961 7.68082L81.7107 4.22359L70.6415 7.92064C70.1929 8.07076 69.7051 8.05611 69.2657 7.88128L60.0116 4.17782L50.7575 7.88128C50.3456 8.04513 49.8898 8.06801 49.4633 7.94444L36.3565 4.19979L31.1272 7.68723C30.5304 8.07991 29.7697 8.12842 29.1281 7.81263L24.0186 5.25975V52.0135Z" fill="black"/>
<path d="M98.0037 56.0126H22.0195C20.9147 56.0126 20.0195 55.1174 20.0195 54.0135V2.02403C20.0195 1.33111 20.3783 0.686714 20.9678 0.322409C21.5573 -0.0418959 22.2932 -0.0757636 22.9129 0.234537L29.8741 3.71557L34.9066 0.359938C35.3954 0.0349924 36.0023 -0.0592874 36.5661 0.102728L49.9054 3.91146L59.2675 0.166801C59.7462 -0.0217585 60.2771 -0.0217585 60.7558 0.166801L70.0712 3.89589L81.3747 0.126527C81.9606 -0.0684409 82.6031 0.0176011 83.1166 0.359938L88.2398 3.77599L97.2623 0.175955C97.8765 -0.0693562 98.5721 0.00570165 99.1213 0.375499C99.6696 0.745296 100 1.36223 100.004 2.02403V54.0135C100.004 55.1174 99.1085 56.0126 98.0037 56.0126ZM24.0186 52.0135H96.0037V4.97783L88.7496 7.88128C88.1363 8.12385 87.4434 8.04879 86.8961 7.68082L81.7107 4.22359L70.6415 7.92064C70.1929 8.07076 69.7051 8.05611 69.2657 7.88128L60.0116 4.17782L50.7575 7.88128C50.3456 8.04513 49.8898 8.06801 49.4633 7.94444L36.3565 4.19979L31.1272 7.68723C30.5304 8.07991 29.7697 8.12843 29.1281 7.81263L24.0186 5.25975V52.0135Z" fill="black"/>
<path d="M56.0143 16.0226H30.0195C28.9147 16.0226 28.0195 15.1274 28.0195 14.0225C28.0195 12.9186 28.9147 12.0234 30.0195 12.0234H56.0143C57.1182 12.0234 58.0134 12.9186 58.0134 14.0225C58.0134 15.1274 57.1182 16.0226 56.0143 16.0226Z" fill="black"/>
<path d="M56.0143 24.0186H30.0195C28.9147 24.0186 28.0195 23.1234 28.0195 22.0186C28.0195 20.9147 28.9147 20.0195 30.0195 20.0195H56.0143C57.1182 20.0195 58.0134 20.9147 58.0134 22.0186C58.0134 23.1234 57.1182 24.0186 56.0143 24.0186Z" fill="black"/>
<path d="M90.0065 16.0226H64.0117C62.9069 16.0226 62.0117 15.1274 62.0117 14.0225C62.0117 12.9186 62.9069 12.0234 64.0117 12.0234H90.0065C91.1104 12.0234 92.0056 12.9186 92.0056 14.0225C92.0056 15.1274 91.1104 16.0226 90.0065 16.0226Z" fill="black"/>
<path d="M90.0065 24.0186H64.0117C62.9069 24.0186 62.0117 23.1234 62.0117 22.0186C62.0117 20.9147 62.9069 20.0195 64.0117 20.0195H90.0065C91.1104 20.0195 92.0056 20.9147 92.0056 22.0186C92.0056 23.1234 91.1104 24.0186 90.0065 24.0186Z" fill="black"/>
<path d="M90.0072 32.0187H30.0195C28.9147 32.0187 28.0195 31.1235 28.0195 30.0186C28.0195 28.9147 28.9147 28.0195 30.0195 28.0195H90.0072C91.1111 28.0195 92.0063 28.9147 92.0063 30.0186C92.0063 31.1235 91.1111 32.0187 90.0072 32.0187Z" fill="black"/>
<path d="M90.0072 40.0187H30.0195C28.9147 40.0187 28.0195 39.1235 28.0195 38.0196C28.0195 36.9147 28.9147 36.0195 30.0195 36.0195H90.0072C91.1111 36.0195 92.0063 36.9147 92.0063 38.0196C92.0063 39.1235 91.1111 40.0187 90.0072 40.0187Z" fill="black"/>
<path d="M90.0058 48.0147H54.0128C52.9089 48.0147 52.0137 47.1195 52.0137 46.0156C52.0137 44.9108 52.9089 44.0156 54.0128 44.0156H90.0058C91.1097 44.0156 92.0049 44.9108 92.0049 46.0156C92.0049 47.1195 91.1097 48.0147 90.0058 48.0147Z" fill="black"/>
<path d="M46.016 56.013H30.0195C28.9147 56.013 28.0195 55.1178 28.0195 54.0139V48.0147C28.0195 45.806 29.8099 44.0156 32.0187 44.0156H44.0169C46.2256 44.0156 48.016 45.806 48.016 48.0147V54.0139C48.016 55.1178 47.1208 56.013 46.016 56.013ZM32.0187 52.0139H44.0169V48.0147H32.0187V52.0139Z" fill="black"/>
<path d="M94.006 100.004H90.0069C87.7982 100.004 86.0078 98.2139 86.0078 96.0052V88.0069C86.0078 85.7982 87.7982 84.0078 90.0069 84.0078H94.006C96.2148 84.0078 98.0052 85.7982 98.0052 88.0069V96.0052C98.0052 98.2139 96.2148 100.004 94.006 100.004ZM90.0069 88.0069V96.0052H94.006V88.0069H90.0069Z" fill="black"/>
<path d="M56.0137 100.004C54.9089 100.004 54.0137 99.1091 54.0137 98.0052V86.0069C54.0137 84.903 54.9089 84.0078 56.0137 84.0078C57.1176 84.0078 58.0128 84.903 58.0128 86.0069V98.0052C58.0128 99.1091 57.1176 100.004 56.0137 100.004Z" fill="black"/>
<path d="M48.0156 100.004C46.9108 100.004 46.0156 99.1091 46.0156 98.0052V86.0069C46.0156 84.903 46.9108 84.0078 48.0156 84.0078C49.1195 84.0078 50.0148 84.903 50.0148 86.0069V98.0052C50.0148 99.1091 49.1195 100.004 48.0156 100.004Z" fill="black"/>
<path d="M64.0117 100.004C62.9069 100.004 62.0117 99.1091 62.0117 98.0052V86.0069C62.0117 84.903 62.9069 84.0078 64.0117 84.0078C65.1156 84.0078 66.0108 84.903 66.0108 86.0069V98.0052C66.0108 99.1091 65.1156 100.004 64.0117 100.004Z" fill="black"/>
<path d="M24.0186 100.004C22.9147 100.004 22.0195 99.1091 22.0195 98.0052V86.0069C22.0195 84.903 22.9147 84.0078 24.0186 84.0078C25.1234 84.0078 26.0186 84.903 26.0186 86.0069V98.0052C26.0186 99.1091 25.1234 100.004 24.0186 100.004Z" fill="black"/>
<path d="M24.0186 100.004C22.9147 100.004 22.0195 99.1091 22.0195 98.0052V86.0069C22.0195 84.903 22.9147 84.0078 24.0186 84.0078C25.1234 84.0078 26.0186 84.903 26.0186 86.0069V98.0052C26.0186 99.1091 25.1234 100.004 24.0186 100.004Z" fill="black"/>
<path d="M38.0158 100.004H34.0167C31.808 100.004 30.0176 98.2139 30.0176 96.0052V88.0069C30.0176 85.7982 31.808 84.0078 34.0167 84.0078H38.0158C40.2245 84.0078 42.0149 85.7982 42.0149 88.0069V96.0052C42.0149 98.2139 40.2245 100.004 38.0158 100.004ZM34.0167 88.0069V96.0052H38.0158V88.0069H34.0167Z" fill="black"/>
<path d="M78.008 100.004H74.0089C71.8002 100.004 70.0098 98.2139 70.0098 96.0052V88.0069C70.0098 85.7982 71.8002 84.0078 74.0089 84.0078H78.008C80.2167 84.0078 82.0071 85.7982 82.0071 88.0069V96.0052C82.0071 98.2139 80.2167 100.004 78.008 100.004ZM74.0089 88.0069V96.0052H78.008V88.0069H74.0089Z" fill="black"/>
<path d="M30.0178 80.0082H26.0186C23.8099 80.0082 22.0195 78.2178 22.0195 76.0091V66.0108C22.0195 64.9069 22.9147 64.0117 24.0186 64.0117C25.1234 64.0117 26.0186 64.9069 26.0186 66.0108V76.0091H30.0178V66.0108C30.0178 64.9069 30.913 64.0117 32.0169 64.0117C33.1217 64.0117 34.0169 64.9069 34.0169 66.0108V76.0091C34.0169 78.2178 32.2265 80.0082 30.0178 80.0082Z" fill="black"/>
<path d="M64.0117 80.0082C62.9069 80.0082 62.0117 79.113 62.0117 78.0082V66.0108C62.0117 64.9069 62.9069 64.0117 64.0117 64.0117C65.1156 64.0117 66.0108 64.9069 66.0108 66.0108V78.0082C66.0108 79.113 65.1156 80.0082 64.0117 80.0082Z" fill="black"/>
<path d="M72.0089 80.0082C70.905 80.0082 70.0098 79.113 70.0098 78.0082V66.0108C70.0098 64.9069 70.905 64.0117 72.0089 64.0117C73.1137 64.0117 74.0089 64.9069 74.0089 66.0108V78.0082C74.0089 79.113 73.1137 80.0082 72.0089 80.0082Z" fill="black"/>
<path d="M56.0137 80.0082C54.9089 80.0082 54.0137 79.113 54.0137 78.0082V66.0108C54.0137 64.9069 54.9089 64.0117 56.0137 64.0117C57.1176 64.0117 58.0128 64.9069 58.0128 66.0108V78.0082C58.0128 79.113 57.1176 80.0082 56.0137 80.0082Z" fill="black"/>
<path d="M96.005 80.0082C94.9011 80.0082 94.0059 79.113 94.0059 78.0082V66.0108C94.0059 64.9069 94.9011 64.0117 96.005 64.0117C97.1098 64.0117 98.005 64.9069 98.005 66.0108V78.0082C98.005 79.113 97.1098 80.0082 96.005 80.0082Z" fill="black"/>
<path d="M96.005 80.0082C94.9011 80.0082 94.0059 79.113 94.0059 78.0082V66.0108C94.0059 64.9069 94.9011 64.0117 96.005 64.0117C97.1098 64.0117 98.005 64.9069 98.005 66.0108V78.0082C98.005 79.113 97.1098 80.0082 96.005 80.0082Z" fill="black"/>
<path d="M86.006 80.0082H82.0069C79.7982 80.0082 78.0078 78.2178 78.0078 76.0091V66.0108C78.0078 64.9069 78.903 64.0117 80.0069 64.0117C81.1117 64.0117 82.0069 64.9069 82.0069 66.0108V76.0091H86.006V66.0108C86.006 64.9069 86.9012 64.0117 88.0051 64.0117C89.11 64.0117 90.0052 64.9069 90.0052 66.0108V76.0091C90.0052 78.2178 88.2148 80.0082 86.006 80.0082Z" fill="black"/>
<path d="M46.0139 80.0082H42.0147C39.806 80.0082 38.0156 78.2178 38.0156 76.0091V66.0108C38.0156 64.9069 38.9108 64.0117 40.0156 64.0117C41.1195 64.0117 42.0147 64.9069 42.0147 66.0108V76.0091H46.0139V66.0108C46.0139 64.9069 46.9091 64.0117 48.0139 64.0117C49.1178 64.0117 50.013 64.9069 50.013 66.0108V76.0091C50.013 78.2178 48.2226 80.0082 46.0139 80.0082Z" fill="black"/>
<path d="M30.0178 120H26.0186C23.8099 120 22.0195 118.21 22.0195 116.001V108.003C22.0195 105.794 23.8099 104.004 26.0186 104.004H30.0178C32.2265 104.004 34.0169 105.794 34.0169 108.003V116.001C34.0169 118.21 32.2265 120 30.0178 120ZM26.0186 108.003V116.001H30.0178V108.003H26.0186Z" fill="black"/>
<path d="M72.0089 120C70.905 120 70.0098 119.105 70.0098 118.001V106.004C70.0098 104.899 70.905 104.004 72.0089 104.004C73.1137 104.004 74.0089 104.899 74.0089 106.004V118.001C74.0089 119.105 73.1137 120 72.0089 120Z" fill="black"/>
<path d="M48.0156 120C46.9108 120 46.0156 119.105 46.0156 118.001V106.004C46.0156 104.899 46.9108 104.004 48.0156 104.004C49.1195 104.004 50.0148 104.899 50.0148 106.004V118.001C50.0148 119.105 49.1195 120 48.0156 120Z" fill="black"/>
<path d="M40.0156 120C38.9108 120 38.0156 119.105 38.0156 118.001V106.004C38.0156 104.899 38.9108 104.004 40.0156 104.004C41.1195 104.004 42.0147 104.899 42.0147 106.004V118.001C42.0147 119.105 41.1195 120 40.0156 120Z" fill="black"/>
<path d="M96.005 120C94.9011 120 94.0059 119.105 94.0059 118.001V106.004C94.0059 104.899 94.9011 104.004 96.005 104.004C97.1098 104.004 98.005 104.899 98.005 106.004V118.001C98.005 119.105 97.1098 120 96.005 120Z" fill="black"/>
<path d="M96.005 120C94.9011 120 94.0059 119.105 94.0059 118.001V106.004C94.0059 104.899 94.9011 104.004 96.005 104.004C97.1098 104.004 98.005 104.899 98.005 106.004V118.001C98.005 119.105 97.1098 120 96.005 120Z" fill="black"/>
<path d="M86.006 120H82.0069C79.7982 120 78.0078 118.21 78.0078 116.001V108.003C78.0078 105.794 79.7982 104.004 82.0069 104.004H86.006C88.2148 104.004 90.0052 105.794 90.0052 108.003V116.001C90.0052 118.21 88.2148 120 86.006 120ZM82.0069 108.003V116.001H86.006V108.003H82.0069Z" fill="black"/>
<path d="M62.0119 120H58.0128C55.8041 120 54.0137 118.21 54.0137 116.001V108.003C54.0137 105.794 55.8041 104.004 58.0128 104.004H62.0119C64.2206 104.004 66.011 105.794 66.011 108.003V116.001C66.011 118.21 64.2206 120 62.0119 120ZM58.0128 108.003V116.001H62.0119V108.003H58.0128Z" fill="black"/>
<path d="M112.002 118C110.897 118 110.002 117.105 110.002 116V104.003C110.002 102.899 110.897 102.004 112.002 102.004C113.106 102.004 114.001 102.899 114.001 104.003V116C114.001 117.105 113.106 118 112.002 118Z" fill="black"/>
<path d="M112.001 120C111.47 120 110.962 119.79 110.587 119.414L104.589 113.416C103.831 112.632 103.842 111.384 104.613 110.613C105.384 109.842 106.631 109.831 107.416 110.589L112.001 115.174L116.586 110.589C117.371 109.831 118.618 109.842 119.389 110.613C120.161 111.384 120.171 112.632 119.414 113.416L113.414 119.414C113.04 119.79 112.531 120 112.001 120Z" fill="black"/>
<path d="M112.002 98.007C110.897 98.007 110.002 97.1118 110.002 96.007V92.0078C110.002 90.9039 110.897 90.0078 112.002 90.0078C113.106 90.0078 114.001 90.9039 114.001 92.0078V96.007C114.001 97.1118 113.106 98.007 112.002 98.007Z" fill="black"/>
<path d="M112.002 86.006C110.897 86.006 110.002 85.1108 110.002 84.0069V80.0078C110.002 78.903 110.897 78.0078 112.002 78.0078C113.106 78.0078 114.001 78.903 114.001 80.0078V84.0069C114.001 85.1108 113.106 86.006 112.002 86.006Z" fill="black"/>
<path d="M8.02345 118C6.91956 118 6.02344 117.105 6.02344 116V104.003C6.02344 102.899 6.91956 102.004 8.02345 102.004C9.12827 102.004 10.0235 102.899 10.0235 104.003V116C10.0235 117.105 9.12827 118 8.02345 118Z" fill="black"/>
<path d="M8.02319 119.999C7.49321 119.999 6.98428 119.788 6.6099 119.413L0.610768 113.415C0.0908551 112.912 -0.117842 112.169 0.0652256 111.47C0.248294 110.771 0.794751 110.225 1.49316 110.042C2.19247 109.859 2.93573 110.067 3.43825 110.587L8.02319 115.172L12.6081 110.587C13.3926 109.829 14.6402 109.84 15.4109 110.611C16.1825 111.383 16.1935 112.63 15.4356 113.415L9.43647 119.413C9.0621 119.788 8.55317 119.999 8.02319 119.999Z" fill="black"/>
<path d="M8.02345 98.007C6.91956 98.007 6.02344 97.1118 6.02344 96.007V92.0078C6.02344 90.9039 6.91956 90.0078 8.02345 90.0078C9.12827 90.0078 10.0235 90.9039 10.0235 92.0078V96.007C10.0235 97.1118 9.12827 98.007 8.02345 98.007Z" fill="black"/>
<path d="M8.02345 86.006C6.91956 86.006 6.02344 85.1108 6.02344 84.0069V80.0078C6.02344 78.903 6.91956 78.0078 8.02345 78.0078C9.12827 78.0078 10.0235 78.903 10.0235 80.0078V84.0069C10.0235 85.1108 9.12827 86.006 8.02345 86.006Z" fill="black"/>
</g>
<path d="M210 121.129C175.215 121.129 140 127.541 140 139.795V163.129C140 175.384 175.215 181.796 210 181.796C244.785 181.796 280 175.384 280 163.129V139.666C280 139.629 279.981 139.598 279.979 139.56C279.526 127.461 244.56 121.129 210 121.129ZM275.333 163.129C275.333 168.976 250.478 177.129 210 177.129C169.522 177.129 144.667 168.976 144.667 163.129V146.983C155.358 154.545 182.809 158.463 210 158.463C237.191 158.463 264.642 154.545 275.333 146.983V163.129ZM210 153.796C169.522 153.796 144.667 145.643 144.667 139.795C144.667 133.948 169.522 125.796 210 125.796C250.478 125.796 275.333 133.948 275.333 139.795C275.333 145.643 250.478 153.796 210 153.796Z" fill="black"/>
<path d="M182 130.461C178.136 130.465 175.004 133.597 175 137.461V142.128C175 145.993 178.134 149.127 182 149.127C185.866 149.127 189 145.993 189 142.128V137.461C188.996 133.597 185.864 130.465 182 130.461ZM184.333 142.128C184.333 143.416 183.289 144.461 182 144.461C180.711 144.461 179.667 143.416 179.667 142.128V137.461C179.667 136.172 180.711 135.128 182 135.128C183.289 135.128 184.333 136.172 184.333 137.461V142.128Z" fill="black"/>
<path d="M198.333 118.792C202.198 118.788 205.329 115.656 205.334 111.792V107.125C205.334 103.259 202.2 100.125 198.333 100.125C194.468 100.125 191.334 103.259 191.334 107.125V111.792C191.338 115.656 194.47 118.788 198.333 118.792ZM196.001 107.125C196.001 105.836 197.045 104.792 198.333 104.792C199.623 104.792 200.667 105.836 200.667 107.125V111.792C200.667 113.08 199.623 114.125 198.333 114.125C197.045 114.125 196.001 113.08 196.001 111.792V107.125Z" fill="black"/>
<path d="M189 65.1269V60.4603C189 56.5948 185.866 53.4609 182 53.4609C178.134 53.4609 175 56.5948 175 60.4603V65.1269C175 68.9935 178.134 72.1273 182 72.1273C185.866 72.1273 189 68.9935 189 65.1269ZM184.333 65.1269C184.333 66.4161 183.289 67.4607 182 67.4607C180.711 67.4607 179.667 66.4161 179.667 65.1269V60.4603C179.667 59.1721 180.711 58.1275 182 58.1275C183.289 58.1275 184.333 59.1721 184.333 60.4603V65.1269Z" fill="black"/>
<path d="M245 65.1269V60.4603C245 56.5948 241.866 53.4609 237.999 53.4609C234.134 53.4609 231 56.5948 231 60.4603V65.1269C231 68.9935 234.134 72.1273 237.999 72.1273C241.866 72.1273 245 68.9935 245 65.1269ZM240.333 65.1269C240.333 66.4161 239.289 67.4607 237.999 67.4607C236.711 67.4607 235.667 66.4161 235.667 65.1269V60.4603C235.667 59.1721 236.711 58.1275 237.999 58.1275C239.289 58.1275 240.333 59.1721 240.333 60.4603V65.1269Z" fill="black"/>
<path d="M217.001 58.128V53.4614C217.001 49.5948 213.866 46.4609 210 46.4609C206.135 46.4609 203 49.5948 203 53.4614V58.128C203 61.9935 206.135 65.1273 210 65.1273C213.866 65.1273 217.001 61.9935 217.001 58.128ZM207.667 58.128V53.4614C207.667 52.1722 208.712 51.1275 210 51.1275C211.289 51.1275 212.334 52.1722 212.334 53.4614V58.128C212.334 59.4161 211.289 60.4607 210 60.4607C208.712 60.4607 207.667 59.4161 207.667 58.128Z" fill="black"/>
<path d="M221.666 118.792C225.53 118.788 228.662 115.656 228.666 111.792V107.125C228.666 103.259 225.532 100.125 221.666 100.125C217.8 100.125 214.666 103.259 214.666 107.125V111.792C214.67 115.656 217.802 118.788 221.666 118.792ZM219.333 107.125C219.333 105.836 220.377 104.792 221.666 104.792C222.955 104.792 223.999 105.836 223.999 107.125V111.792C223.999 113.08 222.955 114.125 221.666 114.125C220.377 114.125 219.333 113.08 219.333 111.792V107.125Z" fill="black"/>
<path d="M210 130.461C206.136 130.465 203.004 133.597 203 137.461V142.128C203 145.993 206.135 149.127 210 149.127C213.866 149.127 217.001 145.993 217.001 142.128V137.461C216.997 133.597 213.865 130.465 210 130.461ZM212.334 142.128C212.334 143.416 211.289 144.461 210 144.461C208.712 144.461 207.667 143.416 207.667 142.128V137.461C207.667 136.172 208.712 135.128 210 135.128C211.289 135.128 212.334 136.172 212.334 137.461V142.128Z" fill="black"/>
<path d="M237.999 130.461C234.136 130.465 231.004 133.597 231 137.461V142.128C231 145.993 234.134 149.127 237.999 149.127C241.866 149.127 245 145.993 245 142.128V137.461C244.996 133.597 241.864 130.465 237.999 130.461ZM240.333 142.128C240.333 143.416 239.289 144.461 237.999 144.461C236.711 144.461 235.667 143.416 235.667 142.128V137.461C235.667 136.172 236.711 135.128 237.999 135.128C239.289 135.128 240.333 136.172 240.333 137.461V142.128Z" fill="black"/>
<path d="M198.332 144.46V132.794C198.332 131.85 197.763 131 196.892 130.639C196.02 130.278 195.016 130.477 194.349 131.144L192.016 133.478C191.348 134.145 191.149 135.148 191.51 136.02C191.872 136.891 192.722 137.461 193.665 137.461V144.46C192.377 144.46 191.332 145.505 191.332 146.794C191.332 148.082 192.377 149.127 193.665 149.127H198.332C199.621 149.127 200.665 148.082 200.665 146.794C200.665 145.505 199.621 144.46 198.332 144.46Z" fill="black"/>
<path d="M226.332 144.46V132.794C226.332 131.85 225.763 131 224.892 130.639C224.02 130.278 223.016 130.477 222.349 131.144L220.016 133.478C219.349 134.145 219.149 135.148 219.51 136.02C219.871 136.891 220.722 137.461 221.666 137.461V144.46C220.377 144.46 219.332 145.505 219.332 146.794C219.332 148.082 220.377 149.127 221.666 149.127H226.332C227.621 149.127 228.665 148.082 228.665 146.794C228.665 145.505 227.621 144.46 226.332 144.46Z" fill="black"/>
<path d="M205.334 93.1299C205.334 94.4181 206.379 95.4627 207.667 95.4627H212.334C213.623 95.4627 214.667 94.4181 214.667 93.1299C214.667 91.8407 213.623 90.7961 212.334 90.7961V79.1291C212.333 78.1859 211.765 77.3357 210.894 76.9747C210.022 76.6137 209.018 76.8123 208.351 77.4799L206.018 79.8138C205.35 80.4803 205.151 81.4843 205.512 82.3559C205.873 83.2274 206.724 83.7957 207.667 83.7968V90.7961C206.379 90.7961 205.334 91.8407 205.334 93.1299Z" fill="black"/>
<path d="M189 86.1297C189 87.4189 190.045 88.4635 191.334 88.4635H196C197.289 88.4635 198.333 87.4189 198.333 86.1297C198.333 84.8416 197.289 83.797 196 83.797V72.1299C196 71.1857 195.431 70.3355 194.56 69.9745C193.688 69.6134 192.685 69.8132 192.017 70.4797L189.684 72.8135C189.017 73.4811 188.817 74.4841 189.178 75.3556C189.539 76.2283 190.39 76.7965 191.334 76.7965V83.797C190.045 83.797 189 84.8416 189 86.1297Z" fill="black"/>
<path d="M230.999 86.1297C230.999 84.8416 229.955 83.797 228.666 83.797V72.1299C228.666 71.1857 228.097 70.3355 227.226 69.9745C226.353 69.6134 225.35 69.8132 224.683 70.4797L222.35 72.8135C221.682 73.4811 221.483 74.4841 221.844 75.3556C222.205 76.2283 223.056 76.7965 223.999 76.7965V83.797C222.711 83.797 221.666 84.8416 221.666 86.1297C221.666 87.4189 222.711 88.4635 223.999 88.4635H228.666C229.955 88.4635 230.999 87.4189 230.999 86.1297Z" fill="black"/>
<path d="M177.334 107.126C177.334 108.414 178.379 109.459 179.667 109.459H184.334C185.623 109.459 186.667 108.414 186.667 107.126C186.667 105.837 185.623 104.792 184.334 104.792V93.126C184.334 92.1818 183.765 91.3316 182.894 90.9706C182.021 90.6095 181.018 90.8093 180.351 91.4758L178.018 93.8096C177.35 94.4761 177.151 95.4801 177.512 96.3517C177.873 97.2233 178.724 97.7926 179.667 97.7926V104.792C178.379 104.792 177.334 105.837 177.334 107.126Z" fill="black"/>
<path d="M233.332 107.126C233.332 108.414 234.377 109.459 235.666 109.459H240.332C241.621 109.459 242.665 108.414 242.665 107.126C242.665 105.837 241.621 104.792 240.332 104.792V93.126C240.332 92.1818 239.764 91.3316 238.892 90.9706C238.02 90.6095 237.017 90.8093 236.349 91.4758L234.016 93.8096C233.349 94.4761 233.149 95.4801 233.51 96.3517C233.871 97.2233 234.722 97.7926 235.666 97.7926V104.792C234.377 104.792 233.332 105.837 233.332 107.126Z" fill="black"/>
<path d="M151.666 153.793C150.377 153.793 149.332 154.838 149.332 156.126V163.126C149.332 164.414 150.377 165.459 151.666 165.459C152.954 165.459 153.999 164.414 153.999 163.126V156.126C153.999 154.838 152.954 153.793 151.666 153.793Z" fill="black"/>
<path d="M268.333 165.459C269.622 165.459 270.667 164.414 270.667 163.126V156.126C270.667 154.838 269.622 153.793 268.333 153.793C267.045 153.793 266 154.838 266 156.126V163.126C266 164.414 267.045 165.459 268.333 165.459Z" fill="black"/>
<defs>
<clipPath id="clip0">
<rect width="120" height="120" fill="white" transform="translate(300)"/>
</clipPath>
<clipPath id="clip1">
<rect width="120" height="120" fill="white"/>
</clipPath>
</defs>
</svg>
