<?xml version="1.0" encoding="iso-8859-1"?>
<!-- Generator: Adobe Illustrator 21.0.0, SVG Export Plug-In . SVG Version: 6.00 Build 0)  -->
<svg xmlns="http://www.w3.org/2000/svg" xmlns:xlink="http://www.w3.org/1999/xlink" version="1.1" id="Capa_1" x="0px" y="0px" viewBox="0 0 512 512" style="enable-background:new 0 0 512 512;" xml:space="preserve" width="512" height="512">
<g>
	<path style="fill:#4FB1F5;" d="M469,70H43C23.394,70,7.5,85.862,7.5,105.429v301.143C7.5,426.138,23.394,442,43,442h426   c19.606,0,35.5-15.862,35.5-35.429V105.429C504.5,85.862,488.606,70,469,70z"/>
	<path style="fill:#46A4E6;" d="M469,70h-30c19.606,0,35.5,15.862,35.5,35.429v301.143C474.5,426.138,458.606,442,439,442h30   c19.606,0,35.5-15.862,35.5-35.429V105.429C504.5,85.862,488.606,70,469,70z"/>
	<path style="fill:#E62753;" d="M42.928,70C23.362,70,7.5,85.862,7.5,105.429v0c0,19.567,15.862,35.429,35.428,35.429h18.535V70   H42.928z"/>
	<path style="fill:#FFD659;" d="M469,140.857H96.25H43c-19.606,0-35.5-15.862-35.5-35.429v301.143C7.5,426.138,23.394,442,43,442   h426c19.606,0,35.5-15.862,35.5-35.429V176.286C504.5,156.719,488.606,140.857,469,140.857z"/>
	<g>
		<path style="fill:#FFBD54;" d="M469,140.857h-30c19.606,0,35.5,15.862,35.5,35.429v230.286C474.5,426.138,458.606,442,439,442h30    c19.606,0,35.5-15.862,35.5-35.429V176.286C504.5,156.719,488.606,140.857,469,140.857z"/>
	</g>
	<path style="fill:#685C79;" d="M333.282,363.288H201.268c-8.833,0-15.993-7.16-15.993-15.993V215.281   c0-8.833,7.16-15.993,15.993-15.993h132.014c8.833,0,15.993,7.16,15.993,15.993v132.014   C349.275,356.128,342.115,363.288,333.282,363.288z"/>
	<path style="fill:#594F69;" d="M333.282,199.288h-30c8.833,0,15.993,7.16,15.993,15.993v132.014c0,8.833-7.16,15.993-15.993,15.993   h30c8.833,0,15.993-7.16,15.993-15.993V215.281C349.275,206.448,342.115,199.288,333.282,199.288z"/>
	<path style="fill:#FF2C5C;" d="M215.275,329.288v-96c0-2.209,1.791-4,4-4h96c2.209,0,4,1.791,4,4v96c0,2.209-1.791,4-4,4h-96   C217.066,333.288,215.275,331.497,215.275,329.288z"/>
	<g>
		<circle style="fill:#FF2C5C;" cx="242.275" cy="97.375" r="15"/>
		<circle style="fill:#FF2C5C;" cx="267.275" cy="406.288" r="15"/>
		<circle style="fill:#FF2C5C;" cx="413.725" cy="277.288" r="15"/>
		<circle style="fill:#FF2C5C;" cx="120.275" cy="266.288" r="15"/>
		<circle style="fill:#FF2C5C;" cx="146.275" cy="313.288" r="15"/>
		<circle style="fill:#FF2C5C;" cx="298.275" cy="133.288" r="15"/>
	</g>
	<g>
		<path d="M469,62.5h-52.5c-4.143,0-7.5,3.358-7.5,7.5c0,4.142,3.357,7.5,7.5,7.5H469c15.439,0,28,12.529,28,27.928v38.315    c-7.53-6.467-17.312-10.39-28-10.39H320.774c0-0.022,0.002-0.044,0.002-0.067c0-12.407-10.094-22.5-22.5-22.5    s-22.5,10.093-22.5,22.5c0,0.022,0.002,0.044,0.002,0.067h-26.002v-14.77c8.729-3.096,15-11.432,15-21.21    c0-8.603-4.856-16.091-11.969-19.875H384c4.143,0,7.5-3.358,7.5-7.5c0-4.142-3.357-7.5-7.5-7.5H43h-0.071    C19.26,62.5,0.004,81.753,0,105.42c0,0.001,0,0.003,0,0.004v228.822c0,4.142,3.357,7.5,7.5,7.5s7.5-3.358,7.5-7.5v-196.24    c0.138,0.118,0.281,0.229,0.419,0.345c0.16,0.133,0.321,0.265,0.482,0.396c0.387,0.316,0.78,0.624,1.176,0.925    c0.116,0.088,0.232,0.175,0.348,0.262c0.459,0.341,0.924,0.671,1.395,0.993c0.069,0.047,0.136,0.094,0.205,0.14    c0.535,0.36,1.077,0.708,1.626,1.043c0.017,0.01,0.033,0.021,0.05,0.031c2.94,1.788,6.074,3.211,9.349,4.238    c0.202,0.064,0.406,0.12,0.609,0.18c0.419,0.125,0.838,0.247,1.261,0.359c0.306,0.081,0.615,0.155,0.924,0.229    c0.322,0.078,0.645,0.154,0.969,0.224c0.366,0.08,0.735,0.153,1.105,0.223c0.269,0.051,0.539,0.099,0.809,0.145    c0.407,0.069,0.815,0.133,1.225,0.191c0.239,0.033,0.478,0.062,0.718,0.091c0.432,0.053,0.865,0.104,1.301,0.144    c0.229,0.021,0.459,0.035,0.689,0.053c0.441,0.033,0.881,0.068,1.325,0.088c0.301,0.014,0.604,0.015,0.907,0.023    c0.345,0.008,0.687,0.026,1.034,0.026l191.847-0.002v43.433h-33.508c-12.954,0-23.492,10.539-23.492,23.493v43.506h-36.29    c-3.096-8.729-11.433-15-21.21-15c-12.406,0-22.5,10.093-22.5,22.5s10.094,22.5,22.5,22.5c9.777,0,18.114-6.27,21.21-15h36.29v32    h-10.29c-3.096-8.729-11.433-15-21.21-15c-12.406,0-22.5,10.093-22.5,22.5s10.094,22.5,22.5,22.5c9.777,0,18.114-6.27,21.21-15    h10.29v26.507c0,12.954,10.538,23.493,23.492,23.493h58.508v14.29c-8.729,3.096-15,11.432-15,21.21    c0,12.407,10.094,22.5,22.5,22.5s22.5-10.093,22.5-22.5c0-9.777-6.271-18.114-15-21.21v-14.29h13.058c4.143,0,7.5-3.358,7.5-7.5    c0-4.142-3.357-7.5-7.5-7.5h-86.565c-4.683,0-8.492-3.81-8.492-8.493V215.279c0-4.683,3.81-8.493,8.492-8.493h132.015    c4.684,0,8.493,3.81,8.493,8.493v132.012c0,4.683-3.81,8.493-8.493,8.493H320c-4.143,0-7.5,3.358-7.5,7.5    c0,4.142,3.357,7.5,7.5,7.5h13.282c12.954,0,23.493-10.539,23.493-23.493v-62.506h35.739c3.096,8.729,11.433,15,21.21,15    c12.406,0,22.5-10.093,22.5-22.5s-10.094-22.5-22.5-22.5c-9.777,0-18.114,6.27-21.21,15h-35.739v-54.506    c0-12.954-10.539-23.493-23.493-23.493h-27.507v-37.29c3.56-1.263,6.711-3.394,9.194-6.143H469c15.439,0,28,12.529,28,27.93    V406.57c0,15.401-12.561,27.93-28,27.93H43c-15.439,0-28-12.529-28-27.93v-39.949c0-4.142-3.357-7.5-7.5-7.5s-7.5,3.358-7.5,7.5    v39.949c0,23.672,19.29,42.93,43,42.93h426c23.71,0,43-19.258,43-42.93V105.428C512,81.758,492.71,62.5,469,62.5z     M120.275,273.785c-4.136,0-7.5-3.364-7.5-7.5c0-4.136,3.364-7.5,7.5-7.5s7.5,3.364,7.5,7.5    C127.775,270.421,124.411,273.785,120.275,273.785z M146.275,320.785c-4.136,0-7.5-3.364-7.5-7.5c0-4.136,3.364-7.5,7.5-7.5    s7.5,3.364,7.5,7.5C153.775,317.421,150.411,320.785,146.275,320.785z M267.275,413.784c-4.136,0-7.5-3.364-7.5-7.5    s3.364-7.5,7.5-7.5s7.5,3.364,7.5,7.5S271.411,413.784,267.275,413.784z M413.725,269.785c4.136,0,7.5,3.364,7.5,7.5    s-3.364,7.5-7.5,7.5s-7.5-3.364-7.5-7.5S409.589,269.785,413.725,269.785z M298.275,125.787c4.136,0,7.5,3.364,7.5,7.5    c0,4.136-3.364,7.5-7.5,7.5s-7.5-3.364-7.5-7.5C290.775,129.152,294.14,125.787,298.275,125.787z M242.275,104.874    c-4.136,0-7.5-3.364-7.5-7.5s3.364-7.5,7.5-7.5s7.5,3.364,7.5,7.5S246.411,104.874,242.275,104.874z M53.964,77.5v55.854H43    c-3.241,0-6.395-0.546-9.36-1.592c-0.04-0.014-0.08-0.026-0.119-0.04c-0.348-0.125-0.693-0.26-1.036-0.399    c-0.086-0.035-0.174-0.067-0.259-0.102c-0.305-0.127-0.607-0.264-0.907-0.402c-0.116-0.053-0.235-0.104-0.351-0.159    c-0.283-0.135-0.562-0.279-0.841-0.423c-0.125-0.065-0.252-0.126-0.375-0.193c-0.286-0.154-0.567-0.316-0.848-0.48    c-0.108-0.063-0.219-0.123-0.326-0.188c-0.328-0.198-0.652-0.404-0.972-0.616c-0.052-0.034-0.105-0.066-0.157-0.101    c-1.512-1.013-2.937-2.181-4.253-3.497c-0.657-0.655-1.277-1.337-1.859-2.043c-0.1-0.121-0.193-0.247-0.291-0.37    c-0.17-0.214-0.342-0.427-0.506-0.645c-2.666-3.57-4.499-7.796-5.21-12.388c-0.002-0.015-0.005-0.031-0.008-0.046    c-0.06-0.393-0.108-0.789-0.151-1.187c-0.008-0.075-0.02-0.148-0.027-0.223c-0.036-0.356-0.06-0.716-0.082-1.076    c-0.007-0.114-0.02-0.226-0.025-0.34c-0.022-0.437-0.032-0.877-0.033-1.32c0-0.033-0.002-0.065-0.002-0.098    C15.001,90.027,27.561,77.5,43,77.5H53.964z M68.964,133.354V77.5h162.78c-7.113,3.784-11.969,11.272-11.969,19.875    c0,9.777,6.271,18.114,15,21.21v14.77H68.964z M249.775,191.786v-43.433h31.806c2.483,2.749,5.635,4.88,9.194,6.143v37.29H249.775    z"/>
		<path d="M326.775,329.285v-95.999c0-6.341-5.159-11.5-11.5-11.5h-96c-6.341,0-11.5,5.159-11.5,11.5v95.999    c0,6.341,5.159,11.5,11.5,11.5h96C321.616,340.785,326.775,335.626,326.775,329.285z M311.775,325.785h-89v-88.999h89V325.785z"/>
	</g>
</g>















</svg>
