<?xml version="1.0" encoding="iso-8859-1"?>
<!-- Generator: Adobe Illustrator 21.0.0, SVG Export Plug-In . SVG Version: 6.00 Build 0)  -->
<svg xmlns="http://www.w3.org/2000/svg" xmlns:xlink="http://www.w3.org/1999/xlink" version="1.1" id="Capa_1" x="0px" y="0px" viewBox="0 0 512 512" style="enable-background:new 0 0 512 512;" xml:space="preserve" width="512" height="512">
<g>
	<path style="fill:#FFBD54;" d="M226,489.25h-40c-11.046,0-20-8.954-20-20v0c0-11.046,8.954-20,20-20h40V489.25z"/>
	<path style="fill:#FFBD54;" d="M226,417h-40c-11.046,0-20-8.954-20-20v0c0-11.046,8.954-20,20-20h40V417z"/>
	<rect x="226" y="225.5" style="fill:#FFD659;" width="60" height="279"/>
	<rect x="256" y="225.5" style="fill:#FFBD54;" width="30" height="279"/>
	<circle style="fill:#FFBD54;" cx="256" cy="130" r="122.5"/>
	<path style="fill:#FF943D;" d="M256,7.5c-5.079,0-10.083,0.315-15,0.916C301.578,15.813,348.5,67.424,348.5,130   S301.578,244.188,241,251.584c4.917,0.601,9.921,0.916,15,0.916c67.655,0,122.5-54.845,122.5-122.5S323.655,7.5,256,7.5z"/>
	<path style="fill:#FFD659;" d="M256,222.5c-51.005,0-92.5-41.495-92.5-92.5s41.495-92.5,92.5-92.5s92.5,41.495,92.5,92.5   S307.005,222.5,256,222.5z"/>
	<path style="fill:#FF2C5C;" d="M296,187h-80c-5.523,0-10-4.477-10-10v-60c0-5.523,4.477-10,10-10h80c5.523,0,10,4.477,10,10v60   C306,182.523,301.523,187,296,187z"/>
	<path style="fill:#E62753;" d="M296,107h-30c5.523,0,10,4.477,10,10v60c0,5.523-4.477,10-10,10h30c5.523,0,10-4.477,10-10v-60   C306,111.477,301.523,107,296,107z"/>
	<circle style="fill:#685C79;" cx="256" cy="139.5" r="15"/>
	<g>
		<path d="M286,472.5c-4.142,0-7.5,3.357-7.5,7.5v17h-45V319.667c0-4.143-3.358-7.5-7.5-7.5s-7.5,3.357-7.5,7.5V369.5H186    c-15.164,0-27.5,12.337-27.5,27.5s12.336,27.5,27.5,27.5h32.5v17.25H186c-15.164,0-27.5,12.337-27.5,27.5s12.336,27.5,27.5,27.5    h32.5v7.75c0,4.143,3.358,7.5,7.5,7.5h60c4.142,0,7.5-3.357,7.5-7.5V480C293.5,475.857,290.142,472.5,286,472.5z M186,409.5    c-6.893,0-12.5-5.607-12.5-12.5s5.607-12.5,12.5-12.5h32.5v25H186z M186,481.75c-6.893,0-12.5-5.607-12.5-12.5    s5.607-12.5,12.5-12.5h32.5v25H186z"/>
		<path d="M386,130c0-26.224-7.773-51.498-22.479-73.093c-2.331-3.424-6.997-4.31-10.421-1.978s-4.309,6.997-1.978,10.421    C364.126,84.445,371,106.801,371,130c0,63.411-51.589,115-115,115s-115-51.589-115-115S192.589,15,256,15    c28.326,0,55.542,10.389,76.633,29.253c3.086,2.762,7.829,2.498,10.59-0.59c2.761-3.088,2.497-7.829-0.59-10.59    C318.787,11.745,288.021,0,256,0c-71.682,0-130,58.317-130,130c0,58.649,39.043,108.343,92.5,124.478V288    c0,4.143,3.358,7.5,7.5,7.5s7.5-3.357,7.5-7.5v-29.954c7.311,1.281,14.828,1.954,22.5,1.954s15.189-0.673,22.5-1.954v189.621    c0,4.143,3.358,7.5,7.5,7.5s7.5-3.357,7.5-7.5V254.478C346.957,238.343,386,188.649,386,130z"/>
		<path d="M256,30c-55.14,0-100,44.859-100,100s44.86,100,100,100s100-44.859,100-100S311.14,30,256,30z M256,215    c-46.869,0-85-38.131-85-85s38.131-85,85-85s85,38.131,85,85S302.869,215,256,215z"/>
		<path d="M296,99.5h-2.5V87c0-20.678-16.822-37.5-37.5-37.5S218.5,66.322,218.5,87v12.5H216c-9.649,0-17.5,7.851-17.5,17.5v60    c0,9.649,7.851,17.5,17.5,17.5h80c9.649,0,17.5-7.851,17.5-17.5v-60C313.5,107.351,305.649,99.5,296,99.5z M233.5,87    c0-12.406,10.093-22.5,22.5-22.5s22.5,10.094,22.5,22.5v12.5h-45V87z M298.5,177c0,1.379-1.122,2.5-2.5,2.5h-80    c-1.378,0-2.5-1.121-2.5-2.5v-60c0-1.379,1.122-2.5,2.5-2.5h80c1.378,0,2.5,1.121,2.5,2.5V177z"/>
		<path d="M256,117c-12.407,0-22.5,10.094-22.5,22.5c0,9.777,6.271,18.114,15,21.21v8.79c0,4.143,3.358,7.5,7.5,7.5    s7.5-3.357,7.5-7.5v-8.79c8.729-3.096,15-11.433,15-21.21C278.5,127.094,268.407,117,256,117z M256,147    c-4.136,0-7.5-3.364-7.5-7.5s3.364-7.5,7.5-7.5s7.5,3.364,7.5,7.5S260.136,147,256,147z"/>
	</g>
</g>















</svg>
