<svg width="26" height="26" viewBox="0 0 26 26" version="1.1" xmlns="http://www.w3.org/2000/svg" xmlns:xlink="http://www.w3.org/1999/xlink">
<g id="Canvas" fill="none">
<g id="union-jack-26">
<g id="Vector">
<path d="M 13 26C 20.1797 26 26 20.1797 26 13C 26 5.8203 20.1797 0 13 0C 5.8203 0 0 5.8203 0 13C 0 20.1797 5.8203 26 13 26Z" fill="#F0F0F0"/>
</g>
<g id="Group">
<g id="Vector_2">
<path d="M 2.2395 -8.67844e-08C 1.21834 1.32859 0.448348 2.8599 1.23978e-08 4.52344L 6.76295 4.52344L 2.2395 -8.67844e-08Z" transform="translate(0.449219 5.08398)" fill="#045CC7"/>
</g>
<g id="Vector_3">
<path d="M 6.76284 4.52339C 6.3145 2.8599 5.54445 1.32859 4.52334 -1.14679e-07L 2.47955e-07 4.52339L 6.76284 4.52339Z" transform="translate(18.7871 5.08398)" fill="#045CC7"/>
</g>
<g id="Vector_4">
<path d="M 1.23978e-08 -1.73569e-07C 0.448399 1.66349 1.21839 3.1948 2.2395 4.52334L 6.76279 -1.73569e-07L 1.23978e-08 -1.73569e-07Z" transform="translate(0.449219 16.3916)" fill="#045CC7"/>
</g>
<g id="Vector_5">
<path d="M 4.52339 2.23955C 3.1948 1.21839 1.66354 0.448398 6.57082e-07 1.23978e-08L 6.57082e-07 6.76289L 4.52339 2.23955Z" transform="translate(16.3945 0.447266)" fill="#045CC7"/>
</g>
<g id="Vector_6">
<path d="M -8.67844e-08 4.52329C 1.32859 5.54445 2.8599 6.31444 4.52339 6.76284L 4.52339 2.47955e-07L -8.67844e-08 4.52329Z" transform="translate(5.08594 18.7891)" fill="#045CC7"/>
</g>
<g id="Vector_7">
<path d="M 4.52334 1.23978e-08C 2.85985 0.448398 1.32854 1.21839 -8.67844e-08 2.2395L 4.52334 6.76284L 4.52334 1.23978e-08Z" transform="translate(5.08594 0.447266)" fill="#045CC7"/>
</g>
<g id="Vector_8">
<path d="M -5.33104e-07 6.76284C 1.66349 6.31444 3.1948 5.54445 4.52334 4.52334L -5.33104e-07 2.47955e-07L -5.33104e-07 6.76284Z" transform="translate(16.3945 18.7891)" fill="#045CC7"/>
</g>
<g id="Vector_9">
<path d="M 2.47955e-07 -1.73569e-07L 4.52334 4.52339C 5.54445 3.19485 6.3145 1.66349 6.76284 -1.73569e-07L 2.47955e-07 -1.73569e-07Z" transform="translate(18.7871 16.3916)" fill="#045CC7"/>
</g>
</g>
<g id="Group_2">
<g id="Vector_10">
<path d="M 25.89 11.3044L 14.6957 11.3044L 14.6957 11.3044L 14.6957 0.110043C 14.1406 0.0377813 13.5747 0 13 0C 12.4252 0 11.8594 0.0377813 11.3044 0.110043L 11.3044 11.3043L 11.3044 11.3043L 0.110043 11.3043C 0.0377813 11.8594 0 12.4253 0 13C 0 13.5748 0.0377813 14.1406 0.110043 14.6956L 11.3043 14.6956L 11.3043 14.6956L 11.3043 25.89C 11.8594 25.9622 12.4252 26 13 26C 13.5747 26 14.1406 25.9623 14.6956 25.89L 14.6956 14.6957L 14.6956 14.6957L 25.89 14.6957C 25.9622 14.1406 26 13.5748 26 13C 26 12.4253 25.9622 11.8594 25.89 11.3044Z" fill="#D80027"/>
</g>
<g id="Vector_11">
<path d="M -5.33104e-07 5.06077e-05L 5.80105 5.8011C 6.06785 5.53439 6.32237 5.25556 6.5652 4.96651L 1.5987 -5.33104e-07L -5.33104e-07 -5.33104e-07L -5.33104e-07 5.06077e-05Z" transform="translate(16.3926 16.3926)" fill="#D80027"/>
</g>
<g id="Vector_12">
<path d="M 5.8011 -1.73569e-07L 5.801 -1.73569e-07L 1.70469e-07 5.801C 0.266703 6.0678 0.545543 6.32231 0.83459 6.56515L 5.8011 1.59854L 5.8011 -1.73569e-07Z" transform="translate(3.80859 16.3926)" fill="#D80027"/>
</g>
<g id="Vector_13">
<path d="M 6.5652 5.8012L 6.5652 5.8011L 0.764156 1.70469e-07C 0.497352 0.266703 0.242836 0.545543 -6.81877e-08 0.83459L 4.96656 5.80115L 6.5652 5.80115L 6.5652 5.8012Z" transform="translate(3.04492 3.80762)" fill="#D80027"/>
</g>
<g id="Vector_14">
<path d="M -5.33104e-07 6.56525L 5.8011 0.764106C 5.5344 0.497301 5.25556 0.242785 4.96651 -9.60827e-08L -5.33104e-07 4.96656L -5.33104e-07 6.56525L -5.33104e-07 6.56525Z" transform="translate(16.3926 3.04297)" fill="#D80027"/>
</g>
</g>
</g>
</g>
</svg>

