<?xml version="1.0" standalone="no"?>
<!DOCTYPE svg PUBLIC "-//W3C//DTD SVG 20010904//EN"
 "http://www.w3.org/TR/2001/REC-SVG-20010904/DTD/svg10.dtd">
<svg version="1.0" xmlns="http://www.w3.org/2000/svg"
 width="700.000000pt" height="700.000000pt" viewBox="0 0 700.000000 700.000000"
 preserveAspectRatio="xMidYMid meet">
<metadata>
Created by potrace 1.11, written by Peter Selinger 2001-2013
</metadata>
<g transform="translate(0.000000,700.000000) scale(0.100000,-0.100000)"
fill="#000000" stroke="none">
<path d="M3215 6980 c-38 -4 -99 -11 -135 -14 -451 -47 -958 -217 -1366 -457
-357 -210 -701 -507 -960 -829 -62 -78 -214 -287 -214 -295 0 -2 -15 -28 -33
-57 -76 -119 -171 -301 -231 -443 -26 -60 -51 -119 -56 -130 -34 -74 -138
-430 -157 -535 -2 -14 -14 -76 -26 -138 -13 -62 -20 -116 -17 -121 6 -11 1440
-14 1455 -3 6 4 34 79 63 167 66 201 176 424 272 550 14 18 34 46 45 61 50 70
235 263 324 338 57 48 202 149 276 192 67 39 239 124 251 124 3 0 20 7 37 14
74 34 304 98 402 111 22 3 54 7 70 10 127 18 295 23 455 11 57 -4 107 -9 110
-11 3 -2 22 -6 43 -9 137 -22 339 -79 462 -131 364 -154 693 -428 913 -760 70
-106 197 -349 189 -362 -3 -4 -185 -8 -405 -8 l-400 0 -64 80 c-215 266 -546
447 -876 482 -482 50 -939 -149 -1223 -532 -120 -163 -200 -352 -238 -560 -20
-115 -22 -354 -3 -435 6 -25 13 -60 17 -77 9 -57 56 -193 88 -262 194 -412
571 -691 1022 -758 95 -14 345 -8 430 10 187 40 349 108 506 212 88 59 240
203 294 279 l40 56 408 0 c224 0 407 -3 407 -6 0 -3 -24 -56 -53 -118 -102
-214 -224 -385 -401 -561 -131 -130 -189 -178 -336 -275 -212 -140 -512 -257
-759 -296 -18 -3 -43 -8 -55 -10 -91 -18 -366 -24 -501 -11 -384 37 -761 188
-1068 429 -74 58 -100 81 -186 168 -190 191 -338 414 -439 660 -25 59 -91 258
-106 315 -3 12 -1446 15 -1463 3 -7 -6 -8 -19 -3 -41 5 -18 11 -48 14 -68 26
-175 100 -451 178 -659 45 -122 171 -392 230 -495 275 -478 664 -894 1103
-1180 197 -128 210 -136 410 -234 224 -111 407 -178 654 -242 85 -21 166 -41
180 -44 14 -2 68 -11 120 -20 52 -9 113 -18 135 -20 23 -3 61 -7 86 -9 165
-18 461 -24 590 -12 30 3 82 8 115 11 103 10 146 16 261 36 717 126 1369 468
1884 988 89 90 136 143 279 316 62 75 178 249 261 390 212 361 375 833 430
1245 6 47 13 96 15 109 9 55 19 277 18 416 -2 475 -95 911 -291 1370 -32 74
-148 299 -197 380 -273 455 -657 852 -1102 1142 -62 40 -136 85 -164 100 -28
16 -83 45 -123 67 -201 108 -575 251 -766 291 -8 2 -45 11 -83 20 -104 24
-258 50 -367 60 -36 4 -76 9 -90 12 -42 8 -510 10 -585 3z m539 -305 c49 -4
96 -8 105 -10 9 -2 44 -6 76 -10 74 -9 326 -60 391 -80 286 -85 404 -131 619
-241 665 -339 1190 -899 1483 -1584 82 -190 177 -501 197 -640 3 -25 8 -52 10
-60 2 -8 6 -28 9 -45 68 -425 46 -888 -61 -1295 -8 -30 -16 -62 -18 -70 -5
-25 -85 -264 -95 -285 -5 -11 -23 -54 -40 -95 -152 -360 -376 -693 -660 -980
-191 -193 -322 -301 -542 -446 -78 -51 -350 -204 -363 -204 -2 0 -36 -15 -77
-34 -239 -109 -602 -214 -843 -242 -27 -4 -52 -8 -55 -9 -15 -9 -238 -20 -400
-20 -293 0 -435 15 -740 80 -113 24 -303 85 -458 146 -459 183 -881 482 -1215
860 -78 88 -238 306 -312 424 -156 250 -318 630 -374 878 l-9 37 440 -2 439
-3 38 -95 c49 -123 101 -231 156 -324 49 -83 97 -158 105 -166 3 -3 17 -21 30
-40 162 -236 449 -489 744 -659 225 -130 575 -250 805 -276 25 -3 62 -8 81
-11 58 -10 420 -12 495 -4 372 42 651 134 966 315 170 98 316 212 464 360 163
163 257 284 373 477 55 90 154 304 188 403 27 81 94 307 94 319 0 8 -203 11
-691 11 l-691 0 -67 -97 c-93 -136 -172 -217 -286 -295 -207 -140 -458 -200
-712 -170 -259 31 -511 177 -681 395 -79 101 -167 291 -187 399 -22 127 -27
285 -11 368 3 17 9 44 12 60 10 59 66 211 96 265 159 282 412 466 722 525 105
20 263 20 366 0 72 -14 90 -19 153 -41 224 -79 399 -217 532 -420 l60 -92 693
0 c463 0 692 3 692 10 0 17 -58 210 -96 320 -219 631 -731 1160 -1359 1403
-230 89 -406 129 -670 154 -91 9 -345 7 -420 -3 -27 -4 -68 -9 -90 -12 -74 -9
-210 -35 -260 -49 -284 -81 -424 -141 -673 -290 -178 -106 -429 -330 -578
-515 -147 -182 -281 -416 -363 -630 l-32 -85 -439 0 c-386 0 -439 2 -436 15 3
8 7 25 11 37 3 12 7 30 9 40 10 50 94 291 138 393 54 127 167 347 218 425 182
280 316 444 526 646 524 502 1233 814 1964 865 47 3 86 7 87 8 5 5 338 -2 417
-9z"/>
</g>
</svg>
