<?xml version="1.0" encoding="UTF-8"?> <svg xmlns="http://www.w3.org/2000/svg" xmlns:xlink="http://www.w3.org/1999/xlink" width="59px" height="77px" viewBox="0 0 59 77"> <!-- Generator: Sketch 50.2 (55047) - http://www.bohemiancoding.com/sketch --> <title>Artboard 1</title> <desc>Created with Sketch.</desc> <defs> <polygon id="path-1" points="0.000156541712 0.877 38.5618 0.877 38.5618 78 0.000156541712 78"></polygon> </defs> <g id="Artboard-1" stroke="none" stroke-width="1" fill="none" fill-rule="evenodd"> <g id="Group-3" transform="translate(0.000000, -0.877200)"> <mask id="mask-2" fill="white"> <use xlink:href="#path-1"></use> </mask> <g id="Clip-2"></g> <path d="M2.9078,39.4385 L14.3298,39.4385 C15.9328,39.4385 17.2318,40.7375 17.2318,42.3405 L17.2318,59.5665 C17.2318,60.3355 17.5378,61.0735 18.0818,61.6185 L33.6078,77.1445 C35.4358,78.9725 38.5618,77.6775 38.5618,75.0925 L38.5618,3.7845 C38.5618,1.1995 35.4358,-0.0955 33.6078,1.7325 L0.8558,34.4845 C-0.9722,36.3135 0.3228,39.4385 2.9078,39.4385" id="Fill-1" fill="#C60300" mask="url(#mask-2)"></path> </g> <path d="M53.2589,6.6219 L53.2589,10.3319 L51.5669,10.3319 L51.5669,2.9319 L53.2379,2.9319 L55.0939,7.1719 L56.9489,2.9319 L58.6009,2.9319 L58.6009,10.3319 L56.9289,10.3319 L56.9289,6.6009 L55.6449,9.4139 L54.5239,9.4139 L53.2589,6.6219 Z M50.6099,4.5229 L48.9579,4.5229 L48.9579,10.3319 L47.2859,10.3319 L47.2859,4.5229 L45.6549,4.5229 L45.6549,2.9319 L50.6099,2.9319 L50.6099,4.5229 Z" id="Fill-4" fill="#C60300"></path> </g> </svg> 